<svg width="329" height="270" viewBox="0 0 329 270" fill="none" xmlns="http://www.w3.org/2000/svg">
<path d="M315.271 21.9769C311.059 19.9571 309.143 21.6403 307.608 19.9571C306.072 18.2739 311.819 13.9718 300.332 9.6494C300.332 9.6494 299.556 0.338149 283.865 0.00824936C268.173 -0.321651 272.377 9.3397 268.158 11.6692C263.938 13.9987 262.798 10.3227 258.586 12.6656C254.375 15.0086 256.259 19.6474 252.839 20.3139C249.418 20.9805 244.795 17.3246 240.583 19.6407C236.372 21.9567 236.372 23.963 234.456 23.963C232.54 23.963 228.708 22.6165 226.412 23.963C224.116 25.3096 221.433 26.959 221.433 26.959H318.335C318.335 26.959 319.483 23.9698 315.271 21.9769Z" fill="#263238"/>
<g opacity="0.5">
<path d="M315.271 21.9769C311.059 19.9571 309.143 21.6403 307.608 19.9571C306.072 18.2739 311.819 13.9718 300.332 9.6494C300.332 9.6494 299.556 0.338149 283.865 0.00824936C268.173 -0.321651 272.377 9.3397 268.158 11.6692C263.938 13.9987 262.798 10.3227 258.586 12.6656C254.375 15.0086 256.259 19.6474 252.839 20.3139C249.418 20.9805 244.795 17.3246 240.583 19.6407C236.372 21.9567 236.372 23.963 234.456 23.963C232.54 23.963 228.708 22.6165 226.412 23.963C224.116 25.3096 221.433 26.959 221.433 26.959H318.335C318.335 26.959 319.483 23.9698 315.271 21.9769Z" fill="white"/>
</g>
<path d="M261.588 63.8811C259.005 62.6625 257.834 63.6792 256.934 62.6625C256.034 61.6459 259.517 59 252.482 56.354C252.482 56.354 252.017 50.6582 242.398 50.4562C232.78 50.2543 235.371 56.1521 232.788 57.5794C230.205 59.0067 229.507 56.7647 226.932 58.1853C224.357 59.6059 225.528 62.4606 223.418 62.8645C221.308 63.2685 218.493 61.0332 215.918 62.4605C213.342 63.8879 213.335 65.0998 212.164 65.0998C210.992 65.0998 208.65 64.2918 207.246 65.0998C205.842 65.9077 204.198 66.931 204.198 66.931H263.457C263.457 66.931 264.163 65.0997 261.588 63.8811Z" fill="#263238"/>
<g opacity="0.5">
<path d="M261.588 63.8811C259.005 62.6625 257.834 63.6792 256.934 62.6625C256.034 61.6459 259.517 59 252.482 56.354C252.482 56.354 252.017 50.6582 242.398 50.4562C232.78 50.2543 235.371 56.1521 232.788 57.5794C230.205 59.0067 229.507 56.7647 226.932 58.1853C224.357 59.6059 225.528 62.4606 223.418 62.8645C221.308 63.2685 218.493 61.0332 215.918 62.4605C213.342 63.8879 213.335 65.0998 212.164 65.0998C210.992 65.0998 208.65 64.2918 207.246 65.0998C205.842 65.9077 204.198 66.931 204.198 66.931H263.457C263.457 66.931 264.163 65.0997 261.588 63.8811Z" fill="white"/>
</g>
<path d="M144.938 130.05C144.938 130.05 165.291 131.794 175.607 142.748C175.607 142.748 186.505 130.056 206.082 130.319C210.863 125.31 213.907 119.226 214.859 112.774C215.811 106.322 214.631 99.7681 211.459 93.8753C208.286 87.9825 203.25 82.9931 196.938 79.488C190.625 75.9829 183.295 74.1062 175.801 74.0765C168.308 74.0468 160.959 75.8653 154.609 79.3202C148.26 82.7752 143.172 87.7244 139.937 93.5918C136.703 99.4593 135.455 106.003 136.339 112.463C137.223 118.922 140.202 125.03 144.93 130.077L144.938 130.05Z" fill="#263238"/>
<path opacity="0.5" d="M144.938 130.05C144.938 130.05 165.291 131.794 175.607 142.748C175.607 142.748 186.505 130.056 206.082 130.319C210.863 125.31 213.907 119.226 214.859 112.774C215.811 106.322 214.631 99.7681 211.459 93.8753C208.286 87.9825 203.25 82.9931 196.938 79.488C190.625 75.9829 183.295 74.1062 175.801 74.0765C168.308 74.0468 160.959 75.8653 154.609 79.3202C148.26 82.7752 143.172 87.7244 139.937 93.5918C136.703 99.4593 135.455 106.003 136.339 112.463C137.223 118.922 140.202 125.03 144.93 130.077L144.938 130.05Z" fill="white"/>
<path d="M174.932 76.4844L174.25 255.734H177.686L174.932 76.4844Z" fill="#828282"/>
<path d="M175.964 139.408C175.964 139.408 182.836 128.669 195.208 125.39C195.208 125.39 182.146 128.083 175.623 137.32L175.964 139.408Z" fill="#828282"/>
<path d="M175.219 109.279C175.219 109.279 182.836 98.251 195.208 94.9722C195.208 94.9722 181.742 98.3385 175.219 107.582V109.279Z" fill="#828282"/>
<path d="M175.483 124.966C175.483 124.966 182.836 113.46 195.208 110.154C195.208 110.154 181.836 113.373 175.305 122.616L175.483 124.966Z" fill="#828282"/>
<path d="M174.948 116.745C174.948 116.745 168.316 106.007 156.379 102.728C156.379 102.728 168.975 105.421 175.281 114.658L174.948 116.745Z" fill="#828282"/>
<path d="M174.948 131.652C174.948 131.652 168.316 120.92 156.379 117.641C156.379 117.641 168.975 120.334 175.281 129.565L174.948 131.652Z" fill="#828282"/>
<path d="M28.1091 103.913C28.1091 103.913 63.6572 106.963 81.6756 126.09C81.6756 126.09 100.71 103.933 134.901 104.391C143.255 95.6421 148.575 85.0132 150.24 73.7419C151.905 62.4705 149.846 51.0206 144.305 40.7251C138.763 30.4297 129.967 21.7125 118.939 15.5884C107.911 9.46435 95.1056 6.18543 82.014 6.13344C68.9224 6.08145 56.0831 9.25853 44.9911 15.2948C33.8991 21.331 25.0108 29.978 19.361 40.229C13.7112 50.4799 11.5325 61.9131 13.0785 73.1972C14.6245 84.4813 19.8316 95.152 28.0935 103.967L28.1091 103.913Z" fill="#263238"/>
<path opacity="0.3" d="M28.1091 103.913C28.1091 103.913 63.6572 106.963 81.6756 126.09C81.6756 126.09 100.71 103.933 134.901 104.391C143.255 95.6421 148.575 85.0132 150.24 73.7419C151.905 62.4705 149.846 51.0206 144.305 40.7251C138.763 30.4297 129.967 21.7125 118.939 15.5884C107.911 9.46435 95.1056 6.18543 82.014 6.13344C68.9224 6.08145 56.0831 9.25853 44.9911 15.2948C33.8991 21.331 25.0108 29.978 19.361 40.229C13.7112 50.4799 11.5325 61.9131 13.0785 73.1972C14.6245 84.4813 19.8316 95.152 28.0935 103.967L28.1091 103.913Z" fill="white"/>
<path d="M80.4966 10.3696L79.2943 255.734H85.2979L80.4966 10.3696Z" fill="#828282"/>
<path d="M82.2961 120.267C82.2961 120.267 94.2954 101.516 115.897 95.7866C115.897 95.7866 93.1009 100.499 81.6989 116.617L82.2961 120.267Z" fill="#828282"/>
<path d="M81.3964 68.1831C81.3964 68.1831 94.2955 48.3892 115.897 42.6597C115.897 42.6597 92.8838 48.0929 81.4817 64.2378L81.3964 68.1831Z" fill="#828282"/>
<path d="M81.7532 94.3729C81.7532 94.3729 94.2955 74.9492 115.882 69.2197C115.882 69.2197 93.0854 73.9326 81.6833 90.0573L81.7532 94.3729Z" fill="#828282"/>
<path d="M80.5198 80.6786C80.5198 80.6786 68.9394 61.9282 48.0976 56.1987C48.0976 56.1987 70.0951 60.9116 81.0938 77.0363L80.5198 80.6786Z" fill="#828282"/>
<path d="M80.5198 106.721C80.5198 106.721 68.9394 87.9702 48.0976 82.2407C48.0976 82.2407 70.0951 86.9536 81.0938 103.112L80.5198 106.721Z" fill="#828282"/>
<path d="M283.586 164.75C283.547 164.75 284.043 162.602 284.098 162.474C284.671 160.932 286.82 158.259 288.899 158.266C289.245 158.275 289.585 158.346 289.896 158.477C290.208 158.607 290.485 158.793 290.708 159.022C290.931 159.252 291.096 159.519 291.192 159.808C291.288 160.096 291.313 160.399 291.265 160.697C291.117 161.962 289.806 163.046 288.612 163.672C287.223 164.406 283.586 164.75 283.586 164.75Z" fill="#263238"/>
<path d="M279.552 150.274C281.515 150.88 282.484 154.031 282.422 155.661C282.422 155.795 282.05 157.97 282.011 157.956H281.972C282.135 158.455 282.298 158.986 282.461 159.572C282.756 160.656 283.074 161.888 283.322 163.241C283.603 164.701 283.787 166.173 283.873 167.651C283.984 169.305 283.919 170.964 283.679 172.607C283.679 172.607 283.679 172.647 283.679 172.667C283.935 172.182 284.703 170.863 284.78 170.769C285.796 169.422 288.658 167.328 290.691 167.806C291.022 167.894 291.328 168.041 291.59 168.238C291.851 168.435 292.062 168.677 292.209 168.95C292.355 169.222 292.434 169.519 292.439 169.819C292.445 170.12 292.378 170.418 292.242 170.695C291.714 171.886 290.117 172.627 288.782 172.957C287.27 173.334 283.911 172.889 283.648 172.856C283.362 174.523 282.947 176.172 282.407 177.791C282.104 178.74 281.755 179.683 281.398 180.625L281.887 179.804C282.911 178.457 285.765 176.363 287.805 176.848C288.136 176.936 288.443 177.083 288.704 177.28C288.966 177.477 289.177 177.719 289.323 177.992C289.469 178.264 289.548 178.561 289.554 178.861C289.56 179.162 289.492 179.46 289.356 179.736C288.821 180.921 287.231 181.669 285.889 181.999C284.547 182.329 281.662 181.999 280.902 181.911L280.483 182.995C279.793 184.719 279.102 186.442 278.474 188.146C278.257 188.745 278.071 189.344 277.877 189.943C278.086 189.58 278.265 189.27 278.303 189.27C279.319 187.923 282.182 185.83 284.214 186.308C284.545 186.395 284.852 186.542 285.113 186.739C285.375 186.936 285.586 187.179 285.732 187.451C285.878 187.724 285.957 188.02 285.963 188.32C285.968 188.621 285.901 188.919 285.765 189.196C285.238 190.388 283.64 191.128 282.306 191.458C280.972 191.788 278.358 191.498 277.45 191.391C277.272 192.01 277.093 192.63 276.962 193.235C276.876 193.653 276.76 194.043 276.698 194.468C276.636 194.892 276.566 195.296 276.504 195.706C276.411 196.494 276.302 197.309 276.232 198.083C276.186 198.622 276.147 199.133 276.101 199.645C276.31 199.046 276.752 197.881 276.806 197.787C277.54 196.519 278.635 195.434 279.987 194.636C280.065 194.493 280.156 194.356 280.258 194.225C280.446 193.973 280.693 193.758 280.984 193.595C281.274 193.431 281.601 193.322 281.943 193.276C282.284 193.23 282.634 193.246 282.968 193.325C283.302 193.404 283.613 193.543 283.88 193.734C285.432 194.912 285.067 198.157 284.338 199.645C284.299 199.732 283.71 200.635 283.33 201.2C283.609 200.897 283.88 200.601 284.175 200.291C284.757 199.679 285.354 199.079 285.998 198.433L286.967 197.517C287.285 197.201 287.673 196.905 288.022 196.602C288.86 195.929 289.736 195.255 290.644 194.582C290.031 194.138 287.852 192.562 287.231 191.465C286.611 190.367 286.161 188.859 286.812 187.715C286.956 187.441 287.164 187.198 287.423 186.999C287.682 186.8 287.986 186.65 288.316 186.56C288.646 186.47 288.994 186.441 289.338 186.475C289.681 186.51 290.013 186.606 290.31 186.759C292.071 187.715 292.25 190.973 291.792 192.535C291.792 192.636 291.288 193.727 291.016 194.319C291.567 193.929 292.11 193.532 292.684 193.148C294.328 192.044 296.035 190.973 297.733 189.889C298.253 189.566 298.765 189.216 299.285 188.893C299.06 188.738 296.43 186.873 295.732 185.681C295.112 184.604 294.662 183.083 295.313 181.938C295.448 181.665 295.647 181.419 295.897 181.216C296.147 181.013 296.443 180.857 296.767 180.759C297.09 180.661 297.433 180.622 297.775 180.646C298.116 180.669 298.448 180.754 298.75 180.895C300.51 181.857 300.689 185.109 300.231 186.678C300.231 186.792 299.517 188.361 299.316 188.751C300.456 188.024 301.573 187.284 302.651 186.516C304.106 185.484 305.481 184.371 306.77 183.184C306.669 183.11 303.908 181.164 303.194 179.952C302.574 178.875 302.124 177.353 302.775 176.209C302.919 175.936 303.127 175.692 303.386 175.493C303.645 175.294 303.949 175.144 304.278 175.053C304.608 174.963 304.956 174.933 305.299 174.966C305.643 174.999 305.975 175.094 306.273 175.246C308.034 176.209 308.213 179.467 307.755 181.029C307.755 181.13 307.204 182.329 306.94 182.894L307.041 182.948C308.303 181.724 309.435 180.403 310.423 179.003C310.982 178.242 311.463 177.481 311.912 176.74C311.362 176.424 308.81 174.983 308.034 173.926C307.258 172.869 306.646 171.442 307.142 170.243C307.253 169.956 307.432 169.692 307.668 169.469C307.905 169.246 308.193 169.068 308.514 168.949C308.835 168.829 309.181 168.77 309.53 168.775C309.879 168.78 310.223 168.849 310.539 168.978C312.417 169.765 312.998 173.017 312.742 174.586C312.742 174.674 312.479 175.542 312.277 176.175C312.479 175.838 312.688 175.502 312.866 175.158C313.557 173.926 314.092 172.768 314.565 171.731C314.821 171.139 315.046 170.6 315.248 170.095C314.891 169.543 313.464 167.308 313.324 166.056C313.184 164.803 313.409 163.295 314.495 162.434C314.741 162.222 315.036 162.058 315.36 161.952C315.684 161.847 316.031 161.801 316.376 161.82C316.722 161.838 317.059 161.92 317.366 162.059C317.673 162.199 317.942 162.393 318.156 162.629C319.397 164.076 318.211 167.167 317.133 168.486C317.039 168.601 315.349 170.237 315.333 170.203V170.169C315.155 170.661 314.945 171.186 314.712 171.752C314.27 172.795 313.758 173.973 313.099 175.226C312.409 176.575 311.632 177.89 310.772 179.164C309.809 180.593 308.7 181.945 307.46 183.204L307.414 183.251C307.933 182.975 309.415 182.234 309.531 182.194C311.245 181.554 314.961 181.197 316.341 182.557C316.562 182.789 316.724 183.058 316.817 183.348C316.909 183.638 316.931 183.941 316.879 184.238C316.828 184.535 316.705 184.82 316.519 185.073C316.333 185.326 316.087 185.543 315.798 185.708C314.596 186.442 312.797 186.301 311.47 185.937C309.981 185.52 307.452 183.547 307.258 183.392C305.96 184.646 304.566 185.823 303.085 186.913C302.232 187.587 301.34 188.179 300.44 188.792L301.371 188.341C303.085 187.708 306.801 187.344 308.189 188.711C308.409 188.943 308.571 189.212 308.663 189.501C308.755 189.79 308.775 190.093 308.723 190.39C308.671 190.687 308.548 190.971 308.361 191.223C308.174 191.476 307.928 191.691 307.639 191.855C306.436 192.596 304.637 192.448 303.31 192.084C301.984 191.721 299.781 190.064 299.207 189.627L298.168 190.3C296.5 191.411 294.825 192.515 293.219 193.666C292.653 194.064 292.118 194.468 291.575 194.878L292.35 194.488C294.057 193.848 297.78 193.491 299.161 194.851C299.38 195.083 299.541 195.353 299.633 195.642C299.725 195.932 299.746 196.234 299.695 196.531C299.644 196.828 299.521 197.113 299.336 197.366C299.15 197.619 298.906 197.836 298.618 198.002C297.415 198.736 295.616 198.595 294.29 198.231C292.963 197.868 290.97 196.373 290.287 195.848C289.744 196.279 289.201 196.709 288.736 197.147C288.402 197.457 288.053 197.733 287.735 198.056L286.781 198.992C286.207 199.605 285.602 200.237 285.052 200.843C284.664 201.267 284.276 201.678 283.942 202.089C284.501 201.685 285.61 200.924 285.711 200.87C287.262 200.015 290.915 199.167 292.506 200.338C292.763 200.539 292.969 200.785 293.11 201.059C293.25 201.333 293.323 201.63 293.323 201.931C293.323 202.231 293.25 202.528 293.11 202.802C292.969 203.077 292.763 203.322 292.506 203.523C291.443 204.405 289.636 204.499 288.263 204.317C286.758 204.109 284.02 202.56 283.679 202.365C283.081 203.038 282.507 203.711 281.98 204.385C280.142 206.593 278.707 208.492 277.722 209.831L277.621 209.966L276.333 209.374L276.535 209.111C277.559 207.764 279.056 205.879 280.972 203.685C281.577 203.011 282.236 202.257 282.919 201.517C282.217 200.84 281.559 200.129 280.948 199.389C279.482 199.887 276.434 199.908 276.038 199.908C275.976 200.763 275.922 201.591 275.891 202.378C275.759 205.071 275.767 207.374 275.798 208.963V209.145L274.402 208.559C274.402 206.977 274.472 204.843 274.658 202.325C274.72 201.456 274.805 200.527 274.898 199.578C274.51 199.49 271.346 198.783 270.151 197.955C268.957 197.127 267.917 195.982 267.956 194.71C267.955 194.409 268.026 194.112 268.165 193.837C268.304 193.562 268.508 193.315 268.764 193.112C269.02 192.91 269.322 192.756 269.65 192.662C269.979 192.567 270.326 192.533 270.671 192.562C272.734 192.791 274.472 195.686 274.805 197.275C274.805 197.369 274.914 198.406 274.96 199.059C274.999 198.669 275.038 198.292 275.084 197.894C275.177 197.107 275.294 196.319 275.418 195.471L275.651 194.239C275.72 193.828 275.845 193.397 275.945 192.973C276.194 191.99 276.504 191.007 276.845 190.017C276.07 189.95 273.223 189.66 272.013 189.054C270.803 188.449 269.469 187.398 269.283 186.133C269.228 185.834 269.246 185.53 269.336 185.238C269.426 184.947 269.587 184.675 269.806 184.441C270.026 184.207 270.3 184.016 270.611 183.881C270.922 183.745 271.262 183.668 271.61 183.655C273.688 183.614 275.907 186.247 276.519 187.769C276.558 187.863 276.861 189.001 277.008 189.627C277.217 189.034 277.419 188.442 277.652 187.849C278.327 186.139 279.064 184.429 279.793 182.719C280.018 182.194 280.235 181.669 280.452 181.144C280.165 181.144 276.799 180.841 275.449 180.167C274.239 179.568 272.905 178.511 272.719 177.245C272.664 176.947 272.682 176.643 272.772 176.351C272.862 176.06 273.023 175.788 273.242 175.554C273.462 175.32 273.736 175.129 274.047 174.993C274.358 174.858 274.698 174.781 275.046 174.768C277.124 174.721 279.343 177.353 279.956 178.881C280.002 178.996 280.429 180.632 280.514 181.049C280.995 179.898 281.46 178.74 281.871 177.589C282.428 176.031 282.868 174.443 283.19 172.836C283.058 172.836 279.544 172.546 278.156 171.853C276.954 171.253 275.612 170.196 275.426 168.931C275.371 168.633 275.389 168.328 275.479 168.036C275.569 167.745 275.73 167.473 275.949 167.239C276.169 167.005 276.443 166.814 276.754 166.679C277.065 166.543 277.405 166.466 277.753 166.453C279.839 166.413 282.05 169.045 282.663 170.567C282.709 170.668 283.035 171.913 283.174 172.506H283.237C283.509 170.881 283.615 169.238 283.555 167.598C283.555 166.695 283.454 165.834 283.353 164.999C282.694 164.999 279.669 164.999 278.342 164.5C277.016 164.002 275.604 163.093 275.24 161.855C275.144 161.564 275.121 161.26 275.171 160.961C275.221 160.662 275.344 160.376 275.531 160.122C275.718 159.867 275.965 159.65 276.255 159.485C276.546 159.319 276.874 159.209 277.217 159.162C279.281 158.919 281.817 161.323 282.647 162.777C282.694 162.858 283.035 163.706 283.275 164.325C283.221 163.948 283.174 163.558 283.12 163.194C282.911 161.848 282.616 160.616 282.345 159.525C282.189 158.912 282.034 158.354 281.879 157.835C281.228 157.552 278.614 156.361 277.722 155.405C276.83 154.449 276.031 153.062 276.388 151.823C276.465 151.534 276.611 151.263 276.816 151.026C277.021 150.789 277.281 150.591 277.578 150.445C277.876 150.3 278.205 150.209 278.544 150.18C278.884 150.151 279.227 150.183 279.552 150.274Z" fill="#263238"/>
<path d="M317.202 178.133C315.566 178.079 312.316 176.632 312.316 176.632C312.316 176.632 314.069 175.057 314.193 174.969C315.643 173.966 319.134 172.761 320.871 173.764C321.153 173.937 321.39 174.159 321.567 174.417C321.744 174.674 321.856 174.961 321.897 175.259C321.938 175.556 321.907 175.858 321.805 176.145C321.703 176.431 321.533 176.696 321.306 176.921C320.367 177.911 318.583 178.187 317.202 178.133Z" fill="#263238"/>
<g opacity="0.5">
<path d="M283.586 164.75C283.547 164.75 284.043 162.602 284.097 162.474C284.671 160.932 286.82 158.259 288.899 158.266C289.245 158.275 289.585 158.346 289.896 158.477C290.208 158.607 290.485 158.793 290.708 159.022C290.931 159.252 291.096 159.519 291.192 159.808C291.288 160.096 291.313 160.399 291.265 160.697C291.117 161.962 289.806 163.046 288.612 163.672C287.223 164.406 283.586 164.75 283.586 164.75Z" fill="white"/>
<path d="M279.552 150.274C281.515 150.88 282.484 154.031 282.422 155.66C282.422 155.795 282.05 157.969 282.011 157.956H281.972C282.135 158.454 282.298 158.986 282.461 159.572C282.756 160.656 283.074 161.888 283.322 163.241C283.603 164.7 283.787 166.173 283.873 167.651C283.984 169.304 283.919 170.963 283.679 172.606C283.679 172.606 283.679 172.647 283.679 172.667C283.935 172.182 284.703 170.862 284.78 170.768C285.796 169.422 288.658 167.328 290.691 167.806C291.022 167.893 291.328 168.04 291.59 168.237C291.851 168.434 292.062 168.677 292.209 168.949C292.355 169.222 292.434 169.518 292.439 169.819C292.445 170.119 292.378 170.418 292.242 170.694C291.714 171.886 290.117 172.626 288.782 172.956C287.27 173.333 283.911 172.889 283.648 172.855C283.362 174.522 282.947 176.171 282.407 177.79C282.104 178.74 281.755 179.682 281.398 180.625L281.887 179.803C282.911 178.457 285.765 176.363 287.805 176.848C288.136 176.935 288.443 177.082 288.704 177.279C288.966 177.476 289.177 177.719 289.323 177.991C289.469 178.264 289.548 178.56 289.554 178.861C289.56 179.161 289.492 179.459 289.356 179.736C288.821 180.921 287.231 181.668 285.889 181.998C284.547 182.328 281.662 181.998 280.902 181.911L280.483 182.995C279.793 184.718 279.102 186.442 278.474 188.145C278.257 188.744 278.071 189.343 277.877 189.943C278.086 189.579 278.265 189.269 278.303 189.269C279.319 187.923 282.182 185.829 284.214 186.307C284.545 186.395 284.852 186.542 285.113 186.739C285.375 186.936 285.586 187.178 285.732 187.451C285.878 187.723 285.957 188.019 285.963 188.32C285.968 188.621 285.901 188.919 285.765 189.195C285.238 190.387 283.64 191.128 282.306 191.458C280.972 191.787 278.358 191.498 277.45 191.39C277.272 192.01 277.093 192.629 276.962 193.235C276.876 193.652 276.76 194.043 276.698 194.467C276.636 194.891 276.566 195.295 276.504 195.706C276.411 196.494 276.302 197.308 276.232 198.082C276.186 198.621 276.147 199.133 276.101 199.644C276.31 199.045 276.752 197.88 276.806 197.786C277.54 196.518 278.635 195.434 279.987 194.635C280.065 194.493 280.156 194.355 280.258 194.225C280.446 193.972 280.693 193.758 280.984 193.594C281.274 193.431 281.601 193.322 281.943 193.276C282.284 193.229 282.634 193.246 282.968 193.325C283.302 193.404 283.613 193.543 283.88 193.733C285.432 194.911 285.067 198.157 284.338 199.644C284.299 199.732 283.71 200.634 283.33 201.2C283.609 200.897 283.88 200.6 284.175 200.291C284.757 199.678 285.354 199.079 285.998 198.433L286.967 197.517C287.285 197.2 287.673 196.904 288.022 196.601C288.86 195.928 289.736 195.255 290.644 194.581C290.031 194.137 287.852 192.562 287.231 191.464C286.611 190.367 286.161 188.859 286.812 187.714C286.956 187.441 287.164 187.197 287.423 186.998C287.682 186.799 287.986 186.65 288.316 186.56C288.646 186.47 288.994 186.441 289.338 186.475C289.681 186.509 290.013 186.606 290.31 186.758C292.071 187.714 292.25 190.973 291.792 192.535C291.792 192.636 291.288 193.726 291.016 194.319C291.567 193.928 292.11 193.531 292.684 193.147C294.328 192.043 296.035 190.973 297.733 189.889C298.253 189.566 298.765 189.216 299.285 188.892C299.06 188.738 296.43 186.873 295.732 185.681C295.112 184.604 294.662 183.082 295.313 181.938C295.448 181.664 295.647 181.418 295.897 181.215C296.147 181.012 296.443 180.857 296.767 180.759C297.09 180.661 297.433 180.622 297.775 180.645C298.116 180.668 298.448 180.753 298.75 180.894C300.51 181.857 300.689 185.109 300.231 186.677C300.231 186.792 299.517 188.361 299.316 188.751C300.456 188.024 301.573 187.283 302.651 186.516C304.106 185.483 305.481 184.37 306.77 183.183C306.669 183.109 303.908 181.163 303.194 179.951C302.574 178.874 302.124 177.353 302.775 176.208C302.919 175.935 303.127 175.691 303.386 175.492C303.645 175.293 303.949 175.144 304.278 175.053C304.608 174.962 304.956 174.932 305.299 174.966C305.643 174.999 305.975 175.094 306.273 175.245C308.034 176.208 308.213 179.467 307.755 181.029C307.755 181.13 307.204 182.328 306.94 182.894L307.041 182.947C308.303 181.723 309.435 180.403 310.423 179.002C310.982 178.241 311.463 177.481 311.912 176.74C311.362 176.424 308.81 174.983 308.034 173.926C307.258 172.869 306.646 171.441 307.142 170.243C307.253 169.955 307.432 169.691 307.668 169.468C307.905 169.245 308.193 169.068 308.514 168.948C308.835 168.829 309.181 168.77 309.53 168.775C309.879 168.78 310.223 168.849 310.539 168.977C312.417 169.765 312.998 173.017 312.742 174.586C312.742 174.673 312.479 175.542 312.277 176.174C312.479 175.838 312.688 175.501 312.866 175.158C313.557 173.926 314.092 172.768 314.565 171.731C314.821 171.138 315.046 170.6 315.248 170.095C314.891 169.543 313.464 167.308 313.324 166.055C313.184 164.803 313.409 163.295 314.495 162.433C314.741 162.222 315.036 162.058 315.36 161.952C315.684 161.846 316.031 161.801 316.376 161.819C316.722 161.838 317.059 161.919 317.366 162.059C317.673 162.198 317.942 162.392 318.156 162.628C319.397 164.076 318.211 167.166 317.133 168.486C317.039 168.6 315.349 170.236 315.333 170.203V170.169C315.155 170.66 314.945 171.186 314.712 171.751C314.27 172.795 313.758 173.973 313.099 175.225C312.409 176.575 311.632 177.89 310.772 179.164C309.809 180.593 308.7 181.945 307.46 183.203L307.414 183.25C307.933 182.974 309.415 182.234 309.531 182.193C311.245 181.554 314.961 181.197 316.341 182.557C316.562 182.789 316.724 183.058 316.817 183.348C316.909 183.637 316.931 183.94 316.879 184.238C316.828 184.535 316.705 184.819 316.519 185.073C316.333 185.326 316.087 185.542 315.798 185.708C314.596 186.442 312.797 186.3 311.47 185.937C309.981 185.519 307.452 183.547 307.258 183.392C305.96 184.646 304.566 185.822 303.085 186.913C302.232 187.586 301.34 188.179 300.44 188.791L301.371 188.34C303.085 187.707 306.801 187.344 308.189 188.711C308.409 188.942 308.571 189.211 308.663 189.501C308.755 189.79 308.775 190.093 308.723 190.39C308.671 190.686 308.548 190.97 308.361 191.223C308.174 191.475 307.928 191.69 307.639 191.855C306.436 192.595 304.637 192.447 303.31 192.084C301.984 191.72 299.781 190.064 299.207 189.626L298.168 190.3C296.5 191.41 294.825 192.515 293.219 193.666C292.653 194.063 292.118 194.467 291.575 194.878L292.35 194.487C294.057 193.848 297.78 193.491 299.161 194.851C299.38 195.083 299.541 195.352 299.633 195.642C299.725 195.931 299.746 196.234 299.695 196.531C299.644 196.828 299.521 197.112 299.336 197.365C299.15 197.619 298.906 197.835 298.618 198.002C297.415 198.736 295.616 198.594 294.29 198.231C292.963 197.867 290.97 196.372 290.287 195.847C289.744 196.278 289.201 196.709 288.736 197.147C288.402 197.456 288.053 197.732 287.735 198.056L286.781 198.991C286.207 199.604 285.602 200.237 285.052 200.843C284.664 201.267 284.276 201.678 283.942 202.088C284.501 201.684 285.61 200.924 285.711 200.87C287.262 200.015 290.915 199.166 292.506 200.338C292.763 200.539 292.969 200.784 293.11 201.059C293.25 201.333 293.323 201.63 293.323 201.93C293.323 202.231 293.25 202.527 293.11 202.802C292.969 203.076 292.763 203.322 292.506 203.522C291.443 204.404 289.636 204.499 288.263 204.317C286.758 204.108 284.02 202.56 283.679 202.364C283.081 203.038 282.507 203.711 281.98 204.384C280.142 206.593 278.707 208.491 277.722 209.831L277.621 209.966L276.333 209.373L276.535 209.111C277.559 207.764 279.056 205.879 280.972 203.684C281.577 203.011 282.236 202.257 282.919 201.516C282.217 200.839 281.559 200.129 280.948 199.389C279.482 199.887 276.434 199.907 276.038 199.907C275.976 200.762 275.922 201.59 275.891 202.378C275.759 205.071 275.767 207.374 275.798 208.962V209.144L274.402 208.558C274.402 206.976 274.472 204.842 274.658 202.324C274.72 201.456 274.805 200.526 274.898 199.577C274.51 199.49 271.346 198.783 270.151 197.955C268.957 197.126 267.917 195.982 267.956 194.709C267.955 194.409 268.026 194.111 268.165 193.836C268.304 193.561 268.508 193.314 268.764 193.112C269.02 192.909 269.322 192.756 269.65 192.661C269.979 192.566 270.326 192.532 270.671 192.562C272.734 192.791 274.472 195.686 274.805 197.275C274.805 197.369 274.914 198.406 274.96 199.059C274.999 198.668 275.038 198.291 275.084 197.894C275.177 197.106 275.294 196.319 275.418 195.47L275.651 194.238C275.72 193.827 275.845 193.397 275.945 192.972C276.194 191.989 276.504 191.006 276.845 190.017C276.07 189.949 273.223 189.66 272.013 189.054C270.803 188.448 269.469 187.398 269.283 186.132C269.228 185.834 269.246 185.529 269.336 185.238C269.426 184.946 269.587 184.674 269.806 184.44C270.026 184.207 270.3 184.016 270.611 183.88C270.922 183.745 271.262 183.668 271.61 183.654C273.688 183.614 275.907 186.246 276.519 187.768C276.558 187.862 276.861 189 277.008 189.626C277.217 189.034 277.419 188.441 277.652 187.849C278.327 186.139 279.064 184.429 279.793 182.719C280.018 182.193 280.235 181.668 280.452 181.143C280.165 181.143 276.799 180.84 275.449 180.167C274.239 179.568 272.905 178.511 272.719 177.245C272.664 176.947 272.682 176.642 272.772 176.351C272.862 176.059 273.023 175.787 273.242 175.553C273.462 175.319 273.736 175.128 274.047 174.993C274.358 174.857 274.698 174.781 275.046 174.767C277.124 174.72 279.343 177.353 279.956 178.881C280.002 178.995 280.429 180.631 280.514 181.049C280.995 179.898 281.46 178.74 281.871 177.588C282.428 176.03 282.868 174.442 283.19 172.835C283.058 172.835 279.544 172.546 278.156 171.852C276.954 171.253 275.612 170.196 275.426 168.93C275.371 168.632 275.389 168.327 275.479 168.036C275.569 167.744 275.73 167.473 275.949 167.239C276.169 167.005 276.443 166.814 276.754 166.678C277.065 166.543 277.405 166.466 277.753 166.452C279.839 166.412 282.05 169.045 282.663 170.566C282.709 170.667 283.035 171.913 283.174 172.505H283.237C283.509 170.88 283.615 169.238 283.555 167.597C283.555 166.695 283.454 165.833 283.353 164.998C282.694 164.998 279.669 164.998 278.342 164.5C277.016 164.002 275.604 163.093 275.24 161.854C275.144 161.564 275.121 161.259 275.171 160.961C275.221 160.662 275.344 160.376 275.531 160.121C275.718 159.867 275.965 159.65 276.255 159.484C276.546 159.319 276.874 159.208 277.217 159.161C279.281 158.919 281.817 161.322 282.647 162.776C282.694 162.857 283.035 163.706 283.275 164.325C283.221 163.948 283.174 163.557 283.12 163.194C282.911 161.847 282.616 160.615 282.345 159.525C282.189 158.912 282.034 158.353 281.879 157.835C281.228 157.552 278.614 156.36 277.722 155.404C276.83 154.448 276.031 153.061 276.388 151.822C276.465 151.534 276.611 151.262 276.816 151.025C277.021 150.788 277.281 150.59 277.578 150.445C277.876 150.299 278.205 150.209 278.544 150.18C278.884 150.15 279.227 150.182 279.552 150.274Z" fill="white"/>
<path d="M317.202 178.133C315.566 178.079 312.316 176.632 312.316 176.632C312.316 176.632 314.069 175.057 314.193 174.969C315.643 173.966 319.134 172.761 320.871 173.764C321.153 173.937 321.39 174.159 321.567 174.417C321.744 174.674 321.856 174.961 321.897 175.259C321.938 175.556 321.907 175.858 321.805 176.145C321.703 176.431 321.533 176.696 321.306 176.921C320.367 177.911 318.583 178.187 317.202 178.133Z" fill="white"/>
</g>
<path d="M298.199 213.507C298.199 213.507 288.325 192.845 282.794 193.747C277.264 194.649 292.273 226.683 292.273 226.683C292.273 226.683 274.898 198.238 263.046 198.238C251.194 198.238 267.39 229.679 282.399 240.162C282.399 240.162 258.703 217.998 244.881 222.792C231.058 227.585 272.525 250.045 272.525 250.045C272.525 250.045 248.433 243.454 251.202 248.544C253.971 253.634 261.464 254.536 261.464 254.536L234.215 255.734H329L307.677 253.937C307.677 253.937 329.791 244.356 323.865 240.472C317.939 236.587 304.908 244.969 304.908 244.969C304.908 244.969 327.402 223.424 323.074 215.345C318.746 207.266 299.378 230.022 299.378 230.022C299.378 230.022 315.178 200.971 312.021 195.881C308.864 190.791 298.199 213.507 298.199 213.507Z" fill="#263238"/>
<path opacity="0.4" d="M298.199 213.507C298.199 213.507 288.325 192.845 282.794 193.747C277.264 194.649 292.273 226.683 292.273 226.683C292.273 226.683 274.898 198.238 263.046 198.238C251.194 198.238 267.39 229.679 282.399 240.162C282.399 240.162 258.703 217.998 244.881 222.792C231.058 227.585 272.525 250.045 272.525 250.045C272.525 250.045 248.433 243.454 251.202 248.544C253.971 253.634 261.464 254.536 261.464 254.536L234.215 255.734H329L307.677 253.937C307.677 253.937 329.791 244.356 323.865 240.472C317.939 236.587 304.908 244.969 304.908 244.969C304.908 244.969 327.402 223.424 323.074 215.345C318.746 207.266 299.378 230.022 299.378 230.022C299.378 230.022 315.178 200.971 312.021 195.881C308.864 190.791 298.199 213.507 298.199 213.507Z" fill="white"/>
<path d="M301.356 214.598C292.668 236.883 292.668 252.651 292.668 252.651C292.668 252.651 302.938 252.994 313.611 246.133" stroke="#787878" stroke-width="1.15613" stroke-linecap="round" stroke-linejoin="round"/>
<path d="M297.012 226.595C295.22 219.939 292.842 213.412 289.899 207.071" stroke="#787878" stroke-width="1.15613" stroke-linecap="round" stroke-linejoin="round"/>
<path d="M271.338 213.568L293.46 242.02C293.46 242.02 308.461 231.053 313.627 224.879" stroke="#787878" stroke-width="1.15613" stroke-linecap="round" stroke-linejoin="round"/>
<path d="M293.064 248.88C293.064 248.88 269.794 239.28 260.285 233.792" stroke="#787878" stroke-width="1.15613" stroke-linecap="round" stroke-linejoin="round"/>
<path d="M271.524 192.757C271.524 192.757 271.005 208.478 273.254 215.648C275.503 222.819 280.32 238.701 281.181 241.993C282.042 245.285 280.84 250.523 280.84 250.523C280.84 250.523 272.385 253.822 271.354 254.119C270.322 254.415 271.524 255.317 273.425 255.613C275.325 255.91 288.938 256.516 289.636 255.014C290.334 253.513 290.148 248.282 290.838 245.588C291.528 242.895 296.19 233.47 293.941 226.737C291.691 220.004 290.838 214.012 291.52 211.319C292.203 208.626 294.452 201.739 295.143 200.991C295.833 200.244 299.455 198.15 300.836 196.05C301.719 194.561 302.247 192.933 302.387 191.263C302.387 191.263 282.22 194.703 271.524 192.757Z" fill="white" stroke="#263238" stroke-width="1.15613" stroke-linecap="round" stroke-linejoin="round"/>
<path d="M300.844 196.05C301.727 194.561 302.254 192.933 302.395 191.263C302.395 191.263 282.228 194.703 271.524 192.757C271.524 192.757 271.005 208.478 273.254 215.648C275.503 222.819 280.32 238.701 281.181 241.993C281.358 242.727 281.457 243.473 281.476 244.222C284.535 245.214 287.852 245.447 291.055 244.895C292.172 241.529 296.027 232.978 293.948 226.717C291.707 219.984 290.846 213.992 291.528 211.299C292.211 208.606 294.46 201.718 295.151 200.971C295.841 200.224 299.463 198.15 300.844 196.05Z" fill="#263238" stroke="#263238" stroke-width="1.15613" stroke-linecap="round" stroke-linejoin="round"/>
<path d="M283.601 252.637L280.84 250.537C280.84 250.537 272.385 253.836 271.354 254.132C270.322 254.428 271.524 255.33 273.425 255.627C275.325 255.923 288.938 256.529 289.636 255.027C289.98 253.872 290.165 252.686 290.186 251.493L283.601 252.637Z" fill="#263238" stroke="#263238" stroke-width="1.15613" stroke-linecap="round" stroke-linejoin="round"/>
<path d="M275.317 134.526C276.641 136.408 277.131 138.643 276.698 140.815C276.007 144.558 271.004 150.543 267.212 153.539C263.419 156.535 263.589 161.619 265.66 164.164C267.731 166.708 268.763 166.708 268.763 166.708L262.216 193.06C262.216 193.06 273.595 195.006 281.871 195.006C290.148 195.006 292.568 194.851 296.702 193.955C300.836 193.06 308.057 191.559 308.057 191.559C308.057 191.559 301.852 170.304 301.852 164.628C301.852 158.952 302.543 153.102 302.543 153.102C302.543 153.102 303.753 147.413 298.059 139.031C292.366 130.648 283.237 129.888 279.63 130.635C278.569 130.878 277.606 131.37 276.846 132.056C276.085 132.743 275.556 133.597 275.317 134.526Z" fill="#263238" stroke="#263238" stroke-width="1.15613" stroke-linecap="round" stroke-linejoin="round"/>
<path d="M268.763 166.708C268.763 166.708 273.254 168.506 277.737 166.863" stroke="#263238" stroke-width="1.15613" stroke-linecap="round" stroke-linejoin="round"/>
<path d="M273.595 168.056V174.499" stroke="#263238" stroke-width="1.15613" stroke-linecap="round" stroke-linejoin="round"/>
<path d="M271.695 167.61L270.322 183.775" stroke="#263238" stroke-width="1.15613" stroke-linecap="round" stroke-linejoin="round"/>
<path d="M298.083 139.017C292.397 130.635 283.252 129.888 279.63 130.635C278.569 130.879 277.606 131.37 276.846 132.057C276.085 132.743 275.556 133.597 275.317 134.527C276.641 136.408 277.131 138.643 276.698 140.815C276.116 143.966 272.478 148.706 269.073 151.917C270.314 152.153 272.509 151.917 275.496 149.049C280.32 144.403 284.113 141.71 288.596 140.512C291.854 139.643 296.019 141.064 298.68 139.899C298.463 139.603 298.284 139.354 298.083 139.017Z" fill="white" stroke="#263238" stroke-width="1.15613" stroke-linecap="round" stroke-linejoin="round"/>
<path d="M268.941 115.79C268.941 115.79 267.731 118.779 267.902 120.576C268.073 122.374 268.763 123.269 267.731 124.919C266.7 126.568 264.799 127.612 265.319 128.359C265.839 129.107 268.422 129.706 268.422 129.706C268.422 129.706 269.453 135.24 270.663 135.839C271.873 136.439 279.459 133.443 281.01 132.998C282.562 132.554 284.633 128.656 283.423 122.664C282.213 116.671 273.929 113.271 268.941 115.79Z" fill="white" stroke="#263238" stroke-width="1.15613" stroke-linecap="round" stroke-linejoin="round"/>
<path d="M271.354 124.542C271.354 125.08 271.082 125.518 270.749 125.518C270.415 125.518 270.144 125.08 270.144 124.542C270.144 124.003 270.415 123.572 270.749 123.572C271.082 123.572 271.354 124.037 271.354 124.542Z" fill="#263238"/>
<path d="M269.632 122.105C269.632 122.105 271.695 120.906 272.734 122.852" stroke="#263238" stroke-width="1.15613" stroke-linecap="round" stroke-linejoin="round"/>
<path d="M266.079 114.046C265.853 114.283 265.736 114.585 265.75 114.893C265.764 115.201 265.909 115.494 266.157 115.715C267.51 116.953 269.081 117.996 270.811 118.806C273.913 120.152 278.055 122.401 278.055 124.946C278.055 127.491 276.333 134.823 278.055 137.368C279.777 139.912 284.439 142.309 287.2 142.612C289.961 142.915 293.925 145.453 294.957 149.648C295.988 153.842 297.571 159.228 303.403 158.205C309.236 157.182 310.47 149.971 308.057 146.679C305.645 143.387 303.403 143.238 305.296 139.643C307.189 136.048 305.986 131.261 301.844 128.265C297.702 125.269 294.429 126.918 294.088 123.323C293.747 119.728 292.304 114.726 289.256 111.204C285.788 107.124 273.448 106.148 266.079 114.046Z" fill="#263238" stroke="#263238" stroke-width="1.15613" stroke-linecap="round" stroke-linejoin="round"/>
<path d="M282.042 186.919C282.042 186.919 281.181 195.302 280.491 196.197C279.8 197.092 276.868 199.341 276.356 200.391C275.845 201.442 277.031 205.333 277.031 205.333C277.031 205.333 278.063 206.229 278.924 205.932C279.785 205.636 279.444 205.03 279.444 205.03C279.444 205.03 278.924 204.135 279.444 203.832C279.963 203.529 282.027 203.085 282.717 201.59C283.178 200.522 283.526 199.42 283.756 198.298L288.069 188.266L282.042 186.919Z" fill="white" stroke="#263238" stroke-width="1.15613" stroke-linecap="round" stroke-linejoin="round"/>
<path d="M278.939 152.819C278.939 152.819 278.598 160.447 279.11 163.592C279.622 166.736 279.979 176.02 278.939 179.609C277.9 183.197 278.598 187.997 278.598 187.997C278.598 187.997 284.113 190.239 286.874 189.943C289.636 189.647 291.528 189.344 291.528 189.344C291.528 189.344 294.631 177.663 295.151 172.425C295.67 167.187 294.46 150.719 294.46 150.719" fill="#263238"/>
<path d="M278.939 152.819C278.939 152.819 278.598 160.447 279.11 163.592C279.622 166.736 279.979 176.02 278.939 179.609C277.9 183.197 278.598 187.997 278.598 187.997C278.598 187.997 284.113 190.239 286.874 189.943C289.636 189.647 291.528 189.344 291.528 189.344C291.528 189.344 294.631 177.663 295.151 172.425C295.67 167.187 294.46 150.719 294.46 150.719" stroke="#263238" stroke-width="1.15613" stroke-linecap="round" stroke-linejoin="round"/>
<path d="M209.325 146.814H188.956V166.292H209.325V146.814Z" fill="#263238" stroke="#263238" stroke-width="1.15613" stroke-linecap="round" stroke-linejoin="round"/>
<path d="M200.992 163.412C204.983 162.598 207.457 159.129 206.519 155.665C205.581 152.201 201.585 150.053 197.594 150.868C193.604 151.682 191.129 155.15 192.067 158.614C193.005 162.078 197.001 164.226 200.992 163.412Z" fill="white"/>
<path d="M194.51 153.87C196.219 154.59 198.053 155.059 199.939 155.257C203.042 155.573 204.454 155.196 204.454 155.196C204.083 156.72 203.893 158.272 203.887 159.829C203.949 161.074 199.233 161.33 196.736 160.502C195.629 160.144 194.585 159.655 193.633 159.048C193.633 159.048 193.781 155.385 194.51 153.87Z" fill="white" stroke="#263238" stroke-width="1.15613" stroke-linecap="round" stroke-linejoin="round"/>
<path d="M194.292 155.256C194.292 155.256 197.93 157.66 204.05 156.711" stroke="#263238" stroke-width="1.15613" stroke-linecap="round" stroke-linejoin="round"/>
<path d="M193.928 156.65C193.928 156.65 196.868 159.444 203.74 158.145" stroke="#263238" stroke-width="1.15613" stroke-linecap="round" stroke-linejoin="round"/>
<path d="M193.711 158.165C193.711 158.165 199.536 161.262 203.833 159.511" stroke="#263238" stroke-width="1.15613" stroke-linecap="round" stroke-linejoin="round"/>
<path d="M204.485 155.196C204.485 155.196 206.812 152.981 207.471 154.374C208.13 155.768 207.184 159.087 204.05 160.064" stroke="#263238" stroke-width="1.15613" stroke-linecap="round" stroke-linejoin="round"/>
<path d="M194.51 153.87C194.51 153.87 194.587 152.032 193.346 151.715C192.105 151.399 192.47 156.334 193.633 158.737" stroke="#263238" stroke-width="1.15613" stroke-linecap="round" stroke-linejoin="round"/>
<path d="M155.013 128.319C153.802 129.996 152.731 131.747 151.81 133.557C151.034 135.355 150.298 138.304 150.298 138.304L143.317 135.193L147.839 124.879L155.013 128.319Z" fill="white" stroke="#263238" stroke-width="1.15613" stroke-linecap="round" stroke-linejoin="round"/>
<path d="M161.614 112.605C161.614 112.605 164.445 113.426 165.578 110.477C166.71 107.528 162.367 104.748 156.332 103.273C150.298 101.799 140.517 106.875 138.608 110.807C136.7 114.739 138.422 118.987 135.971 121.936C133.52 124.885 124.654 125.538 123.708 133.382C122.762 141.225 128.424 144.154 127.106 146.961C125.787 149.769 120.319 151.385 121.257 157.606C122.196 163.827 132.76 167.099 137.476 164.641C142.192 162.184 143.891 156.946 142.378 150.563C140.866 144.181 140.121 137.637 144.077 135.179C148.033 132.722 152.562 127.975 152.942 125.686C153.323 123.397 152.376 122.906 154.641 122.246C156.906 121.586 161.048 117.19 161.614 112.605Z" fill="#263238" stroke="#263238" stroke-width="1.15613" stroke-linecap="round" stroke-linejoin="round"/>
<path d="M147.761 179.965C147.761 179.965 150.453 194.777 151.352 204.68C152.252 214.584 151.027 221.808 151.352 227.834C151.713 235.078 152.612 242.295 154.044 249.439C154.044 249.439 162.576 252.55 163.678 253.135C164.779 253.721 166.369 253.721 166.369 254.482C166.369 255.243 159.908 256.636 156.03 255.276C154.114 254.603 149.53 255.472 147.497 254.691C146.202 254.192 147.497 251.19 147.497 249.244C147.497 247.298 143.728 236.977 142.843 232.116C141.959 227.255 141.052 225.7 141.727 222.192C142.172 219.677 142.473 217.145 142.626 214.604C142.626 214.604 136.049 192.945 134.87 189.862C134.114 187.893 133.49 185.888 133 183.856" fill="#263238"/>
<path d="M147.761 179.965C147.761 179.965 150.453 194.777 151.352 204.68C152.252 214.584 151.027 221.808 151.352 227.834C151.713 235.078 152.612 242.295 154.044 249.439C154.044 249.439 162.576 252.55 163.678 253.135C164.779 253.721 166.369 253.721 166.369 254.482C166.369 255.243 159.908 256.636 156.03 255.276C154.114 254.603 149.53 255.472 147.497 254.691C146.202 254.192 147.497 251.19 147.497 249.244C147.497 247.298 143.728 236.977 142.843 232.116C141.959 227.255 141.052 225.7 141.727 222.192C142.172 219.677 142.473 217.145 142.626 214.604C142.626 214.604 136.049 192.945 134.87 189.862C134.114 187.893 133.49 185.888 133 183.856" stroke="#263238" stroke-width="1.15613" stroke-linecap="round" stroke-linejoin="round"/>
<path d="M163.678 253.136C162.561 252.55 154.044 249.44 154.044 249.44C154.044 249.44 153.206 245.649 152.431 239.624C150.229 240.684 147.678 241.066 145.194 240.708C146.38 244.552 147.521 248.167 147.521 249.244C147.521 251.19 146.225 254.193 147.521 254.691C149.545 255.472 154.129 254.59 156.053 255.277C159.861 256.623 166.361 255.277 166.361 254.496C166.361 253.715 164.802 253.722 163.678 253.136Z" fill="white" stroke="#263238" stroke-width="1.15613" stroke-linecap="round" stroke-linejoin="round"/>
<path d="M147.373 250.773C147.071 252.483 146.551 254.314 147.536 254.691C149.561 255.472 154.145 254.59 156.068 255.277C159.877 256.623 166.377 255.277 166.377 254.496C166.377 253.715 164.825 253.722 163.685 253.149C162.545 252.577 154.052 249.453 154.052 249.453L153.144 251.789L147.373 250.773Z" fill="white" stroke="#263238" stroke-width="1.15613" stroke-linecap="round" stroke-linejoin="round"/>
<path d="M142.572 132.244C143.831 132.045 145.124 132.088 146.361 132.371C147.599 132.653 148.749 133.169 149.731 133.88C153.315 136.338 154.075 140.431 157.092 144.525C160.11 148.618 160.482 152.213 159.349 154.509C158.217 156.805 154.641 164.164 152.749 168.749C150.856 173.334 150.111 180.699 148.979 185.58C147.846 190.462 138.422 190.818 134.839 189.835C131.255 188.852 127.517 184.759 127.137 179.359C126.756 173.96 129.968 171.523 130.728 170.21C131.488 168.897 139.361 158.407 137.476 153.169C135.591 147.931 136.344 141.724 137.67 138.607C138.996 135.489 141.44 132.736 142.572 132.244Z" fill="#263238" stroke="#263238" stroke-width="1.15613" stroke-linecap="round" stroke-linejoin="round"/>
<path d="M149.731 133.88C148.749 133.169 147.599 132.653 146.361 132.371C145.124 132.088 143.831 132.045 142.572 132.244C141.44 132.736 138.989 135.523 137.67 138.634C136.351 141.744 135.591 147.958 137.476 153.196C139.361 158.434 131.48 168.931 130.728 170.237C130.728 170.237 136.281 175.508 150.895 175.529C151.308 173.229 151.933 170.962 152.764 168.749C154.657 164.164 158.194 156.798 159.365 154.509C160.536 152.22 160.141 148.611 157.108 144.525C154.075 140.438 153.315 136.338 149.731 133.88Z" fill="#263238" stroke="#263238" stroke-width="1.15613" stroke-linecap="round" stroke-linejoin="round"/>
<path d="M186.319 160.4L158.031 162.858C158.031 162.858 155.766 162.366 155.2 161.383C154.734 160.569 145.799 147.433 142.789 143.017C141.792 141.607 141.371 139.947 141.595 138.304C141.851 136.668 142.844 135.032 145.768 135.032C150.515 135.032 154.09 141.233 155.262 143.555C155.673 144.37 156.123 145.164 156.596 145.952L161.25 153.688L187.467 156.469C187.467 156.469 191.803 154.179 192.555 153.849C193.307 153.52 195.758 153.365 197.085 153.176C198.411 152.988 199.342 152.032 199.342 153.015C199.342 153.998 198.403 154.159 197.837 154.321L195.006 155.142L201.987 156.623C202.187 156.659 202.363 156.762 202.476 156.909C202.589 157.057 202.631 157.237 202.592 157.411C202.58 157.499 202.547 157.584 202.497 157.661C202.446 157.739 202.379 157.806 202.298 157.861C202.217 157.915 202.125 157.955 202.026 157.979C201.928 158.002 201.825 158.008 201.723 157.997L196.705 157.579L201.444 159.566C201.614 159.645 201.745 159.776 201.809 159.934C201.874 160.093 201.868 160.266 201.793 160.421C201.718 160.552 201.596 160.659 201.445 160.724C201.293 160.79 201.122 160.811 200.955 160.784L195.952 159.842L199.683 161.7L200.521 162.373C200.242 163.423 199.016 162.824 198.349 162.555L195.301 161.323L197.915 163.827C197.078 163.815 196.266 163.58 195.588 163.154L192.733 161.383L187.986 160.171L186.319 160.4Z" fill="white" stroke="#263238" stroke-width="1.15613" stroke-linecap="round" stroke-linejoin="round"/>
<path d="M157.061 146.72L156.604 145.952C156.13 145.164 155.681 144.37 155.269 143.555C154.098 141.226 150.522 135.032 145.775 135.032C142.851 135.032 141.858 136.668 141.602 138.304C141.379 139.947 141.8 141.607 142.797 143.017L148.087 150.8L157.061 146.72Z" fill="#263238" stroke="#263238" stroke-width="1.15613" stroke-linecap="round" stroke-linejoin="round"/>
<path d="M130.728 182.887C130.728 182.887 130.728 191.835 131.62 199.618C132.512 207.401 132.745 216.16 131.845 217.527C130.945 218.893 126.469 225.7 125.57 229.006C124.67 232.312 124.018 246.127 122.653 249.244C121.288 252.361 120.862 254.496 121.761 254.886C122.661 255.277 133.481 255.708 135.808 255.95C138.135 256.192 140.966 255.566 141.028 254.765C141.091 253.964 136.956 252.617 133.59 250.557C130.224 248.497 130.487 245.932 130.487 243.986C130.487 242.04 135.645 229.975 139.904 221.223C144.162 212.471 147.971 190.67 147.971 187.169V181.332" fill="#263238"/>
<path d="M130.728 182.887C130.728 182.887 130.728 191.835 131.62 199.618C132.512 207.401 132.745 216.16 131.845 217.527C130.945 218.893 126.469 225.7 125.57 229.006C124.67 232.312 124.018 246.127 122.653 249.244C121.288 252.361 120.862 254.496 121.761 254.886C122.661 255.277 133.481 255.708 135.808 255.95C138.135 256.192 140.966 255.566 141.028 254.765C141.091 253.964 136.956 252.617 133.59 250.557C130.224 248.497 130.487 245.932 130.487 243.986C130.487 242.04 135.645 229.975 139.904 221.223C144.162 212.471 147.971 190.67 147.971 187.169V181.332" stroke="#263238" stroke-width="1.15613" stroke-linecap="round" stroke-linejoin="round"/>
<path d="M133.59 250.557C130.216 248.497 130.487 245.932 130.487 243.986C130.543 243.427 130.665 242.874 130.852 242.337C128.516 242.345 126.203 241.944 124.049 241.159C123.654 244.693 123.204 247.925 122.638 249.238C121.296 252.348 120.846 254.489 121.746 254.88C122.646 255.27 133.466 255.701 135.793 255.944C138.12 256.186 140.951 255.56 141.013 254.759C141.075 253.957 136.956 252.618 133.59 250.557Z" fill="white" stroke="#263238" stroke-width="1.15613" stroke-linecap="round" stroke-linejoin="round"/>
<path d="M141.028 254.765C141.098 253.963 136.956 252.617 133.59 250.557C132.394 249.881 131.476 248.893 130.968 247.736C130.554 247.728 130.15 247.847 129.828 248.072C128.928 248.853 128.711 251.19 128.711 251.19L122.382 249.91C121.257 252.657 120.931 254.522 121.761 254.886C122.591 255.249 133.481 255.707 135.808 255.95C138.135 256.192 140.966 255.566 141.028 254.765Z" fill="white" stroke="#263238" stroke-width="1.15613" stroke-linecap="round" stroke-linejoin="round"/>
<path d="M160.482 109.825C160.482 109.825 162.933 113.097 162.933 114.894C162.933 116.692 162.367 118.173 162.367 119.318C162.367 120.462 163.499 121.768 163.499 122.751C163.499 123.734 161.8 127.989 160.676 129.134C159.551 130.279 158.411 131.43 156.332 131.261C154.253 131.093 148.576 126.353 148.576 126.353C148.576 126.353 145.744 128.158 144.798 125.209C143.852 122.26 143.86 120.792 145.364 120.462C145.805 120.372 146.265 120.387 146.697 120.505C147.129 120.624 147.515 120.842 147.815 121.136C147.815 121.136 155.169 120.812 157.627 117.21C159.143 114.941 160.114 112.429 160.482 109.825Z" fill="white" stroke="#263238" stroke-width="1.15613" stroke-linecap="round" stroke-linejoin="round"/>
<path d="M148.607 126.353C148.607 126.353 154.261 131.1 156.363 131.261C158.465 131.423 159.574 130.285 160.707 129.134C161.839 127.983 163.53 123.748 163.53 122.751C163.398 122.008 163.137 121.286 162.755 120.61C156.627 121.957 147.885 121.115 147.885 121.115L154.3 122.92L153.167 127.175L148.607 126.353Z" fill="#263238" stroke="#263238" stroke-width="1.15613" stroke-linecap="round" stroke-linejoin="round"/>
<path d="M160.746 119.405C160.746 120.038 160.497 120.55 160.203 120.55C159.908 120.55 159.66 120.038 159.66 119.405C159.66 118.772 159.9 118.261 160.203 118.261C160.505 118.261 160.746 118.779 160.746 119.405Z" fill="#263238"/>
<path d="M158.729 117.325C158.729 117.325 159.505 115.17 161.366 116.786" stroke="#263238" stroke-width="1.15613" stroke-linecap="round" stroke-linejoin="round"/>
<path d="M232.462 247.992C232.462 247.992 224.396 251.964 222.185 252.886C219.974 253.809 218.501 254.529 222.526 255.492C226.552 256.455 237.838 255.781 239.722 255.694C241.607 255.606 242.391 256.064 242.282 254.267C242.174 252.469 242.282 248.039 242.282 248.039C242.282 248.039 233.595 248.423 232.462 247.992Z" fill="white" stroke="#263238" stroke-width="1.15613" stroke-linecap="round" stroke-linejoin="round"/>
<path d="M233.083 141.333C233.083 141.333 227.234 150.335 227.048 152.779C226.862 155.223 226.862 156.542 226.862 156.542C226.862 156.542 222.332 165.874 220.828 170.782C219.323 175.69 221.96 182.733 223.092 185.022C224.225 187.311 225.544 189.445 225.544 189.445C225.544 189.445 227.615 207.623 227.801 213.009C227.987 218.395 230.066 225.801 230.818 230.682C231.57 235.564 233.463 243.946 233.463 243.946C233.463 243.946 231.384 245.09 231.384 245.905C231.384 246.72 231.198 248.362 231.198 248.362C232.495 248.472 233.765 248.748 234.968 249.184C237.613 249.998 242.724 249.345 242.724 249.345C243.337 246.26 243.715 243.143 243.857 240.014C243.857 236.412 245.361 225.444 244.795 221.681C244.229 217.917 243.671 211.696 243.857 210.909C244.043 210.121 245.928 193.404 245.928 193.404C248.721 189.89 250.231 185.729 250.264 181.46C250.264 174.418 249.891 172.943 249.891 172.943C249.891 172.943 251.962 151.83 251.024 144.464C250.085 137.099 245.532 135.314 245.532 135.314L233.083 141.333Z" fill="#263238" stroke="#263238" stroke-width="1.15613" stroke-linecap="round" stroke-linejoin="round"/>
<path d="M251 144.444C250.054 137.078 245.532 135.281 245.532 135.281L233.083 141.34C233.083 141.34 227.234 150.342 227.048 152.786C226.862 155.23 226.862 156.549 226.862 156.549C226.862 156.549 222.332 165.881 220.828 170.789C220.444 172.144 220.298 173.543 220.393 174.936C222.565 176.404 227.374 178.653 236.1 178.302C243.554 178.013 247.813 176.283 250.062 174.902C250.035 174.226 249.962 173.552 249.845 172.883C249.845 172.883 251.939 151.809 251 144.444Z" fill="white" stroke="#263238" stroke-width="1.15613" stroke-linecap="round" stroke-linejoin="round"/>
<path d="M230.632 106.31C230.632 106.31 223.465 109.091 222.712 112.369C221.96 115.648 223.279 120.556 223.279 121.371C223.279 122.186 220.641 124.481 221.58 125.135C221.837 125.326 222.138 125.468 222.463 125.553C222.787 125.637 223.129 125.662 223.465 125.626C224.275 127.531 225.22 129.391 226.296 131.194C226.593 131.694 227.059 132.103 227.632 132.366C228.204 132.63 228.856 132.735 229.499 132.668C230.066 132.668 232.144 132.338 232.144 132.338L234.595 138.559L243.453 132.5C243.453 132.5 241.949 128.905 242.678 126.939C243.407 124.973 247.014 121.701 247.58 116.954C248.146 112.208 242.864 106.317 238.342 105.657C235.752 105.246 233.081 105.473 230.632 106.31Z" fill="white" stroke="#263238" stroke-width="1.15613" stroke-linecap="round" stroke-linejoin="round"/>
<path d="M238.365 105.65C235.758 105.238 233.07 105.471 230.609 106.323C230.609 106.323 229.973 106.572 229.057 106.996C230.609 106.431 233.277 105.818 233.804 108.121C234.58 111.393 229.662 113.507 230.415 114.995C231.167 116.483 233.998 116.961 234.751 118.758C235.503 120.556 236.449 121.377 237.202 120.563C237.954 119.748 237.582 118.105 238.9 117.775C240.219 117.445 242.127 119.896 242.127 121.849C242.127 123.801 239.676 124.636 239.676 124.636C240.028 125.105 240.5 125.497 241.056 125.781C241.612 126.065 242.236 126.233 242.879 126.272C242.926 126.269 242.973 126.269 243.019 126.272C244.159 124.252 247.091 121.195 247.595 116.94C248.169 112.201 242.903 106.31 238.365 105.65Z" fill="#B2B2B2" stroke="#263238" stroke-width="1.15613" stroke-linecap="round" stroke-linejoin="round"/>
<path d="M223.465 125.619C223.465 125.619 229.499 124.152 231.221 124.805C232.943 125.458 230.446 127.262 228.39 127.585C226.335 127.908 223.465 128.238 223.465 125.619Z" fill="#B2B2B2" stroke="#263238" stroke-width="1.15613" stroke-linecap="round" stroke-linejoin="round"/>
<path d="M226.676 120.058C226.676 120.778 226.42 121.364 226.11 121.364C225.8 121.364 225.544 120.778 225.544 120.058C225.544 119.338 225.792 118.711 226.11 118.711C226.428 118.711 226.676 119.331 226.676 120.058Z" fill="#263238"/>
<path d="M224.597 117.439C225.026 117.121 225.58 116.959 226.144 116.989C226.707 117.02 227.234 117.239 227.615 117.601" stroke="#263238" stroke-width="1.15613" stroke-linecap="round" stroke-linejoin="round"/>
<path d="M232.144 132.332C232.144 132.332 236.853 131.349 238.737 127.915" stroke="#263238" stroke-width="1.15613" stroke-linecap="round" stroke-linejoin="round"/>
<path d="M231.012 139.354L232.33 142.949L247.068 135.092L245.369 130.514C245.369 130.514 232.331 137.246 231.012 139.354Z" fill="white" stroke="#263238" stroke-width="1.15613" stroke-linecap="round" stroke-linejoin="round"/>
<path d="M236.853 165.235C236.853 165.235 221.394 166.049 217.996 166.049C215.51 165.972 213.042 165.642 210.643 165.066C210.643 165.066 208.758 162.777 208.006 162.124C207.254 161.471 205.555 161.303 203.856 161.303C202.158 161.303 200.653 160.629 200.653 161.633C200.653 162.636 201.429 162.616 202.158 162.939L204.423 163.922C204.423 163.922 198.76 164.09 198.008 164.09C197.256 164.09 195.557 163.107 195.743 164.413C195.929 165.719 197.256 165.888 198.574 165.888C199.893 165.888 204.229 167.685 205.555 167.685C206.881 167.685 210.263 167.854 210.263 167.854C210.263 167.854 218.02 169.16 223.092 170.964C228.165 172.768 240.064 173.415 241.382 172.6C242.701 171.785 242.903 165.235 242.903 165.235H236.853Z" fill="white" stroke="#263238" stroke-width="1.15613" stroke-linecap="round" stroke-linejoin="round"/>
<path d="M234.595 149.85L233.269 164.938C234.942 166.054 237.009 166.633 239.117 166.574C241.659 166.535 244.189 166.262 246.665 165.759C246.665 165.759 247.983 150.537 247.223 147.426C246.463 144.316 245.718 143.824 244.02 143.824" fill="white"/>
<path d="M234.595 149.85L233.269 164.938C234.942 166.054 237.009 166.633 239.117 166.574C241.659 166.535 244.189 166.262 246.665 165.759C246.665 165.759 247.983 150.537 247.223 147.426C246.463 144.316 245.718 143.824 244.02 143.824" stroke="#263238" stroke-width="1.15613" stroke-linecap="round" stroke-linejoin="round"/>
<path d="M64.0838 247.615C64.0838 247.615 54.9776 251.728 52.7282 252.691C50.4788 253.654 48.9818 254.421 53.085 255.452C57.1882 256.482 68.6912 255.781 70.607 255.694C72.5229 255.606 73.3296 256.091 73.2132 254.186C73.0969 252.28 72.8254 248.49 72.8254 248.49C72.8254 248.49 65.2783 248.086 64.0838 247.615Z" fill="white" stroke="#263238" stroke-width="1.15613" stroke-linecap="round" stroke-linejoin="round"/>
<path d="M104.348 246.746C103.725 248.232 102.908 249.65 101.912 250.974C100.625 252.469 96.8939 254.341 96.8939 255.081V255.828H111.732C111.732 255.828 113.376 254.704 113.376 253.809C113.376 252.913 112.515 247.466 112.515 247.466L104.348 246.746Z" fill="white" stroke="#263238" stroke-width="1.15613" stroke-linecap="round" stroke-linejoin="round"/>
<path d="M73.6863 178.464C73.6863 178.464 70.6768 186.678 67.9543 195.006C65.2317 203.334 61.9352 213.184 61.3612 217.271C60.7872 221.357 64.6577 244.504 64.6577 244.504C64.343 244.676 64.0852 244.916 63.9098 245.201C63.7343 245.485 63.6473 245.804 63.6572 246.127C63.7099 246.639 63.8538 247.141 64.0838 247.615C64.0838 247.615 68.9549 248.739 70.2424 248.739C71.1106 248.728 71.9755 248.644 72.8254 248.49C72.8254 248.49 73.539 224.252 73.539 221.378C73.5731 219.962 73.4771 218.546 73.252 217.143L85.7477 191.673L88.0126 192.144C88.0126 192.144 90.1612 215.036 90.7352 217.769C91.3092 220.502 103.487 244.026 103.487 244.026C103.487 244.026 103.06 245.891 103.487 246.76C103.716 247.149 103.863 247.571 103.921 248.005C105.092 248.252 106.292 248.376 107.497 248.376C109.205 248.27 110.891 247.978 112.515 247.507C112.515 247.507 112.228 245.763 111.802 244.026C111.326 242.43 110.751 240.856 110.08 239.313L103.2 215.076C103.2 215.076 105.527 184.611 105.348 181.5C105.212 179.46 104.731 177.448 103.921 175.528C103.921 175.528 86.2907 182.072 73.6863 178.464Z" fill="#263238" stroke="#263238" stroke-width="1.15613" stroke-linecap="round" stroke-linejoin="round"/>
<path d="M71.8403 137.375C71.8403 137.375 64.394 137.051 60.6632 139.152C56.9323 141.253 56.5677 148.531 56.0092 149.5C55.4508 150.47 51.9138 163.08 51.5415 164.864C51.1692 166.648 54.8923 170.196 56.3816 169.388C57.8708 168.58 64.0217 154.839 64.0217 154.839C64.0217 154.839 72.9572 169.072 73.7019 170.526C74.4465 171.98 73.3296 179.743 73.3296 179.743C73.3296 179.743 75.385 183.109 85.2591 182.813C95.1331 182.517 104.65 177.966 104.65 177.966C104.65 177.966 102.975 169.072 102.603 167.294C102.23 165.517 101.113 149.668 99.0657 143.521C97.018 137.375 92.9148 135.112 89.7579 135.112C86.0245 135.087 82.2926 135.249 78.5807 135.597C76.2991 136.085 74.0491 136.678 71.8403 137.375Z" fill="white" stroke="#263238" stroke-width="1.15613" stroke-linecap="round" stroke-linejoin="round"/>
<path d="M67.7449 138.344C67.7449 138.344 74.8266 147.238 76.6881 147.884C78.5497 148.53 81.342 138.344 81.342 138.344L79.8528 130.743C79.8528 130.743 71.8403 131.874 68.4895 133.166C65.1387 134.459 67.7449 138.344 67.7449 138.344Z" fill="white" stroke="#263238" stroke-width="1.15613" stroke-linecap="round" stroke-linejoin="round"/>
<path d="M64.9525 137.374C64.9525 137.374 69.7926 142.707 72.5849 143.03C75.3773 143.353 77.2388 143.03 78.5497 140.283C79.2866 138.721 79.4805 132.682 79.4805 132.682L63.8356 136.048L64.9525 137.374Z" fill="white" stroke="#263238" stroke-width="1.15613" stroke-linecap="round" stroke-linejoin="round"/>
<path d="M64.5802 116.355C62.4914 117.632 60.8208 119.358 59.7324 121.364C58.2431 124.434 61.7801 131.389 61.7801 131.389C61.7801 131.389 60.6632 137.051 62.5557 137.536C64.4483 138.021 70.7544 138.209 74.6714 136.728C78.5885 135.247 80.8146 132.689 81.0008 132.015C81.1869 131.342 80.6284 126.521 80.6284 126.521C80.6284 126.521 80.0157 121.176 77.0604 117.136C75.9125 115.608 67.5587 114.248 64.5802 116.355Z" fill="#263238" stroke="#263238" stroke-width="1.15613" stroke-linecap="round" stroke-linejoin="round"/>
<path d="M67.3725 118.779C67.3725 118.779 65.8833 119.102 63.4943 121.687C61.1053 124.273 61.0665 128.319 61.0665 128.319L60.6089 128.595C61.2139 130.197 61.8111 131.389 61.8111 131.389C61.8111 131.389 60.6942 137.051 62.5868 137.536C64.4794 138.021 70.7854 138.209 74.7024 136.728C78.6195 135.247 80.8456 132.688 81.0318 132.015C81.2179 131.342 80.6595 126.521 80.6595 126.521C75.5712 119.102 67.3725 118.779 67.3725 118.779Z" fill="white" stroke="#263238" stroke-width="1.15613" stroke-linecap="round" stroke-linejoin="round"/>
<path d="M80.9697 132.035C81.1559 131.362 80.5974 126.542 80.5974 126.542C80.5974 126.542 80.5974 126.494 80.5974 126.42C71.6774 133.671 61.7956 131.389 61.7956 131.389C61.7956 131.389 60.6787 137.051 62.5712 137.536C64.4638 138.021 70.7699 138.209 74.6869 136.728C78.604 135.247 80.7913 132.682 80.9697 132.035Z" fill="#263238" stroke="#263238" stroke-width="1.15613" stroke-linecap="round" stroke-linejoin="round"/>
<path d="M54.4191 154.321C53.2169 158.408 51.7509 163.747 51.5182 164.864C51.1381 166.642 54.869 170.196 56.3583 169.388C57.3046 168.877 60.1202 163.154 62.0593 159.04L54.4191 154.321Z" fill="white" stroke="#263238" stroke-width="1.15613" stroke-linecap="round" stroke-linejoin="round"/>
<path d="M51.7276 163.08C51.7276 163.08 50.2306 169.55 50.4168 172.297C50.6029 175.044 61.2216 188.954 61.2216 188.954L62.1524 185.587C62.1524 185.587 58.8016 172.486 58.4293 170.062C58.1986 168.499 58.0743 166.925 58.057 165.349" fill="white"/>
<path d="M51.7276 163.08C51.7276 163.08 50.2306 169.55 50.4168 172.297C50.6029 175.044 61.2216 188.954 61.2216 188.954L62.1524 185.587C62.1524 185.587 58.8016 172.486 58.4293 170.062C58.1986 168.499 58.0743 166.925 58.057 165.349" stroke="#263238" stroke-width="1.15613" stroke-linecap="round" stroke-linejoin="round"/>
<path d="M59.6936 194.205C59.571 194.84 59.6738 195.493 59.9883 196.077C60.508 196.844 63.5563 197.619 63.6261 197.167C63.6959 196.716 63.7037 195.235 63.7037 195.235L59.6936 194.205Z" fill="white" stroke="#263238" stroke-width="1.15613" stroke-linecap="round" stroke-linejoin="round"/>
<path d="M59.4686 192.98C59.3509 193.616 59.4563 194.268 59.7711 194.852C60.2908 195.626 63.3314 196.393 63.4089 195.942C63.4865 195.491 63.4788 194.01 63.4788 194.01L59.4686 192.98Z" fill="white" stroke="#263238" stroke-width="1.15613" stroke-linecap="round" stroke-linejoin="round"/>
<path d="M59.1739 191.303C59.0513 191.938 59.1541 192.591 59.4686 193.174C59.9883 193.949 63.0366 194.723 63.1064 194.272C63.1763 193.821 63.184 192.333 63.184 192.333L59.1739 191.303Z" fill="white" stroke="#263238" stroke-width="1.15613" stroke-linecap="round" stroke-linejoin="round"/>
<path d="M61.7801 184.752C61.7801 184.752 58.9877 190.085 58.9877 190.893C58.9877 191.701 62.866 193.316 62.866 193.316L63.0521 182.968L61.7801 184.752Z" fill="white" stroke="#263238" stroke-width="1.15613" stroke-linecap="round" stroke-linejoin="round"/>
<path d="M100.648 182.308H61.7646V212.605H100.648V182.308Z" fill="#263238" stroke="#263238" stroke-width="1.15613" stroke-linecap="round" stroke-linejoin="round"/>
<path d="M83.4481 209.159C89.4748 207.917 93.2001 202.669 91.7688 197.438C90.3375 192.206 84.2915 188.973 78.2648 190.215C72.238 191.458 68.5127 196.706 69.944 201.937C71.3753 207.168 77.4213 210.402 83.4481 209.159Z" fill="white"/>
<path d="M73.601 194.791C76.197 195.887 78.9868 196.597 81.854 196.891C86.5854 197.369 88.6797 196.797 88.6797 196.797C88.1176 199.097 87.829 201.441 87.8187 203.792C87.9041 205.677 80.7526 206.061 77.0139 204.815C75.3161 204.294 73.7145 203.561 72.2592 202.641C72.2592 202.641 72.5074 197.08 73.601 194.791Z" fill="white" stroke="#263238" stroke-width="1.15613" stroke-linecap="round" stroke-linejoin="round"/>
<path d="M73.2752 196.891C73.2752 196.891 78.7746 200.52 88.0126 199.086" stroke="#263238" stroke-width="1.15613" stroke-linecap="round" stroke-linejoin="round"/>
<path d="M72.7245 198.992C72.7245 198.992 77.169 203.22 87.5395 201.247" stroke="#263238" stroke-width="1.15613" stroke-linecap="round" stroke-linejoin="round"/>
<path d="M72.391 201.294C72.391 201.294 81.1947 205.974 87.6869 203.314" stroke="#263238" stroke-width="1.15613" stroke-linecap="round" stroke-linejoin="round"/>
<path d="M88.6797 196.796C88.6797 196.796 92.2012 193.43 93.1863 195.551C94.1713 197.672 92.7441 202.714 88.0204 204.148" stroke="#263238" stroke-width="1.15613" stroke-linecap="round" stroke-linejoin="round"/>
<path d="M73.601 194.791C73.601 194.791 73.7174 192.023 71.8403 191.545C69.9632 191.067 70.5217 198.514 72.2824 202.143" stroke="#263238" stroke-width="1.15613" stroke-linecap="round" stroke-linejoin="round"/>
<path d="M84.1111 182.308H78.2937V187.62H84.1111V182.308Z" fill="white" stroke="#263238" stroke-width="1.15613" stroke-linecap="round" stroke-linejoin="round"/>
<path d="M87.9661 186.591L103.138 167.935C103.664 167.557 104.053 167.056 104.258 166.491C104.463 165.925 104.475 165.321 104.294 164.75C103.914 163.747 97.1033 140.082 97.1033 140.082C97.1033 140.082 93.3026 134.473 89.2847 137.9C86.027 140.687 88.3927 147.043 89.3933 149.346C89.7423 150.147 90.0604 150.955 90.3474 151.776L93.9774 165.275L83.6612 185.473C83.6612 185.473 79.3331 187.452 78.6505 187.829C77.968 188.207 76.595 189.89 75.7884 190.758C74.9817 191.627 73.5778 191.815 74.5085 192.3C75.4393 192.785 76.0598 192.185 76.502 191.862L78.6816 190.24L76.6261 196.003C76.567 196.165 76.5805 196.34 76.6639 196.494C76.7473 196.647 76.8945 196.768 77.076 196.831C77.2597 196.896 77.4649 196.897 77.6495 196.834C77.8342 196.772 77.9842 196.65 78.0688 196.494L80.1475 192.684L79.6977 197.067C79.6823 197.229 79.7401 197.389 79.8588 197.515C79.9775 197.641 80.1478 197.721 80.3337 197.74C80.4994 197.757 80.6668 197.724 80.8079 197.647C80.9491 197.57 81.0555 197.453 81.1093 197.316L82.6606 193.276L82.5831 196.865L82.7848 197.787C83.925 198.11 83.9637 196.932 84.0335 196.319L84.3671 193.525L85.4608 196.636C85.8848 196.03 86.0776 195.323 86.0115 194.616L85.7322 191.694L86.9267 187.688L87.9661 186.591Z" fill="white" stroke="#263238" stroke-width="1.15613" stroke-linecap="round" stroke-linejoin="round"/>
<path d="M90.6266 152.55L90.3473 151.756C90.0604 150.934 89.7423 150.126 89.3933 149.325C88.3927 147.043 86.027 140.687 89.2847 137.88C93.3026 134.453 97.1033 140.061 97.1033 140.061C97.1033 140.061 98.4994 144.962 99.9732 150.079L90.6266 152.55Z" fill="white" stroke="#263238" stroke-width="1.15613" stroke-linecap="round" stroke-linejoin="round"/>
<path d="M108.443 212.672H53.1859V255.728H108.443V212.672Z" fill="#263238" stroke="#263238" stroke-width="1.15613" stroke-linecap="round" stroke-linejoin="round"/>
<path d="M79.9924 249.163C88.3116 249.163 95.0556 243.309 95.0556 236.088C95.0556 228.867 88.3116 223.014 79.9924 223.014C71.6733 223.014 64.9293 228.867 64.9293 236.088C64.9293 243.309 71.6733 249.163 79.9924 249.163Z" fill="white"/>
<path d="M70.2735 229.491C73.76 230.965 77.5067 231.921 81.3576 232.318C87.7179 232.958 90.5258 232.191 90.5258 232.191C90.5258 232.191 89.1839 237.577 89.37 241.616C89.4864 244.148 79.8838 244.659 74.8576 242.963C72.5867 242.252 70.4468 241.259 68.505 240.014C68.505 240.014 68.7998 232.574 70.2735 229.491Z" fill="white" stroke="#263238" stroke-width="1.15613" stroke-linecap="round" stroke-linejoin="round"/>
<path d="M69.8314 232.318C69.8314 232.318 77.2233 237.193 89.6338 235.267" stroke="#263238" stroke-width="1.15613" stroke-linecap="round" stroke-linejoin="round"/>
<path d="M69.0945 235.139C69.0945 235.139 75.067 240.814 88.9977 238.168" stroke="#263238" stroke-width="1.15613" stroke-linecap="round" stroke-linejoin="round"/>
<path d="M68.6524 238.216C68.6524 238.216 80.4733 244.504 89.1917 240.909" stroke="#263238" stroke-width="1.15613" stroke-linecap="round" stroke-linejoin="round"/>
<path d="M90.5258 232.191C90.5258 232.191 95.2495 227.7 96.5836 230.521C97.9177 233.342 95.9941 240.142 89.6028 242.068" stroke="#263238" stroke-width="1.15613" stroke-linecap="round" stroke-linejoin="round"/>
<path d="M70.2735 229.491C70.2735 229.491 70.4286 225.774 67.9466 225.135C65.4645 224.495 66.1703 234.5 68.536 239.374" stroke="#263238" stroke-width="1.15613" stroke-linecap="round" stroke-linejoin="round"/>
<path d="M84.1189 212.672H79.2168V219.809H84.1189V212.672Z" fill="white" stroke="#263238" stroke-width="1.15613" stroke-linecap="round" stroke-linejoin="round"/>
<path d="M57.1805 194.811H18.2971V225.108H57.1805V194.811Z" fill="#263238" stroke="#263238" stroke-width="1.15613" stroke-linecap="round" stroke-linejoin="round"/>
<path d="M40.4032 221.677C46.4193 220.397 50.1002 215.125 48.6247 209.903C47.1492 204.681 41.0761 201.486 35.06 202.767C29.0439 204.048 25.363 209.319 26.8385 214.541C28.3139 219.763 34.3871 222.958 40.4032 221.677Z" fill="white"/>
<path d="M30.4981 207.306C33.0925 208.406 35.883 209.116 38.751 209.407C43.4825 209.885 45.5767 209.312 45.5767 209.312C45.014 211.615 44.7255 213.961 44.7158 216.314C44.8011 218.193 37.6496 218.577 33.9109 217.338C32.2199 216.808 30.6262 216.069 29.1794 215.143C29.1794 215.143 29.4044 209.602 30.4981 207.306Z" fill="white" stroke="#263238" stroke-width="1.15613" stroke-linecap="round" stroke-linejoin="round"/>
<path d="M30.1723 209.407C30.1723 209.407 35.6717 213.036 44.9097 211.608" stroke="#263238" stroke-width="1.15613" stroke-linecap="round" stroke-linejoin="round"/>
<path d="M29.5983 211.515C29.5983 211.515 34.0428 215.743 44.421 213.77" stroke="#263238" stroke-width="1.15613" stroke-linecap="round" stroke-linejoin="round"/>
<path d="M29.2881 213.804C29.2881 213.804 38.0917 218.483 44.5839 215.824" stroke="#263238" stroke-width="1.15613" stroke-linecap="round" stroke-linejoin="round"/>
<path d="M45.5767 209.313C45.5767 209.313 49.0982 205.947 50.0833 208.074C51.0683 210.202 49.6489 215.238 44.9174 216.672" stroke="#263238" stroke-width="1.15613" stroke-linecap="round" stroke-linejoin="round"/>
<path d="M30.4981 207.307C30.4981 207.307 30.6144 204.54 28.7451 204.061C26.8758 203.583 27.4187 211.037 29.1795 214.665" stroke="#263238" stroke-width="1.15613" stroke-linecap="round" stroke-linejoin="round"/>
<path d="M40.6436 194.811H34.8262V200.123H40.6436V194.811Z" fill="white" stroke="#263238" stroke-width="1.15613" stroke-linecap="round" stroke-linejoin="round"/>
<path d="M57.1805 225.431H18.2971V255.728H57.1805V225.431Z" fill="#263238" stroke="#263238" stroke-width="1.15613" stroke-linecap="round" stroke-linejoin="round"/>
<path d="M45.3259 250C49.8855 246.361 50.1829 240.202 45.9901 236.244C41.7973 232.286 34.7019 232.028 30.1423 235.668C25.5826 239.307 25.2852 245.466 29.4781 249.424C33.6709 253.381 40.7662 253.639 45.3259 250Z" fill="white"/>
<path d="M30.4981 237.926C33.094 239.023 35.8839 239.733 38.751 240.027C43.4825 240.505 45.5767 239.933 45.5767 239.933C45.0146 242.233 44.7261 244.577 44.7158 246.928C44.8011 248.813 37.6496 249.197 33.9109 247.951C32.2199 247.422 30.6262 246.682 29.1794 245.756C29.1794 245.756 29.4044 240.215 30.4981 237.926Z" fill="white" stroke="#263238" stroke-width="1.15613" stroke-linecap="round" stroke-linejoin="round"/>
<path d="M30.1723 240.027C30.1723 240.027 35.6717 243.656 44.9097 242.222" stroke="#263238" stroke-width="1.15613" stroke-linecap="round" stroke-linejoin="round"/>
<path d="M29.5983 242.128C29.5983 242.128 34.0428 246.356 44.421 244.383" stroke="#263238" stroke-width="1.15613" stroke-linecap="round" stroke-linejoin="round"/>
<path d="M29.2881 244.417C29.2881 244.417 38.1305 249.096 44.5839 246.403" stroke="#263238" stroke-width="1.15613" stroke-linecap="round" stroke-linejoin="round"/>
<path d="M45.5767 239.933C45.5767 239.933 49.0982 236.566 50.0833 238.687C51.0683 240.808 49.6489 245.851 44.9174 247.285" stroke="#263238" stroke-width="1.15613" stroke-linecap="round" stroke-linejoin="round"/>
<path d="M30.4981 237.927C30.4981 237.927 30.6144 235.16 28.7451 234.682C26.8758 234.204 27.4187 241.65 29.1795 245.279" stroke="#263238" stroke-width="1.15613" stroke-linecap="round" stroke-linejoin="round"/>
<path d="M40.6436 225.431H34.8262V230.743H40.6436V225.431Z" fill="white" stroke="#263238" stroke-width="1.15613" stroke-linecap="round" stroke-linejoin="round"/>
<path d="M1 256.004H327.123" stroke="#263238" stroke-width="1.15613" stroke-linecap="round" stroke-linejoin="round"/>
</svg>
