<svg width="193" height="132" viewBox="0 0 193 132" fill="none" xmlns="http://www.w3.org/2000/svg">
<rect width="193" height="132" fill="#263238"/>
<path d="M117.139 10H75.8608C65.9966 10 58 18.2043 58 28.3247V70.6753C58 80.7957 65.9966 89 75.8608 89H117.139C127.003 89 135 80.7957 135 70.6753V28.3247C135 18.2043 127.003 10 117.139 10Z" stroke="white" stroke-width="5"/>
<path d="M88.8501 49.2767H104.15M96.5001 41.0615V57.4921M85.0251 26C77.2793 26 71 32.7434 71 41.0615C71 56.1228 87.5751 69.8151 96.5001 73C105.425 69.8151 122 56.1228 122 41.0615C122 32.7434 115.721 26 107.975 26C103.232 26 99.0373 28.5289 96.5001 32.3998C95.2068 30.4213 93.4887 28.807 91.4913 27.693C89.4938 26.5789 87.2759 25.9981 85.0251 26Z" stroke="#FFC727" stroke-width="5" stroke-linecap="round" stroke-linejoin="round"/>
<path d="M21.7844 109.174C21.7073 108.421 21.3832 107.833 20.8116 107.413C20.2456 106.993 19.5092 106.783 18.6025 106.783C17.9652 106.783 17.4182 106.884 16.9622 107.085C16.5062 107.287 16.1572 107.56 15.9154 107.905C15.6736 108.251 15.5499 108.645 15.5444 109.088C15.5444 109.456 15.6242 109.776 15.7835 110.046C15.9483 110.317 16.1709 110.547 16.4512 110.737C16.7314 110.921 17.042 111.077 17.3826 111.203C17.7234 111.33 18.0667 111.436 18.413 111.523L19.9956 111.937C20.6331 112.092 21.2459 112.303 21.8337 112.567C22.4271 112.832 22.9574 113.166 23.4246 113.569C23.8973 113.972 24.2708 114.458 24.5457 115.028C24.8205 115.597 24.9578 116.265 24.9578 117.03C24.9578 118.067 24.705 118.979 24.1994 119.767C23.6938 120.55 22.9631 121.163 22.0068 121.606C21.0562 122.043 19.9048 122.262 18.5531 122.262C17.2397 122.262 16.0994 122.049 15.1323 121.623C14.1707 121.197 13.4178 120.576 12.8738 119.759C12.3353 118.941 12.0441 117.946 12 116.771H15.0087C15.0528 117.387 15.234 117.899 15.5527 118.308C15.8715 118.717 16.2864 119.022 16.7974 119.223C17.314 119.425 17.8909 119.525 18.5284 119.525C19.1933 119.525 19.7757 119.422 20.2758 119.215C20.7814 119.002 21.1771 118.708 21.4628 118.334C21.7485 117.954 21.8941 117.511 21.8996 117.005C21.8941 116.544 21.765 116.164 21.5124 115.865C21.2596 115.56 20.9051 115.307 20.4488 115.105C19.9983 114.898 19.4708 114.714 18.8662 114.553L16.9458 114.035C15.5554 113.661 14.4564 113.094 13.6487 112.334C12.8464 111.569 12.4452 110.553 12.4452 109.287C12.4452 108.245 12.7145 107.333 13.253 106.55C13.797 105.767 14.5362 105.16 15.4704 104.728C16.4045 104.291 17.4623 104.072 18.6438 104.072C19.8418 104.072 20.8913 104.291 21.7926 104.728C22.6993 105.16 23.4109 105.761 23.9274 106.533C24.444 107.298 24.7105 108.179 24.727 109.174H21.7844ZM30.536 114.225V121.994H27.5523V104.314H30.4702V110.987H30.6185C30.9152 110.239 31.3742 109.649 31.995 109.218C32.6215 108.78 33.4183 108.562 34.3854 108.562C35.2647 108.562 36.0313 108.754 36.6852 109.14C37.3392 109.526 37.8448 110.09 38.2018 110.832C38.5645 111.575 38.7458 112.481 38.7458 113.551V121.994H35.762V114.035C35.762 113.143 35.5422 112.449 35.1026 111.954C34.6686 111.454 34.0585 111.203 33.2727 111.203C32.7451 111.203 32.2725 111.324 31.8549 111.566C31.4428 111.802 31.1186 112.144 30.8823 112.593C30.6514 113.042 30.536 113.586 30.536 114.225ZM45.4308 122.262C44.6285 122.262 43.906 122.112 43.263 121.813C42.6255 121.508 42.1199 121.059 41.7462 120.466C41.378 119.874 41.194 119.143 41.194 118.274C41.194 117.525 41.3259 116.907 41.5896 116.418C41.8534 115.928 42.2134 115.537 42.6694 115.243C43.1256 114.95 43.6395 114.728 44.2109 114.579C44.7878 114.423 45.3841 114.311 45.9994 114.242C46.7414 114.161 47.3432 114.09 47.8047 114.026C48.2664 113.957 48.6015 113.854 48.8104 113.715C49.0246 113.572 49.1318 113.35 49.1318 113.051V112.999C49.1318 112.348 48.9478 111.845 48.5795 111.488C48.2113 111.131 47.681 110.953 46.9887 110.953C46.2577 110.953 45.6781 111.12 45.2495 111.454C44.8264 111.787 44.5405 112.182 44.3921 112.636L41.6061 112.222C41.826 111.416 42.1887 110.743 42.6941 110.202C43.1997 109.655 43.818 109.246 44.5487 108.976C45.2797 108.7 46.0874 108.562 46.9722 108.562C47.5821 108.562 48.1894 108.636 48.7939 108.786C49.3983 108.936 49.9505 109.183 50.4506 109.528C50.9507 109.868 51.3519 110.331 51.654 110.918C51.9619 111.505 52.1157 112.239 52.1157 113.12V121.994H49.2472V120.173H49.1482C48.967 120.541 48.7114 120.887 48.3818 121.209C48.0575 121.525 47.6481 121.781 47.1535 121.977C46.6644 122.167 46.0902 122.262 45.4308 122.262ZM46.2056 119.966C46.8047 119.966 47.3238 119.842 47.7635 119.595C48.2031 119.341 48.5411 119.007 48.7775 118.593C49.0191 118.179 49.14 117.727 49.14 117.238V115.675C49.0467 115.756 48.8872 115.83 48.662 115.9C48.4422 115.969 48.1949 116.029 47.9201 116.081C47.6454 116.133 47.3734 116.179 47.1041 116.219C46.8349 116.259 46.6013 116.294 46.4035 116.323C45.9583 116.386 45.5599 116.489 45.2081 116.633C44.8566 116.777 44.5791 116.979 44.3757 117.238C44.1725 117.491 44.0708 117.819 44.0708 118.222C44.0708 118.797 44.2712 119.232 44.6724 119.525C45.0735 119.819 45.5846 119.966 46.2056 119.966ZM55.1162 121.994V108.734H58.0094V110.944H58.1413C58.3719 110.179 58.7676 109.589 59.3282 109.174C59.8942 108.754 60.5399 108.544 61.2652 108.544C61.43 108.544 61.6142 108.553 61.8174 108.57C62.0263 108.582 62.1993 108.602 62.3367 108.631V111.505C62.2103 111.459 62.0098 111.419 61.7351 111.384C61.4658 111.344 61.2048 111.324 60.952 111.324C60.408 111.324 59.9189 111.448 59.4848 111.695C59.056 111.937 58.7182 112.274 58.4709 112.705C58.2236 113.137 58.0999 113.635 58.0999 114.199V121.994H55.1162ZM69.403 122.253C68.1335 122.253 67.0373 121.977 66.1141 121.425C65.1964 120.866 64.4901 120.078 63.9957 119.059C63.5011 118.035 63.2538 116.829 63.2538 115.442C63.2538 114.078 63.5011 112.881 63.9957 111.851C64.4956 110.815 65.1936 110.009 66.0894 109.433C66.9849 108.852 68.0373 108.562 69.2462 108.562C70.0265 108.562 70.763 108.694 71.4553 108.959C72.1533 109.218 72.7687 109.62 73.3017 110.167C73.8402 110.714 74.2635 111.41 74.5712 112.256C74.8788 113.097 75.0326 114.098 75.0326 115.261V116.219H64.6551V114.113H72.1725C72.1671 113.514 72.0434 112.982 71.8016 112.515C71.5598 112.043 71.2217 111.672 70.7876 111.402C70.3591 111.131 69.859 110.996 69.2875 110.996C68.6775 110.996 68.1417 111.151 67.6802 111.462C67.2185 111.767 66.8585 112.17 66.6003 112.671C66.3475 113.166 66.2185 113.71 66.2128 114.302V116.141C66.2128 116.912 66.3475 117.574 66.6169 118.127C66.8862 118.674 67.2624 119.094 67.7461 119.387C68.2297 119.675 68.7957 119.819 69.4441 119.819C69.8782 119.819 70.2711 119.756 70.6228 119.629C70.9746 119.497 71.2795 119.304 71.5378 119.051C71.7961 118.797 71.9911 118.484 72.123 118.11L74.909 118.438C74.7332 119.209 74.3981 119.882 73.9035 120.458C73.4144 121.028 72.7879 121.471 72.0242 121.787C71.2603 122.098 70.3865 122.253 69.403 122.253ZM79.8569 121.994H76.5927L82.5357 104.314H86.311L92.2623 121.994H88.9981L84.4893 107.94H84.3574L79.8569 121.994ZM79.9639 115.062H88.8662V117.635H79.9639V115.062ZM97.3376 104.314V121.994H94.3539V104.314H97.3376ZM103.39 104.314V121.994H100.406V104.314H103.39ZM105.848 106.999V104.314H119.317V106.999H114.099V121.994H111.066V106.999H105.848ZM124.766 114.225V121.994H121.782V104.314H124.7V110.987H124.848C125.145 110.239 125.604 109.649 126.225 109.218C126.851 108.78 127.648 108.562 128.615 108.562C129.494 108.562 130.261 108.754 130.915 109.14C131.569 109.526 132.074 110.09 132.431 110.832C132.794 111.575 132.975 112.481 132.975 113.551V121.994H129.992V114.035C129.992 113.143 129.772 112.449 129.332 111.954C128.898 111.454 128.288 111.203 127.502 111.203C126.975 111.203 126.502 111.324 126.084 111.566C125.672 111.802 125.348 112.144 125.112 112.593C124.881 113.042 124.766 113.586 124.766 114.225ZM136.017 121.994V108.734H139.001V121.994H136.017ZM137.517 106.852C137.045 106.852 136.638 106.688 136.297 106.36C135.957 106.026 135.786 105.626 135.786 105.16C135.786 104.688 135.957 104.288 136.297 103.96C136.638 103.626 137.045 103.459 137.517 103.459C137.995 103.459 138.402 103.626 138.737 103.96C139.078 104.288 139.248 104.688 139.248 105.16C139.248 105.626 139.078 106.026 138.737 106.36C138.402 106.688 137.995 106.852 137.517 106.852ZM145.053 114.225V121.994H142.069V108.734H144.921V110.987H145.07C145.361 110.245 145.825 109.655 146.463 109.218C147.106 108.78 147.9 108.562 148.845 108.562C149.719 108.562 150.48 108.757 151.128 109.149C151.782 109.54 152.288 110.107 152.645 110.849C153.008 111.592 153.186 112.492 153.181 113.551V121.994H150.197V114.035C150.197 113.149 149.977 112.455 149.537 111.954C149.103 111.454 148.501 111.203 147.732 111.203C147.21 111.203 146.746 111.324 146.339 111.566C145.938 111.802 145.622 112.144 145.391 112.593C145.166 113.042 145.053 113.586 145.053 114.225ZM161.72 127.243C160.649 127.243 159.728 127.091 158.959 126.786C158.189 126.487 157.571 126.084 157.104 125.577C156.637 125.071 156.313 124.509 156.132 123.894L158.819 123.212C158.94 123.471 159.115 123.727 159.346 123.98C159.577 124.239 159.887 124.452 160.278 124.619C160.673 124.791 161.171 124.878 161.77 124.878C162.616 124.878 163.316 124.662 163.871 124.23C164.426 123.804 164.704 123.102 164.704 122.124V119.612H164.556C164.402 119.934 164.177 120.265 163.88 120.605C163.588 120.944 163.201 121.229 162.717 121.459C162.239 121.689 161.638 121.805 160.912 121.805C159.94 121.805 159.058 121.566 158.266 121.088C157.481 120.605 156.854 119.885 156.387 118.93C155.925 117.969 155.695 116.766 155.695 115.321C155.695 113.865 155.925 112.636 156.387 111.635C156.854 110.628 157.483 109.865 158.275 109.347C159.066 108.823 159.948 108.562 160.921 108.562C161.662 108.562 162.272 108.694 162.751 108.959C163.234 109.218 163.619 109.531 163.904 109.9C164.19 110.262 164.407 110.605 164.556 110.927H164.721V108.734H167.663V122.21C167.663 123.344 167.405 124.282 166.888 125.025C166.372 125.767 165.666 126.322 164.77 126.691C163.874 127.059 162.858 127.243 161.72 127.243ZM161.745 119.353C162.377 119.353 162.915 119.192 163.36 118.869C163.806 118.547 164.143 118.084 164.374 117.479C164.605 116.875 164.721 116.15 164.721 115.304C164.721 114.469 164.605 113.738 164.374 113.111C164.149 112.484 163.814 111.998 163.369 111.652C162.929 111.301 162.388 111.125 161.745 111.125C161.08 111.125 160.525 111.307 160.08 111.669C159.635 112.032 159.3 112.53 159.074 113.163C158.849 113.79 158.736 114.504 158.736 115.304C158.736 116.115 158.849 116.826 159.074 117.436C159.305 118.04 159.643 118.512 160.088 118.852C160.539 119.186 161.091 119.353 161.745 119.353ZM180.728 112.239L178.008 112.55C177.931 112.262 177.796 111.992 177.604 111.739C177.417 111.485 177.164 111.281 176.846 111.125C176.527 110.97 176.137 110.892 175.675 110.892C175.054 110.892 174.532 111.033 174.109 111.315C173.691 111.598 173.485 111.963 173.491 112.412C173.485 112.797 173.62 113.111 173.895 113.353C174.175 113.594 174.637 113.793 175.28 113.949L177.439 114.432C178.637 114.702 179.527 115.131 180.11 115.718C180.698 116.305 180.995 117.074 181 118.023C180.995 118.858 180.761 119.595 180.299 120.233C179.843 120.866 179.208 121.361 178.395 121.718C177.582 122.075 176.648 122.253 175.593 122.253C174.043 122.253 172.796 121.914 171.851 121.235C170.905 120.55 170.342 119.597 170.161 118.377L173.07 118.084C173.202 118.682 173.483 119.134 173.911 119.439C174.34 119.744 174.898 119.897 175.584 119.897C176.293 119.897 176.862 119.744 177.291 119.439C177.725 119.134 177.942 118.757 177.942 118.308C177.942 117.928 177.802 117.615 177.522 117.367C177.247 117.12 176.818 116.93 176.236 116.797L174.076 116.323C172.862 116.058 171.963 115.612 171.381 114.984C170.798 114.351 170.51 113.551 170.515 112.585C170.51 111.767 170.721 111.059 171.15 110.461C171.584 109.856 172.186 109.39 172.955 109.062C173.73 108.728 174.623 108.562 175.634 108.562C177.118 108.562 178.285 108.892 179.137 109.554C179.994 110.216 180.525 111.111 180.728 112.239Z" fill="white"/>
</svg>
