<svg width="328" height="245" viewBox="0 0 328 245" fill="none" xmlns="http://www.w3.org/2000/svg">
<path d="M328 214.774H0V214.938H328V214.774Z" fill="#EBEBEB"/>
<path d="M295.134 225.33H273.408V225.494H295.134V225.33Z" fill="#EBEBEB"/>
<path d="M217.28 227.114H211.58V227.278H217.28V227.114Z" fill="#EBEBEB"/>
<path d="M272.752 219.242H260.163V219.406H272.752V219.242Z" fill="#EBEBEB"/>
<path d="M62.7464 220.344H34.4138V220.508H62.7464V220.344Z" fill="#EBEBEB"/>
<path d="M72.7439 220.344H68.5914V220.508H72.7439V220.344Z" fill="#EBEBEB"/>
<path d="M147.698 223.112H86.2443V223.276H147.698V223.112Z" fill="#EBEBEB"/>
<path d="M155.472 185.517H28.8049C27.8126 185.515 26.8616 185.12 26.1605 184.417C25.4595 183.715 25.0657 182.763 25.0657 181.771V3.71296C25.0744 2.72635 25.4719 1.78299 26.172 1.08779C26.8722 0.392589 27.8183 0.00169011 28.8049 0H155.472C156.465 0 157.418 0.394642 158.121 1.09711C158.823 1.79957 159.218 2.75232 159.218 3.74576V181.771C159.218 182.764 158.823 183.717 158.121 184.42C157.418 185.122 156.465 185.517 155.472 185.517ZM28.8049 0.1312C27.8561 0.132938 26.9468 0.511067 26.2765 1.18259C25.6062 1.85411 25.2297 2.76415 25.2297 3.71296V181.771C25.2297 182.72 25.6062 183.63 26.2765 184.301C26.9468 184.973 27.8561 185.351 28.8049 185.353H155.472C156.421 185.351 157.331 184.973 158.003 184.302C158.674 183.63 159.052 182.72 159.054 181.771V3.71296C159.052 2.76355 158.674 1.85352 158.003 1.18219C157.331 0.510854 156.421 0.132935 155.472 0.1312H28.8049Z" fill="#EBEBEB"/>
<path d="M297.371 185.517H170.698C169.705 185.515 168.753 185.12 168.051 184.418C167.349 183.716 166.954 182.764 166.952 181.771V3.71296C166.962 2.72575 167.361 1.7824 168.063 1.08738C168.764 0.392359 169.71 0.00167168 170.698 0H297.371C298.357 0.00341415 299.301 0.395075 300 1.09009C300.699 1.78511 301.095 2.72749 301.104 3.71296V181.771C301.104 182.762 300.711 183.713 300.012 184.415C299.312 185.117 298.363 185.513 297.371 185.517ZM170.698 0.1312C169.748 0.132935 168.838 0.510854 168.167 1.18219C167.496 1.85352 167.118 2.76355 167.116 3.71296V181.771C167.118 182.72 167.496 183.63 168.167 184.302C168.838 184.973 169.748 185.351 170.698 185.353H297.371C298.321 185.351 299.231 184.973 299.902 184.302C300.573 183.63 300.951 182.72 300.953 181.771V3.71296C300.951 2.76355 300.573 1.85352 299.902 1.18219C299.231 0.510854 298.321 0.132935 297.371 0.1312H170.698Z" fill="#EBEBEB"/>
<path d="M243.553 213.141H241.251V62.6613C241.251 62.4038 241.148 62.1569 240.966 61.9748C240.784 61.7927 240.537 61.6904 240.28 61.6904H39.0058C38.7505 61.6939 38.507 61.7977 38.3277 61.9794C38.1485 62.1611 38.048 62.4061 38.048 62.6613V213.141H35.8832C35.7494 213.13 35.6148 213.147 35.4879 213.191C35.361 213.234 35.2445 213.304 35.1457 213.395C35.047 213.486 34.9682 213.596 34.9143 213.719C34.8604 213.842 34.8326 213.975 34.8326 214.109C34.8326 214.243 34.8604 214.376 34.9143 214.499C34.9682 214.622 35.047 214.732 35.1457 214.823C35.2445 214.914 35.361 214.983 35.4879 215.027C35.6148 215.071 35.7494 215.087 35.8832 215.076H43.0336C43.1674 215.087 43.302 215.071 43.4289 215.027C43.5558 214.983 43.6723 214.914 43.7711 214.823C43.8698 214.732 43.9486 214.622 44.0025 214.499C44.0564 214.376 44.0842 214.243 44.0842 214.109C44.0842 213.975 44.0564 213.842 44.0025 213.719C43.9486 213.596 43.8698 213.486 43.7711 213.395C43.6723 213.304 43.5558 213.234 43.4289 213.191C43.302 213.147 43.1674 213.13 43.0336 213.141H39.9766V63.6322H239.309V213.141H236.396C236.153 213.161 235.927 213.272 235.762 213.451C235.597 213.63 235.505 213.865 235.505 214.109C235.505 214.352 235.597 214.587 235.762 214.766C235.927 214.946 236.153 215.056 236.396 215.076H243.553C243.796 215.056 244.022 214.946 244.188 214.766C244.353 214.587 244.444 214.352 244.444 214.109C244.444 213.865 244.353 213.63 244.188 213.451C244.022 213.272 243.796 213.161 243.553 213.141Z" fill="#F0F0F0"/>
<path d="M54.7432 82.2295L57.6361 100.768L42.8827 189.873H91.7809L77.4736 102.913L80.7208 83.2857L54.7432 82.2295Z" fill="#EBEBEB"/>
<path d="M80.3469 79.9466H54.8941C54.649 79.9474 54.4101 79.8697 54.2123 79.725C54.0145 79.5802 53.8683 79.3759 53.795 79.142C53.7217 78.9082 53.7251 78.657 53.8049 78.4252C53.8846 78.1934 54.0364 77.9933 54.2381 77.854L67.8501 68.4798C67.906 68.4411 67.9724 68.4204 68.0403 68.4204C68.1083 68.4204 68.1747 68.4411 68.2306 68.4798L81.016 77.8737C81.2133 78.0126 81.3602 78.2117 81.4347 78.4411C81.5092 78.6706 81.5073 78.918 81.4293 79.1463C81.3579 79.3778 81.2143 79.5803 81.0196 79.7243C80.8248 79.8683 80.5891 79.9462 80.3469 79.9466ZM68.0338 69.1554L54.612 78.3985C54.5258 78.4564 54.4611 78.5411 54.4278 78.6396C54.3946 78.738 54.3948 78.8446 54.4283 78.943C54.4551 79.0451 54.5157 79.1352 54.6003 79.1984C54.685 79.2615 54.7885 79.2941 54.8941 79.2906H80.3469C80.4496 79.2893 80.5493 79.2558 80.632 79.1949C80.7147 79.134 80.7763 79.0488 80.8082 78.9511C80.84 78.8535 80.8405 78.7483 80.8095 78.6504C80.7785 78.5524 80.7177 78.4667 80.6355 78.405L68.0338 69.1554Z" fill="#E0E0E0"/>
<path d="M68.0403 69.0834C67.9533 69.0834 67.8699 69.0488 67.8084 68.9873C67.7469 68.9258 67.7123 68.8424 67.7123 68.7554V65.4098C67.3843 64.8784 66.0067 62.5103 66.6627 61.3163C66.8064 61.0875 67.0122 60.9043 67.2562 60.7882C67.5001 60.672 67.7721 60.6277 68.0403 60.6603C69.1555 60.6603 69.8705 60.9227 70.1723 61.4541C70.2737 61.6705 70.3212 61.9081 70.311 62.1469C70.3007 62.3856 70.2329 62.6183 70.1133 62.8251C70.0682 62.9001 69.9956 62.9544 69.911 62.9764C69.8264 62.9985 69.7365 62.9866 69.6606 62.9432C69.5868 62.8971 69.5339 62.824 69.513 62.7395C69.4922 62.655 69.5052 62.5657 69.5491 62.4906C69.611 62.383 69.6478 62.2628 69.6569 62.139C69.666 62.0153 69.6471 61.891 69.6016 61.7755C69.431 61.4803 68.8734 61.3163 68.0403 61.3163C67.3843 61.3163 67.2793 61.5656 67.24 61.6443C66.8464 62.3528 67.6926 64.1699 68.3158 65.1539C68.3499 65.2067 68.3681 65.2682 68.3683 65.3311V68.7685C68.3649 68.8532 68.3289 68.9333 68.2677 68.992C68.2066 69.0507 68.1251 69.0835 68.0403 69.0834Z" fill="#E0E0E0"/>
<path d="M60.3979 83.7713L59.9125 73.3672L57.4722 75.1843L58.3643 84.0993L60.3979 83.7713Z" fill="#EBEBEB"/>
<path d="M75.276 84.0993L76.2534 73.3672L78.4445 75.1843L77.8803 84.0993H75.276Z" fill="#EBEBEB"/>
<path d="M117.85 79.9466H92.3976C92.1525 79.9474 91.9136 79.8697 91.7159 79.725C91.5181 79.5802 91.3718 79.3759 91.2985 79.142C91.2252 78.9082 91.2287 78.657 91.3084 78.4252C91.3881 78.1934 91.54 77.9933 91.7416 77.854L105.354 68.4798C105.41 68.4411 105.476 68.4204 105.544 68.4204C105.612 68.4204 105.678 68.4411 105.734 68.4798L118.526 77.8737C118.722 78.0135 118.868 78.2129 118.941 78.4423C119.014 78.6717 119.012 78.9187 118.933 79.1463C118.861 79.3778 118.718 79.5803 118.523 79.7243C118.328 79.8683 118.093 79.9462 117.85 79.9466ZM105.544 69.1554L92.1221 78.3985C92.038 78.4586 91.975 78.5436 91.942 78.6415C91.909 78.7394 91.9076 78.8452 91.9381 78.9439C91.9686 79.0427 92.0294 79.1293 92.1119 79.1915C92.1943 79.2537 92.2943 79.2884 92.3976 79.2906H117.85C117.954 79.2906 118.054 79.2581 118.138 79.1978C118.222 79.1374 118.285 79.0522 118.317 78.9542C118.35 78.8563 118.351 78.7505 118.32 78.6519C118.289 78.5534 118.228 78.467 118.146 78.405L105.544 69.1554Z" fill="#E0E0E0"/>
<path d="M105.55 69.0832C105.463 69.0832 105.38 69.0486 105.318 68.9871C105.257 68.9256 105.222 68.8422 105.222 68.7552V65.4096C104.888 64.8782 103.51 62.5101 104.166 61.3161C104.311 61.0868 104.518 60.9034 104.763 60.7872C105.008 60.671 105.281 60.627 105.55 60.6601C106.659 60.6601 107.381 60.9225 107.682 61.4539C107.783 61.6707 107.83 61.9087 107.819 62.1475C107.807 62.3863 107.738 62.6188 107.617 62.8249C107.596 62.8625 107.567 62.8954 107.533 62.9217C107.499 62.9481 107.46 62.9674 107.419 62.9784C107.377 62.9894 107.334 62.9919 107.291 62.9859C107.249 62.9798 107.208 62.9652 107.171 62.943C107.096 62.898 107.042 62.8254 107.019 62.7408C106.997 62.6562 107.009 62.5663 107.053 62.4904C107.114 62.3828 107.152 62.263 107.162 62.1394C107.172 62.0159 107.155 61.8916 107.112 61.7753C106.935 61.4801 106.384 61.3161 105.55 61.3161C104.894 61.3161 104.789 61.5654 104.744 61.6441C104.356 62.3526 105.203 64.1697 105.826 65.1537C105.86 65.2065 105.878 65.268 105.878 65.3309V68.7683C105.873 68.8525 105.837 68.9316 105.776 68.99C105.715 69.0484 105.635 69.0817 105.55 69.0832Z" fill="#E0E0E0"/>
<path d="M98.9576 72.3764C98.9576 72.3764 103.55 75.6564 105.911 75.6564C108.273 75.6564 111.52 72.0156 111.52 72.0156L121.052 78.5166L115.705 90.9084L121.714 163.068H87.9893L95.4349 90.9084L88.6649 79.3759L98.9576 72.3764Z" fill="#F5F5F5"/>
<path d="M194.176 79.9466H168.723C168.478 79.9474 168.239 79.8697 168.041 79.725C167.844 79.5802 167.697 79.3759 167.624 79.142C167.551 78.9082 167.554 78.657 167.634 78.4252C167.714 78.1934 167.866 77.9933 168.067 77.854L181.712 68.4798C181.768 68.4411 181.834 68.4204 181.902 68.4204C181.97 68.4204 182.037 68.4411 182.092 68.4798L194.832 77.8802C195.029 78.0191 195.176 78.2182 195.251 78.4477C195.325 78.6772 195.323 78.9246 195.245 79.1529C195.173 79.381 195.031 79.5805 194.839 79.7231C194.647 79.8656 194.415 79.9439 194.176 79.9466ZM181.863 69.1554L168.441 78.3985C168.357 78.4589 168.293 78.5445 168.261 78.643C168.228 78.7415 168.227 78.848 168.258 78.947C168.29 79.046 168.351 79.1326 168.435 79.1943C168.518 79.256 168.619 79.2898 168.723 79.2906H194.176C194.279 79.2893 194.378 79.2558 194.461 79.1949C194.544 79.134 194.605 79.0488 194.637 78.9511C194.669 78.8535 194.67 78.7483 194.639 78.6504C194.608 78.5524 194.547 78.4667 194.465 78.405L181.863 69.1554Z" fill="#E0E0E0"/>
<path d="M181.863 69.0834C181.776 69.0834 181.692 69.0488 181.631 68.9873C181.569 68.9258 181.535 68.8424 181.535 68.7554V65.4098C181.207 64.8784 179.829 62.5103 180.485 61.3163C180.629 61.0875 180.835 60.9043 181.079 60.7882C181.323 60.672 181.595 60.6277 181.863 60.6603C182.978 60.6603 183.693 60.9227 183.995 61.4541C184.096 61.6705 184.144 61.9081 184.134 62.1469C184.123 62.3856 184.055 62.6183 183.936 62.8251C183.892 62.8996 183.821 62.9538 183.737 62.9759C183.654 62.998 183.565 62.9863 183.49 62.9432C183.415 62.8982 183.361 62.8256 183.338 62.741C183.316 62.6564 183.328 62.5665 183.372 62.4906C183.434 62.383 183.47 62.2628 183.479 62.139C183.489 62.0153 183.47 61.891 183.424 61.7755C183.254 61.4803 182.696 61.3163 181.863 61.3163C181.207 61.3163 181.102 61.5656 181.063 61.6443C180.669 62.3528 181.515 64.1699 182.138 65.1539C182.172 65.2067 182.191 65.2682 182.191 65.3311V68.7685C182.187 68.8532 182.151 68.9333 182.09 68.992C182.029 69.0507 181.948 69.0835 181.863 69.0834Z" fill="#E0E0E0"/>
<path d="M170.311 75.5058L174.017 90.2001L162.248 193.212H197.541L189.617 91.709L192.982 75.5058L189.059 73.3672L181.627 82.2101L173.381 73.3672L170.311 75.5058Z" fill="#F5F5F5"/>
<path d="M90.095 46.3397C90.095 45.1479 89.6216 44.0049 88.7789 43.1622C87.9362 42.3195 86.7932 41.8461 85.6014 41.8461C85.157 41.8433 84.7148 41.9074 84.2894 42.0363C84.5103 40.5383 84.3704 39.0091 83.8812 37.576C83.392 36.1429 82.5678 34.8474 81.477 33.797C80.3863 32.7467 79.0605 31.9719 77.61 31.5372C76.1595 31.1025 74.6261 31.0203 73.1374 31.2976C72.1939 29.767 70.7802 28.5831 69.1078 27.9228C67.4354 27.2626 65.5941 27.1616 63.8595 27.635C62.1249 28.1083 60.5902 29.1305 59.4849 30.5487C58.3797 31.9669 57.7633 33.7049 57.728 35.5026H57.5902C55.5944 35.5609 53.6998 36.3948 52.3087 37.8272C50.9175 39.2596 50.1394 41.1777 50.1394 43.1745C50.1394 45.1712 50.9175 47.0894 52.3087 48.5218C53.6998 49.9542 55.5944 50.788 57.5902 50.8464H85.7523C86.9195 50.8055 88.025 50.3126 88.8354 49.4716C89.6458 48.6306 90.0975 47.5075 90.095 46.3397Z" fill="#F0F0F0"/>
<path d="M259.376 28.5952C259.376 27.9177 259.218 27.2496 258.913 26.6442C258.609 26.0388 258.167 25.513 257.624 25.1088C257.08 24.7047 256.449 24.4333 255.782 24.3165C255.114 24.1997 254.429 24.2407 253.78 24.4362C253.842 24.0015 253.875 23.5632 253.879 23.1242C253.879 20.6885 252.911 18.3525 251.189 16.6301C249.466 14.9078 247.13 13.9402 244.695 13.9402C244.127 13.9426 243.56 13.9953 243.002 14.0977C242.096 12.6047 240.729 11.4471 239.107 10.8C237.485 10.1529 235.696 10.0514 234.011 10.5108C232.326 10.9702 230.836 11.9655 229.767 13.3464C228.698 14.7272 228.108 16.4186 228.085 18.1649H227.947C226.018 18.2222 224.188 19.0287 222.844 20.4132C221.5 21.7978 220.748 23.6514 220.748 25.5809C220.748 27.5105 221.5 29.3641 222.844 30.7486C224.188 32.1332 226.018 32.9396 227.947 32.997H255.184C256.32 32.9576 257.395 32.4747 258.178 31.6518C258.962 30.8288 259.392 29.7315 259.376 28.5952Z" fill="#F0F0F0"/>
<path d="M194.57 50.6693C194.57 50.2734 194.492 49.8813 194.34 49.5155C194.188 49.1498 193.966 48.8176 193.685 48.5379C193.405 48.2582 193.072 48.0365 192.706 47.8856C192.34 47.7347 191.948 47.6574 191.552 47.6583C191.259 47.6593 190.967 47.7012 190.686 47.7829C190.733 47.4769 190.758 47.1677 190.758 46.858C190.758 45.1651 190.086 43.5416 188.889 42.3446C187.692 41.1476 186.068 40.4751 184.375 40.4751C183.981 40.4755 183.588 40.5128 183.201 40.5866C182.572 39.5532 181.624 38.7525 180.5 38.305C179.376 37.8576 178.137 37.7879 176.97 38.1063C175.803 38.4247 174.771 39.1141 174.03 40.0703C173.289 41.0265 172.88 42.1978 172.863 43.4074H172.771C172.08 43.3827 171.392 43.4974 170.747 43.7446C170.102 43.9918 169.513 44.3664 169.016 44.8461C168.519 45.3258 168.123 45.9008 167.853 46.5367C167.583 47.1725 167.444 47.8563 167.444 48.5472C167.444 49.238 167.583 49.9218 167.853 50.5577C168.123 51.1936 168.519 51.7685 169.016 52.2482C169.513 52.7279 170.102 53.1025 170.747 53.3497C171.392 53.5969 172.08 53.7116 172.771 53.6869H191.637C192.424 53.668 193.172 53.3414 193.72 52.7771C194.268 52.2129 194.573 51.4561 194.57 50.6693Z" fill="#F0F0F0"/>
<path d="M138.646 19.3323C138.646 18.7407 138.411 18.1734 137.992 17.7551C137.574 17.3369 137.007 17.1019 136.415 17.1019C136.193 17.1008 135.972 17.1317 135.759 17.1937C135.872 16.4485 135.803 15.6872 135.56 14.9737C135.318 14.2603 134.907 13.6155 134.363 13.0937C133.82 12.5718 133.159 12.188 132.436 11.9746C131.713 11.7611 130.949 11.7242 130.209 11.867C129.743 11.1017 129.041 10.5086 128.209 10.1771C127.376 9.84553 126.459 9.79355 125.594 10.0289C124.729 10.2643 123.965 10.7743 123.415 11.4821C122.866 12.1899 122.561 13.0571 122.547 13.9531H122.482C121.471 13.9531 120.502 14.3546 119.787 15.0694C119.072 15.7842 118.67 16.7536 118.67 17.7644C118.67 18.7753 119.072 19.7447 119.787 20.4595C120.502 21.1742 121.471 21.5758 122.482 21.5758H136.448C137.036 21.5672 137.597 21.3266 138.009 20.9064C138.42 20.4862 138.649 19.9204 138.646 19.3323Z" fill="#F0F0F0"/>
<path d="M230.308 79.9466H204.856C204.611 79.9474 204.372 79.8697 204.174 79.725C203.976 79.5802 203.83 79.3759 203.757 79.142C203.683 78.9082 203.687 78.657 203.766 78.4252C203.846 78.1934 203.998 77.9933 204.2 77.854L217.792 68.4798C217.848 68.4411 217.914 68.4204 217.982 68.4204C218.05 68.4204 218.117 68.4411 218.172 68.4798L230.964 77.8737C231.161 78.0135 231.306 78.2129 231.38 78.4423C231.453 78.6717 231.45 78.9187 231.371 79.1463C231.301 79.3746 231.16 79.5748 230.969 79.7185C230.779 79.8622 230.547 79.942 230.308 79.9466ZM218.002 69.1554L204.58 78.3985C204.496 78.4586 204.433 78.5436 204.4 78.6415C204.367 78.7394 204.366 78.8452 204.396 78.9439C204.427 79.0427 204.487 79.1293 204.57 79.1915C204.652 79.2537 204.752 79.2884 204.856 79.2906H230.308C230.413 79.2922 230.514 79.2597 230.599 79.1982C230.683 79.1366 230.744 79.0493 230.774 78.9495C230.81 78.852 230.811 78.7455 230.779 78.6468C230.747 78.5482 230.683 78.4631 230.597 78.405L218.002 69.1554Z" fill="#E0E0E0"/>
<path d="M218.008 69.0832C217.921 69.0832 217.838 69.0486 217.777 68.9871C217.715 68.9256 217.68 68.8422 217.68 68.7552V65.4096C217.346 64.8782 215.968 62.5101 216.624 61.3161C216.769 61.0868 216.976 60.9034 217.221 60.7872C217.466 60.671 217.739 60.627 218.008 60.6601C219.117 60.6601 219.839 60.9225 220.14 61.4539C220.241 61.6707 220.288 61.9087 220.277 62.1475C220.265 62.3863 220.196 62.6188 220.075 62.8249C220.054 62.8625 220.025 62.8954 219.991 62.9217C219.957 62.9481 219.918 62.9674 219.877 62.9784C219.835 62.9894 219.792 62.9919 219.749 62.9859C219.707 62.9798 219.666 62.9652 219.629 62.943C219.554 62.898 219.5 62.8254 219.478 62.7408C219.455 62.6562 219.467 62.5663 219.511 62.4904C219.572 62.3828 219.61 62.263 219.62 62.1394C219.63 62.0159 219.613 61.8916 219.57 61.7753C219.393 61.4801 218.842 61.3161 218.008 61.3161C217.385 61.3161 217.248 61.5654 217.202 61.6441C216.815 62.3526 217.661 64.1697 218.284 65.1537C218.318 65.2065 218.336 65.268 218.336 65.3309V68.7683C218.332 68.8525 218.295 68.9316 218.234 68.99C218.173 69.0484 218.093 69.0817 218.008 69.0832Z" fill="#E0E0E0"/>
<path d="M205.918 79.0675L229.128 78.7329V190.502L222.646 191.014L217.3 102.808L209.061 190.063L203.708 189.872L205.918 79.0675Z" fill="#EBEBEB"/>
<path d="M155.269 79.9466H129.816C129.571 79.9474 129.332 79.8697 129.134 79.725C128.936 79.5802 128.79 79.3759 128.717 79.142C128.643 78.9082 128.647 78.657 128.727 78.4252C128.806 78.1934 128.958 77.9933 129.16 77.854L142.772 68.4798C142.828 68.4411 142.894 68.4204 142.962 68.4204C143.03 68.4204 143.096 68.4411 143.152 68.4798L155.938 77.8737C156.135 78.0126 156.282 78.2117 156.356 78.4411C156.431 78.6706 156.429 78.918 156.351 79.1463C156.28 79.3778 156.136 79.5803 155.941 79.7243C155.747 79.8683 155.511 79.9462 155.269 79.9466ZM142.956 69.1554L129.534 78.3985C129.448 78.4564 129.383 78.5411 129.35 78.6396C129.316 78.738 129.317 78.8446 129.35 78.943C129.377 79.0451 129.437 79.1352 129.522 79.1984C129.607 79.2615 129.71 79.2941 129.816 79.2906H155.269C155.371 79.2893 155.471 79.2558 155.554 79.1949C155.636 79.134 155.698 79.0488 155.73 78.9511C155.762 78.8535 155.762 78.7483 155.731 78.6504C155.7 78.5524 155.639 78.4667 155.557 78.405L142.956 69.1554Z" fill="#E0E0E0"/>
<path d="M142.962 69.0834C142.875 69.0834 142.792 69.0488 142.73 68.9873C142.669 68.9258 142.634 68.8423 142.634 68.7554V65.4098C142.306 64.8784 140.928 62.5102 141.584 61.3163C141.728 61.0869 141.933 60.9033 142.177 60.7871C142.422 60.6708 142.694 60.6268 142.962 60.6603C144.077 60.6603 144.792 60.9227 145.094 61.4541C145.195 61.6704 145.243 61.9081 145.233 62.1468C145.222 62.3856 145.155 62.6183 145.035 62.8251C144.99 62.9 144.917 62.9543 144.833 62.9764C144.748 62.9985 144.658 62.9866 144.582 62.9432C144.509 62.8971 144.456 62.824 144.435 62.7395C144.414 62.655 144.427 62.5657 144.471 62.4906C144.533 62.383 144.57 62.2628 144.579 62.139C144.588 62.0152 144.569 61.891 144.523 61.7755C144.353 61.4803 143.795 61.3163 142.962 61.3163C142.306 61.3163 142.201 61.5656 142.162 61.6443C141.768 62.3528 142.614 64.1699 143.238 65.1539C143.272 65.2067 143.29 65.2682 143.29 65.331V68.7685C143.287 68.8532 143.251 68.9333 143.189 68.992C143.128 69.0507 143.047 69.0834 142.962 69.0834Z" fill="#E0E0E0"/>
<path d="M130.872 79.0675L154.081 78.7329V190.502L147.6 191.014L142.254 102.808L134.021 190.063L128.661 189.872L130.872 79.0675Z" fill="#EBEBEB"/>
<path d="M279.41 36.9854H274.398V215.076H279.41V36.9854Z" fill="#F0F0F0"/>
<path d="M278.374 212.668H275.428C272.785 212.669 270.211 213.512 268.081 215.076H285.727C283.594 213.514 281.018 212.67 278.374 212.668Z" fill="#F0F0F0"/>
<path d="M281.431 42.0431H272.371L269.091 25.5972H284.711L281.431 42.0431Z" fill="#F0F0F0"/>
<path d="M280.742 40.5473H273.06L270.279 27.0928H283.523L280.742 40.5473Z" fill="#FAFAFA"/>
<path d="M284.94 26.4628H268.862L276.504 19.2993H277.298L284.94 26.4628Z" fill="#F0F0F0"/>
<path d="M285.353 26.4631H268.448L267.294 25.0396H286.508L285.353 26.4631Z" fill="#F0F0F0"/>
<path d="M164 244.399C234.246 244.399 291.192 241.074 291.192 236.973C291.192 232.872 234.246 229.547 164 229.547C93.7539 229.547 36.8082 232.872 36.8082 236.973C36.8082 241.074 93.7539 244.399 164 244.399Z" fill="#F5F5F5"/>
<path d="M66.971 59.5386C58.6332 61.008 57.3409 69.4311 59.6369 74.784C61.9329 80.137 65.5409 79.5728 65.8427 82.7019C66.1444 85.8311 68.0206 84.8011 68.0206 84.8011V83.6335C68.0206 83.6335 69.0112 85.5359 71.7204 84.9455C73.0621 84.7349 74.3565 84.2908 75.5449 83.6335L76.5158 84.2895C76.5158 84.2895 78.6609 83.8434 78.0377 81.7901C77.4145 79.7368 80.8585 73.2162 80.6158 68.3946C80.3731 63.573 76.4699 62.7464 70.8414 63.3959L66.971 59.5386Z" fill="#263238"/>
<path d="M103.983 227.79L99.8432 228.524L98.1442 222.883L96.596 217.7L101.365 216.034L102.756 222.26L103.983 227.79Z" fill="#E4897B"/>
<path opacity="0.2" d="M102.776 222.391L98.1638 222.994L96.6091 217.759L101.372 216.067L102.776 222.391Z" fill="black"/>
<path d="M76.3584 229.698H72.1534L71.4646 223.781L70.8414 218.382L75.827 217.549L76.1091 223.978L76.3584 229.698Z" fill="#E4897B"/>
<path opacity="0.2" d="M76.1091 224.031L71.4646 223.827L70.8414 218.402L75.827 217.562L76.1091 224.031Z" fill="black"/>
<path d="M82.0524 238.023C81.3831 237.486 80.6234 237.073 79.8089 236.803C79.8089 236.803 77.3686 234.382 76.1944 227.094L72.9996 226.261C72.4573 226.129 71.8874 226.167 71.3674 226.37C70.8474 226.573 70.4026 226.931 70.0936 227.396C70.0037 227.524 69.9351 227.666 69.8902 227.816C69.7243 228.597 69.6103 229.388 69.5491 230.184C69.2276 232.651 69.5032 238.187 69.5032 238.187H70.0804L70.31 233.162C70.3953 231.457 71.7008 233.457 72.0747 235.294C72.4486 237.131 73.2424 239.086 76.9816 239.178C81.344 239.263 83.1545 239.092 82.0524 238.023Z" fill="#263238"/>
<path d="M109.932 237.531C109.263 236.994 108.503 236.581 107.689 236.311C107.689 236.311 105.249 233.89 104.074 226.602L100.88 225.769C100.337 225.637 99.7674 225.674 99.2474 225.877C98.7274 226.081 98.2827 226.439 97.9736 226.904C97.8838 227.032 97.8151 227.174 97.7703 227.324C97.6043 228.105 97.4904 228.896 97.4291 229.692C97.1077 232.158 97.3832 237.695 97.3832 237.695H97.9605L98.1901 232.67C98.2754 230.964 99.5808 232.965 99.9547 234.802C100.329 236.639 101.122 238.594 104.862 238.686C109.224 238.784 111.035 238.6 109.932 237.531Z" fill="#263238"/>
<path d="M103.163 219.104L96.3664 220.305C89.4981 203.203 84.624 188.928 81.1669 177.081C79.3104 170.685 77.7622 165.004 76.647 159.959L76.857 178.577V220.515H70.1526C53.3525 140.483 65.2589 122.246 65.2589 122.246L85.3587 118.9C86.1571 122.625 86.7201 126.395 87.0446 130.19L87.9499 136.862L95.8219 177.448L103.163 219.104Z" fill="#263238"/>
<g opacity="0.4">
<path d="M103.163 219.104L96.3664 220.305C89.4981 203.203 84.624 188.928 81.1669 177.081C79.3104 170.685 77.7622 165.004 76.647 159.959L76.857 178.577V220.515H70.1526C53.3525 140.483 65.2589 122.246 65.2589 122.246L85.3587 118.9C86.1571 122.625 86.7201 126.395 87.0446 130.19L87.9499 136.862L95.8219 177.448L103.163 219.104Z" fill="white"/>
</g>
<path d="M106.324 106.449L113.54 109.158C113.54 109.158 114.938 108.719 115.508 109.034C116.079 109.349 118.913 112.189 118.834 112.734C118.756 113.278 116.256 115.135 115.482 114.787C114.708 114.439 112.629 111.625 112.53 111.284L103.648 108.844L106.324 106.449Z" fill="#EEC1BB"/>
<path d="M84.7158 86.9204C87.0774 88.1734 95.5858 99.719 96.7141 100.493C98.6821 101.864 110.195 107.643 110.195 107.643L108.883 110.661C108.883 110.661 100.532 107.611 95.5792 105.99C91.3808 104.619 84.0927 96.7473 84.0927 96.7473L84.7158 86.9204Z" fill="#263238"/>
<path opacity="0.1" d="M84.7158 86.9204C87.0774 88.1734 95.5858 99.719 96.7141 100.493C98.6821 101.864 110.195 107.643 110.195 107.643L108.883 110.661C108.883 110.661 100.532 107.611 95.5792 105.99C91.3808 104.619 84.0927 96.7473 84.0927 96.7473L84.7158 86.9204Z" fill="white"/>
<path opacity="0.2" d="M87.4448 100.171C85.4768 98.3017 84.0729 96.747 84.0729 96.747L84.2238 94.4116L84.9585 92.1484C85.9736 93.1967 86.7276 94.4693 87.1595 95.8631C87.5914 97.2568 87.6891 98.7327 87.4448 100.171Z" fill="black"/>
<path opacity="0.2" d="M81.1669 177.081C79.3104 170.685 77.8869 165.004 76.752 159.959C76.8507 153.989 77.2887 148.03 78.064 142.109C78.064 142.109 80.9963 165.135 81.1669 177.081Z" fill="black"/>
<path d="M61.2638 97.6788C62.0576 100.211 62.6677 102.409 63.1597 104.37C64.4123 109.309 65.1423 114.366 65.3376 119.458L85.8442 117.687C86.6642 103.255 86.2968 95.3041 85.9295 91.3353C85.5162 87.1041 84.8667 86.9532 84.8667 86.9532C84.8667 86.9532 80.2747 86.5071 76.2928 86.5333C73.2125 86.6407 70.1435 86.9651 67.1088 87.5042C64.2199 87.9828 61.3697 88.6713 58.5808 89.5641C59.0444 90.8761 59.4708 92.1334 59.86 93.3361C60.352 94.8711 60.844 96.3274 61.2638 97.6788Z" fill="#263238"/>
<path opacity="0.1" d="M61.2638 97.6788C62.0576 100.211 62.6677 102.409 63.1597 104.37C64.4123 109.309 65.1423 114.366 65.3376 119.458L85.8442 117.687C86.6642 103.255 86.2968 95.3041 85.9295 91.3353C85.5162 87.1041 84.8667 86.9532 84.8667 86.9532C84.8667 86.9532 80.2747 86.5071 76.2928 86.5333C73.2125 86.6407 70.1435 86.9651 67.1088 87.5042C64.2199 87.9828 61.3697 88.6713 58.5808 89.5641C59.0444 90.8761 59.4708 92.1334 59.86 93.3361C60.352 94.8711 60.844 96.3274 61.2638 97.6788Z" fill="white"/>
<path d="M76.0566 87.3793C75.8463 87.2724 75.6267 87.1845 75.4006 87.1169C74.9283 86.743 74.3576 85.8443 74.3838 83.6532C74.4007 82.7959 74.4796 81.9408 74.62 81.0948L68.5389 79.96C68.5389 79.96 70.6118 84.0534 68.88 87.0907C68.283 87.3531 67.9288 87.7467 67.9944 88.2256C68.4536 91.7417 76.0042 95.1398 76.0042 95.1398C76.0042 95.1398 79.7302 89.3998 76.0566 87.3793Z" fill="#EEC1BB"/>
<path opacity="0.2" d="M74.6528 81.0948C74.5124 81.9408 74.4334 82.7959 74.4166 83.6532C70.3101 83.6532 68.5717 79.96 68.5717 79.96L74.6528 81.0948Z" fill="black"/>
<path d="M71.937 61.0081C71.937 61.0081 79.0742 60.1028 80.3862 65.8428C80.767 67.4753 80.6763 69.1823 80.1247 70.7653C79.573 72.3482 78.5831 73.7419 77.2702 74.7841L71.937 61.0081Z" fill="#263238"/>
<path d="M71.2875 64.0847C76.5749 63.796 78.4379 66.5315 79.1202 71.9567C79.9795 78.7397 78.7331 83.6597 72.0419 82.5642C62.976 81.0882 62.5102 64.5701 71.2875 64.0847Z" fill="#EEC1BB"/>
<path d="M75.6893 71.8521C76.1538 72.6197 76.7089 73.3289 77.3424 73.9644C77.198 74.1878 76.9949 74.3671 76.7554 74.4828C76.5159 74.5985 76.2492 74.6461 75.9845 74.6204L75.6893 71.8521Z" fill="#D4827D"/>
<path d="M72.4289 71.5961C72.4289 72.0356 72.2518 72.403 71.9632 72.4227C71.6745 72.4424 71.4121 72.1144 71.3793 71.6814C71.3465 71.2485 71.5499 70.8745 71.8385 70.8548C72.1272 70.8352 72.3896 71.1632 72.4289 71.5961Z" fill="#263238"/>
<path d="M71.7205 70.8875L72.6389 70.4414C72.6389 70.4414 72.2321 71.268 71.7205 70.8875Z" fill="#263238"/>
<path d="M77.8147 71.0844C77.8147 71.5174 77.6376 71.8913 77.349 71.911C77.0603 71.9306 76.7979 71.6027 76.7651 71.1697C76.7323 70.7367 76.9357 70.3628 77.2243 70.3431C77.513 70.3234 77.7754 70.6514 77.8147 71.0844Z" fill="#263238"/>
<path d="M77.1062 70.3692L78.0246 69.9297C78.0246 69.9297 77.6179 70.7562 77.1062 70.3692Z" fill="#263238"/>
<path d="M69.923 69.1032C69.8758 69.101 69.8302 69.0851 69.7918 69.0573C69.7439 69.0219 69.7117 68.9692 69.7019 68.9105C69.6921 68.8517 69.7055 68.7914 69.7393 68.7424C70.0414 68.3943 70.4204 68.1212 70.8462 67.9447C71.272 67.7682 71.733 67.6932 72.1928 67.7256C72.2221 67.7281 72.2507 67.7363 72.2768 67.7499C72.3029 67.7635 72.3261 67.7821 72.345 67.8046C72.3639 67.8272 72.3782 67.8533 72.3869 67.8814C72.3957 67.9095 72.3989 67.939 72.3962 67.9683C72.3955 67.9977 72.3886 68.0266 72.3761 68.0531C72.3635 68.0797 72.3455 68.1033 72.3233 68.1225C72.301 68.1417 72.275 68.1559 72.2468 68.1644C72.2187 68.1729 72.1891 68.1754 72.16 68.1717C71.7772 68.1478 71.3939 68.2102 71.0385 68.3544C70.6831 68.4986 70.3646 68.7209 70.1067 69.0048C70.0868 69.0353 70.0596 69.0604 70.0275 69.0776C69.9954 69.0948 69.9595 69.1036 69.923 69.1032Z" fill="#263238"/>
<path d="M78.1362 68.06C78.0944 68.0615 78.0531 68.05 78.0181 68.0272C77.7422 67.8332 77.4254 67.7051 77.0921 67.6528C76.7589 67.6005 76.4181 67.6253 76.096 67.7255C76.0411 67.7477 75.9797 67.7478 75.9247 67.7258C75.8696 67.7038 75.8253 67.6614 75.8008 67.6074C75.7878 67.5808 75.7804 67.5519 75.779 67.5224C75.7776 67.4928 75.7823 67.4633 75.7927 67.4357C75.8032 67.408 75.8192 67.3828 75.8397 67.3615C75.8603 67.3403 75.885 67.3235 75.9123 67.3122C76.3007 67.1839 76.7133 67.1467 77.1183 67.2036C77.5233 67.2605 77.9097 67.4099 78.2477 67.6402C78.2733 67.6551 78.2957 67.6749 78.3136 67.6985C78.3314 67.7222 78.3444 67.7491 78.3517 67.7778C78.359 67.8065 78.3606 67.8364 78.3562 67.8657C78.3519 67.895 78.3418 67.9232 78.3264 67.9485C78.3082 67.9829 78.2807 68.0116 78.2471 68.0313C78.2135 68.051 78.1751 68.0609 78.1362 68.06Z" fill="#263238"/>
<path d="M66.0001 73.315C66.0001 73.315 68.2371 68.8345 67.6795 65.502C67.6795 65.502 77.9197 60.6476 79.0217 71.2551C79.0217 71.2551 79.5269 61.7563 70.4281 62.0711C61.3294 62.386 62.0904 75.6503 67.0038 79.3567C67.0038 79.3305 64.6225 76.0964 66.0001 73.315Z" fill="#263238"/>
<path d="M72.816 60.6146C72.816 60.6146 77.1587 59.5519 78.392 60.6999C79.6253 61.8479 70.848 69.9626 66.256 70.7826C66.256 70.7826 64.6947 75.8666 65.928 78.2479C65.928 78.2479 60.7587 76.4439 60.516 68.5719C60.2733 60.6999 68.5782 57.7282 72.816 60.6146Z" fill="#263238"/>
<path d="M66.912 74.3839C66.8694 74.0822 66.7676 73.7918 66.6126 73.5295C66.4575 73.2672 66.2522 73.0381 66.0085 72.8552C65.7647 72.6724 65.4873 72.5395 65.192 72.4641C64.8968 72.3887 64.5896 72.3723 64.288 72.4159C62.6545 72.6848 62.0576 76.0895 66.1773 76.6733C66.8005 76.752 67.0957 76.1551 66.912 74.3839Z" fill="#EEC1BB"/>
<path d="M69.536 70.9271C69.489 70.9263 69.4433 70.9116 69.4047 70.8847C69.3662 70.8578 69.3365 70.82 69.3195 70.7762C69.3005 70.7196 69.3042 70.6578 69.3299 70.6039C69.3556 70.55 69.4013 70.5083 69.4573 70.4875C75.4269 68.3424 77.7426 61.1133 77.7622 61.0411C77.7804 60.9842 77.82 60.9367 77.8727 60.9085C77.9254 60.8803 77.9869 60.8738 78.0443 60.8903C78.1012 60.9084 78.1488 60.948 78.177 61.0007C78.2051 61.0534 78.2117 61.1149 78.1952 61.1723C78.1952 61.2511 75.7942 68.6901 69.6082 70.9139L69.536 70.9271Z" fill="#263238"/>
<path d="M75.3809 77.3294C74.2403 77.2946 73.1562 76.8253 72.3502 76.0174C72.33 75.9959 72.3142 75.9706 72.3037 75.9429C72.2932 75.9153 72.2883 75.8859 72.2892 75.8563C72.2901 75.8268 72.2969 75.7977 72.309 75.7708C72.3212 75.7438 72.3385 75.7195 72.36 75.6993C72.3816 75.679 72.4069 75.6632 72.4345 75.6528C72.4622 75.6423 72.4916 75.6374 72.5212 75.6383C72.5507 75.6392 72.5798 75.6459 72.6067 75.6581C72.6337 75.6702 72.658 75.6876 72.6782 75.7091C73.4414 76.457 74.4698 76.8721 75.5384 76.8637C75.5918 76.8728 75.6402 76.9005 75.6752 76.9419C75.7101 76.9834 75.7293 77.0358 75.7293 77.09C75.7293 77.1442 75.7101 77.1966 75.6752 77.238C75.6402 77.2795 75.5918 77.3072 75.5384 77.3163L75.3809 77.3294Z" fill="#263238"/>
<path d="M79.376 86.5005C79.376 86.5005 77.3161 100.001 80.1697 105.885C81.8588 109.389 84.1731 112.554 86.9987 115.227C86.9987 115.227 87.4251 89.6427 84.8798 86.9203C83.0544 86.6787 81.2169 86.5385 79.376 86.5005Z" fill="#263238"/>
<path opacity="0.1" d="M79.376 86.5005C79.376 86.5005 77.3161 100.001 80.1697 105.885C81.8588 109.389 84.1731 112.554 86.9987 115.227C86.9987 115.227 87.4251 89.6427 84.8798 86.9203C83.0544 86.6787 81.2169 86.5385 79.376 86.5005Z" fill="white"/>
<path d="M65.4622 87.5498C65.4622 87.5498 72.5404 95.225 72.816 102.336C73.0915 109.447 64.1568 116.184 64.1568 116.184L62.0248 102.992L58.6332 89.5572C58.6332 89.5572 62.6414 87.5826 65.4622 87.5498Z" fill="#263238"/>
<path opacity="0.1" d="M72.816 102.336C73.0784 109.434 64.1568 116.185 64.1568 116.185L62.5496 106.128L62.0248 102.992L60.4176 96.6292L58.6332 89.5575C58.6332 89.5575 62.6414 87.5895 65.4622 87.5895C65.4622 87.5501 72.5404 95.2253 72.816 102.336Z" fill="white"/>
<path opacity="0.2" d="M62.5299 106.121L62.0248 102.992L60.4176 96.6289L61.5853 95.1201C61.5853 95.1201 64.4717 102.684 62.5299 106.121Z" fill="black"/>
<path d="M65.3376 119.425L85.8442 117.654V121.17L64.8522 123.02L65.3376 119.425Z" fill="#263238"/>
<path d="M79.7171 118.27C79.5873 118.151 79.4338 118.06 79.2665 118.003C79.0993 117.947 78.922 117.926 78.7462 117.942L76.1878 118.159C75.8688 118.185 75.5715 118.331 75.3551 118.567C75.1386 118.803 75.0191 119.111 75.0201 119.432V121.065C75.0201 121.403 75.1542 121.726 75.3929 121.965C75.6316 122.204 75.9553 122.338 76.2928 122.338H76.4043L78.9693 122.115C79.2877 122.088 79.5843 121.942 79.7997 121.706C80.015 121.47 80.1331 121.161 80.1304 120.842V119.215C80.1289 119.038 80.0915 118.863 80.0204 118.7C79.9494 118.538 79.8462 118.392 79.7171 118.27ZM78.9102 121.452L76.3518 121.675C76.2664 121.685 76.1798 121.676 76.0983 121.649C76.0167 121.621 75.942 121.577 75.8795 121.518C75.8151 121.461 75.7637 121.392 75.7286 121.313C75.6935 121.235 75.6756 121.151 75.6761 121.065V119.432C75.674 119.276 75.7312 119.126 75.8361 119.011C75.9409 118.897 76.0855 118.827 76.2403 118.815L78.8053 118.592H78.8577C79.0112 118.593 79.1588 118.651 79.271 118.756C79.3354 118.812 79.3869 118.882 79.422 118.96C79.4571 119.038 79.4749 119.123 79.4744 119.209V119.458C79.4397 119.451 79.4041 119.451 79.3694 119.458L78.6544 119.51C78.5401 119.52 78.4343 119.575 78.3595 119.662C78.2847 119.749 78.2469 119.862 78.2542 119.976C78.2584 120.033 78.2737 120.089 78.2994 120.139C78.3251 120.19 78.3606 120.236 78.4039 120.273C78.4472 120.31 78.4974 120.338 78.5516 120.356C78.6059 120.374 78.6631 120.381 78.72 120.376L79.435 120.324H79.4744V120.855C79.4701 121.007 79.4102 121.151 79.3062 121.261C79.2021 121.371 79.0612 121.439 78.9102 121.452Z" fill="white"/>
<path d="M65.8427 115.679L67.8697 99.3057H78.0377L76.155 114.918L65.8427 115.679Z" fill="#263238"/>
<path opacity="0.6" d="M65.8427 115.679L67.8697 99.3057H78.0377L76.155 114.918L65.8427 115.679Z" fill="white"/>
<path d="M56.908 113.304L63.9928 108.837C63.9928 108.837 64.5372 107.341 65.1932 107.04C65.8492 106.738 70.1592 106.167 70.579 106.594C70.9988 107.02 70.966 110.398 70.1526 110.838C69.3392 111.277 65.5606 111.232 65.1801 111.087L57.2425 117.175L56.908 113.304Z" fill="#EEC1BB"/>
<path d="M58.6333 89.5312C58.6333 89.5312 63.2646 96.2618 62.5693 101.995L56.4488 112.176L60.575 110.064L62.4512 113.593C62.4512 113.593 57.728 120.934 51.6469 119.209C45.5657 117.483 58.6333 89.5312 58.6333 89.5312Z" fill="#263238"/>
<path opacity="0.1" d="M58.6333 89.5312C58.6333 89.5312 63.2646 96.2618 62.5693 101.995L56.4488 112.176L60.575 110.064L62.4512 113.593C62.4512 113.593 57.728 120.934 51.6469 119.209C45.5657 117.483 58.6333 89.5312 58.6333 89.5312Z" fill="white"/>
<path d="M60.1486 109.893L62.4971 114.262L63.0285 113.016L61.1523 109.46L60.1486 109.893Z" fill="#263238"/>
<path d="M67.8698 99.3057C67.8698 99.3057 68.2437 99.3057 68.5258 100.342C68.8078 101.379 68.0075 110.786 69.4966 113.318L79.1005 112.97C79.1005 112.97 77.7885 110.917 78.064 106.633C78.3395 102.35 78.5166 100.211 78.064 99.3057H67.8698Z" fill="#263238"/>
<path opacity="0.7" d="M67.8698 99.3057C67.8698 99.3057 68.2437 99.3057 68.5258 100.342C68.8078 101.379 68.0075 110.786 69.4966 113.318L79.1005 112.97C79.1005 112.97 77.7885 110.917 78.064 106.633C78.3395 102.35 78.5166 100.211 78.064 99.3057H67.8698Z" fill="white"/>
<path d="M108.069 111.074L110.201 107.007L110.936 107.873L109.506 111.074H108.069Z" fill="#263238"/>
<path d="M95.0741 145.592H89.9114V238.705H95.0741V145.592Z" fill="#263238"/>
<path d="M134.434 145.592H129.271V238.705H134.434V145.592Z" fill="#263238"/>
<path d="M180.354 145.592H175.191V238.705H180.354V145.592Z" fill="#263238"/>
<path d="M219.714 145.592H214.551V238.705H219.714V145.592Z" fill="#263238"/>
<path d="M222.496 143.329H87.1365V151.608H222.496V143.329Z" fill="#263238"/>
<path opacity="0.1" d="M95.0807 179.685V238.705H89.9114V178.498L95.0807 179.685Z" fill="white"/>
<path opacity="0.2" d="M134.441 188.751V238.705H129.271V187.563L134.441 188.751Z" fill="white"/>
<path opacity="0.1" d="M180.361 199.326V238.705H175.191V198.138L180.361 199.326Z" fill="white"/>
<path opacity="0.2" d="M219.721 208.391V238.705H214.551V207.197L219.721 208.391Z" fill="white"/>
<path opacity="0.2" d="M222.496 143.329H87.1365V151.608H222.496V143.329Z" fill="white"/>
<path opacity="0.2" d="M222.496 143.329H131.856V151.608H222.496V143.329Z" fill="white"/>
<path d="M219.721 143.329H135.648V186.579H219.721V143.329Z" fill="#263238"/>
<g opacity="0.6">
<path d="M147.83 173.84C147.83 170.973 150.027 168.92 152.992 168.92C153.733 168.887 154.472 169.021 155.153 169.313C155.835 169.605 156.441 170.047 156.928 170.606L155.472 171.872C155.181 171.52 154.815 171.237 154.401 171.044C153.987 170.851 153.535 170.753 153.078 170.757C152.27 170.757 151.496 171.077 150.925 171.648C150.354 172.219 150.034 172.993 150.034 173.801C150.034 174.608 150.354 175.382 150.925 175.953C151.496 176.524 152.27 176.844 153.078 176.844C153.536 176.849 153.989 176.75 154.404 176.554C154.818 176.359 155.184 176.072 155.472 175.716L156.882 177.028C156.399 177.592 155.793 178.039 155.111 178.333C154.429 178.627 153.688 178.762 152.946 178.727C150.027 178.727 147.83 176.674 147.83 173.84Z" fill="white"/>
<path d="M167.103 169.051V178.563H164.899V174.66H160.582V178.563H158.378V169.051H160.582V172.804H164.899V169.051H167.103Z" fill="white"/>
<path d="M175.611 176.523H171.216L170.376 178.563H168.12L172.357 169.051H174.496L178.753 178.563H176.464L175.611 176.523ZM174.922 174.85L173.414 171.216L171.905 174.85H174.922Z" fill="white"/>
<path d="M185.812 178.563L183.975 175.939H181.955V178.563H179.744V169.051H183.864C186.402 169.051 187.99 170.363 187.99 172.502C188.015 173.145 187.839 173.78 187.486 174.319C187.133 174.857 186.622 175.272 186.022 175.506L188.154 178.563H185.812ZM183.746 170.849H181.955V174.161H183.746C185.058 174.161 185.766 173.538 185.766 172.502C185.766 171.465 185.09 170.849 183.746 170.849Z" fill="white"/>
<path d="M189.728 169.051H191.932V178.563H189.728V169.051Z" fill="white"/>
<path d="M196.144 170.849H193.1V169.051H201.392V170.849H198.348V178.563H196.144V170.849Z" fill="white"/>
<path d="M206.961 175.191V178.563H204.764V175.152L201.084 169.038H203.419L205.958 173.263L208.496 169.038H210.661L206.961 175.191Z" fill="white"/>
</g>
<g opacity="0.6">
<path d="M166.453 155.341L166.978 154.179C167.629 154.628 168.399 154.87 169.189 154.875C170.101 154.875 170.501 154.567 170.501 154.16C170.501 152.907 166.617 153.766 166.617 151.28C166.617 150.145 167.529 149.2 169.432 149.2C170.245 149.186 171.047 149.39 171.754 149.791L171.275 150.965C170.713 150.636 170.076 150.455 169.425 150.44C168.507 150.44 168.152 150.788 168.152 151.208C168.152 152.441 172.043 151.588 172.043 154.042C172.043 155.157 171.111 156.115 169.202 156.115C168.228 156.143 167.269 155.873 166.453 155.341Z" fill="white"/>
<path d="M177.474 154.566H174.371L173.781 156.003H172.193L175.152 149.318H176.68L179.672 156.003H178.045L177.474 154.566ZM176.989 153.392L175.926 150.834L174.87 153.392H176.989Z" fill="white"/>
<path d="M180.4 149.318H181.948V154.737H185.3V156.003H180.4V149.318Z" fill="white"/>
<path d="M191.329 154.757V156.003H186.153V149.318H191.204V150.558H187.688V152.008H190.791V153.208H187.688V154.757H191.329Z" fill="white"/>
</g>
<g opacity="0.3">
<path d="M174.299 161.015H175.611V162.156H174.332V166.033H172.843V162.156H172.049V161.015H172.843V160.785C172.824 160.525 172.863 160.263 172.956 160.019C173.049 159.775 173.195 159.554 173.382 159.373C173.57 159.191 173.795 159.052 174.042 158.966C174.288 158.881 174.551 158.85 174.811 158.876C175.208 158.86 175.601 158.955 175.946 159.152L175.552 160.228C175.373 160.11 175.163 160.048 174.949 160.051C174.509 160.051 174.293 160.287 174.293 160.792L174.299 161.015Z" fill="white"/>
<path d="M175.913 163.468C175.872 162.902 176.003 162.337 176.287 161.846C176.572 161.355 176.998 160.961 177.51 160.716C178.022 160.47 178.595 160.384 179.157 160.469C179.718 160.554 180.24 160.806 180.656 161.192C181.072 161.579 181.363 162.081 181.489 162.634C181.616 163.187 181.573 163.766 181.366 164.295C181.159 164.823 180.798 165.277 180.33 165.598C179.862 165.919 179.308 166.091 178.74 166.092C178.379 166.12 178.016 166.073 177.674 165.954C177.331 165.835 177.018 165.646 176.752 165.399C176.486 165.153 176.275 164.854 176.13 164.522C175.986 164.189 175.912 163.831 175.913 163.468ZM180.046 163.468C180.024 163.215 179.929 162.973 179.773 162.772C179.616 162.572 179.404 162.421 179.163 162.338C178.923 162.256 178.663 162.245 178.416 162.308C178.169 162.37 177.946 162.503 177.774 162.691C177.601 162.878 177.487 163.111 177.445 163.362C177.402 163.613 177.434 163.871 177.536 164.104C177.638 164.338 177.805 164.536 178.018 164.676C178.23 164.816 178.479 164.891 178.734 164.892C178.916 164.892 179.096 164.855 179.263 164.782C179.43 164.71 179.58 164.603 179.703 164.469C179.827 164.335 179.921 164.177 179.98 164.005C180.039 163.832 180.061 163.65 180.046 163.468Z" fill="white"/>
<path d="M185.74 160.825V162.196H185.405C185.216 162.179 185.025 162.205 184.846 162.273C184.668 162.34 184.508 162.447 184.377 162.585C184.246 162.723 184.147 162.889 184.089 163.07C184.031 163.252 184.014 163.444 184.041 163.632V166.053H182.545V160.917H183.969V161.573C184.182 161.315 184.454 161.112 184.763 160.982C185.071 160.851 185.406 160.798 185.74 160.825Z" fill="white"/>
</g>
<path d="M143.959 130.577V131.154C143.938 131.586 143.758 131.995 143.454 132.304C143.151 132.612 142.744 132.798 142.313 132.827C142.313 132.827 143.303 132.951 143.329 133.299C143.359 133.55 143.318 133.804 143.211 134.034L122.724 133.601C122.439 133.605 122.155 133.553 121.89 133.447C121.624 133.342 121.382 133.185 121.177 132.986C120.972 132.786 120.809 132.549 120.696 132.286C120.584 132.024 120.524 131.741 120.52 131.456V130.885C120.527 130.541 120.639 130.207 120.841 129.928C121.042 129.649 121.324 129.438 121.649 129.324C121.284 129.33 120.928 129.442 120.625 129.645C120.507 129.743 120.383 129.271 120.409 128.989C120.409 128.891 120.409 128.812 120.494 128.805C134.152 127.749 136.533 127.723 141.808 128.523C143.12 128.727 143.684 129.219 143.907 130.176C143.943 130.307 143.961 130.441 143.959 130.577Z" fill="#263238"/>
<path opacity="0.1" d="M143.959 130.576V131.154C142.247 131.488 137.819 131.534 136.402 131.613C134.677 131.711 134.395 131.101 134.395 131.101C134.24 130.601 133.978 130.14 133.627 129.751C133.276 129.363 132.844 129.055 132.361 128.851C130.675 128.064 120.704 128.982 120.396 129.009C120.396 128.91 120.396 128.832 120.481 128.825C134.139 127.769 136.52 127.743 141.794 128.543C143.106 128.746 143.671 129.238 143.894 130.196C143.933 130.319 143.955 130.447 143.959 130.576Z" fill="white"/>
<path opacity="0.1" d="M120.829 131.088C120.829 131.088 120.829 129.357 121.806 129.324C122.784 129.291 130.518 129.068 131.331 129.481C131.64 129.617 131.916 129.816 132.142 130.066C132.368 130.316 132.539 130.611 132.643 130.931C132.801 131.43 131.987 132.368 130.308 132.584C130.308 132.584 131.338 131.646 130.754 131.272C130.17 130.898 121.091 130.354 120.829 131.088Z" fill="white"/>
<path opacity="0.1" d="M143.959 130.577V131.154C143.938 131.586 143.758 131.995 143.454 132.304C143.151 132.612 142.744 132.798 142.313 132.827C142.313 132.827 143.303 132.951 143.329 133.299C143.359 133.55 143.318 133.804 143.211 134.034L122.724 133.601C122.439 133.605 122.155 133.553 121.89 133.447C121.624 133.342 121.382 133.185 121.177 132.986C120.972 132.786 120.809 132.549 120.696 132.286C120.584 132.024 120.524 131.741 120.52 131.456V130.885C120.527 130.541 120.639 130.207 120.841 129.928C121.042 129.649 121.324 129.438 121.649 129.324C121.284 129.33 120.928 129.442 120.625 129.645C120.507 129.743 120.383 129.271 120.409 128.989C120.409 128.891 120.409 128.812 120.494 128.805C134.152 127.749 136.533 127.723 141.808 128.523C143.12 128.727 143.684 129.219 143.907 130.176C143.943 130.307 143.961 130.441 143.959 130.577Z" fill="white"/>
<path d="M143.736 135.418V136.074C143.707 136.56 143.5 137.017 143.153 137.359C142.807 137.701 142.346 137.902 141.86 137.924C142.373 137.925 142.886 137.977 143.388 138.081C143.482 138.108 143.566 138.162 143.628 138.237C143.69 138.312 143.728 138.404 143.736 138.501H119.877C119.228 138.501 118.605 138.243 118.145 137.785C117.685 137.326 117.426 136.704 117.424 136.054V135.398C117.439 135.008 117.573 134.632 117.807 134.32C118.042 134.009 118.366 133.776 118.736 133.653C118.325 133.657 117.924 133.78 117.581 134.007C117.45 134.119 117.319 133.588 117.352 133.292C117.352 133.181 117.352 133.096 117.45 133.089C132.781 132.105 135.457 132.112 141.355 133.089C142.837 133.332 143.454 133.896 143.69 134.965C143.723 135.114 143.739 135.266 143.736 135.418Z" fill="#263238"/>
<path opacity="0.2" d="M143.736 135.418V136.074C143.707 136.56 143.5 137.017 143.153 137.359C142.807 137.701 142.346 137.902 141.86 137.924C142.373 137.925 142.886 137.977 143.388 138.081C143.482 138.108 143.566 138.162 143.628 138.237C143.69 138.312 143.728 138.404 143.736 138.501H119.877C119.228 138.501 118.605 138.243 118.145 137.785C117.685 137.326 117.426 136.704 117.424 136.054V135.398C117.439 135.008 117.573 134.632 117.807 134.32C118.042 134.009 118.366 133.776 118.736 133.653C118.325 133.657 117.924 133.78 117.581 134.007C117.45 134.119 117.319 133.588 117.352 133.292C117.352 133.181 117.352 133.096 117.45 133.089C132.781 132.105 135.457 132.112 141.355 133.089C142.837 133.332 143.454 133.896 143.69 134.965C143.723 135.114 143.739 135.266 143.736 135.418Z" fill="white"/>
<path opacity="0.1" d="M143.736 135.418V136.074C141.808 136.422 136.842 136.409 135.254 136.474C133.286 136.566 133.011 135.864 133.011 135.864C132.844 135.301 132.556 134.782 132.167 134.343C131.778 133.903 131.298 133.554 130.76 133.319C128.884 132.407 117.686 133.319 117.339 133.319C117.339 133.207 117.339 133.122 117.437 133.115C132.768 132.131 135.444 132.138 141.342 133.115C142.824 133.358 143.441 133.922 143.677 134.992C143.713 135.131 143.733 135.274 143.736 135.418Z" fill="white"/>
<path opacity="0.1" d="M117.778 135.648C117.778 135.648 117.778 133.68 118.907 133.68C120.035 133.68 128.681 133.529 129.586 134.001C129.929 134.157 130.234 134.385 130.48 134.669C130.727 134.953 130.91 135.287 131.016 135.648C131.187 136.212 130.282 137.248 128.392 137.465C128.392 137.465 129.56 136.428 128.911 135.995C128.261 135.562 118.08 134.821 117.778 135.648Z" fill="white"/>
<path d="M191.447 125.434H154.816V143.329H191.447V125.434Z" fill="#263238"/>
<path opacity="0.6" d="M191.447 125.434H154.816V143.329H191.447V125.434Z" fill="white"/>
<path opacity="0.3" d="M191.44 125.434H165.489V143.329H191.44V125.434Z" fill="white"/>
<path d="M187.892 131.869H168.861V137.708H187.892V131.869Z" fill="white"/>
<path d="M171.085 133.719H172.082C172.25 133.707 172.419 133.729 172.578 133.785C172.737 133.841 172.883 133.929 173.007 134.044C173.13 134.159 173.229 134.298 173.296 134.452C173.363 134.607 173.398 134.774 173.398 134.943C173.398 135.111 173.363 135.278 173.296 135.433C173.229 135.587 173.13 135.726 173.007 135.841C172.883 135.956 172.737 136.044 172.578 136.1C172.419 136.156 172.25 136.178 172.082 136.166H171.085V133.719ZM172.069 135.943C172.207 135.954 172.346 135.937 172.477 135.891C172.608 135.846 172.728 135.774 172.83 135.68C172.932 135.586 173.014 135.472 173.069 135.345C173.125 135.218 173.154 135.081 173.154 134.943C173.154 134.804 173.125 134.667 173.069 134.54C173.014 134.413 172.932 134.299 172.83 134.205C172.728 134.111 172.608 134.039 172.477 133.994C172.346 133.948 172.207 133.931 172.069 133.942H171.347V135.943H172.069Z" fill="#263238"/>
<path d="M173.755 134.946C173.74 134.684 173.805 134.423 173.94 134.198C174.075 133.973 174.275 133.794 174.513 133.683C174.751 133.573 175.017 133.536 175.276 133.579C175.535 133.621 175.775 133.74 175.966 133.92C176.157 134.1 176.289 134.334 176.346 134.59C176.402 134.846 176.381 135.114 176.284 135.357C176.187 135.601 176.02 135.811 175.803 135.958C175.586 136.106 175.329 136.185 175.067 136.186C174.898 136.196 174.728 136.172 174.569 136.115C174.41 136.057 174.264 135.967 174.141 135.851C174.018 135.735 173.92 135.594 173.854 135.439C173.787 135.283 173.753 135.115 173.755 134.946ZM176.064 134.946C176.068 134.741 176.011 134.54 175.899 134.368C175.788 134.195 175.629 134.06 175.44 133.98C175.252 133.899 175.044 133.876 174.843 133.914C174.642 133.952 174.456 134.049 174.311 134.193C174.165 134.337 174.065 134.521 174.025 134.722C173.984 134.923 174.004 135.131 174.083 135.32C174.161 135.509 174.294 135.671 174.465 135.784C174.635 135.897 174.836 135.957 175.04 135.956C175.175 135.959 175.308 135.936 175.433 135.887C175.558 135.837 175.672 135.763 175.767 135.669C175.863 135.574 175.938 135.462 175.989 135.337C176.04 135.213 176.066 135.08 176.064 134.946Z" fill="#263238"/>
<path d="M178.944 133.719V136.166H178.727L177.159 134.198V136.166H176.897V133.719H177.12L178.694 135.687V133.719H178.944Z" fill="#263238"/>
<path d="M181.272 135.516H179.908L179.613 136.172H179.344L180.466 133.726H180.721L181.837 136.172H181.568L181.272 135.516ZM181.174 135.307L180.59 133.995L180.006 135.307H181.174Z" fill="#263238"/>
<path d="M182.591 133.942H181.712V133.719H183.68V133.942H182.821V136.166H182.558L182.591 133.942Z" fill="#263238"/>
<path d="M185.851 135.943V136.166H184.12V133.719H185.799V133.942H184.382V134.814H185.648V135.037H184.382V135.943H185.851Z" fill="#263238"/>
<path d="M165.496 125.434L162.813 129.671H152.428L154.816 125.434H165.496Z" fill="#263238"/>
<path d="M165.496 125.434L167.831 129.671H193.743L191.44 125.434H165.496Z" fill="#263238"/>
<path opacity="0.4" d="M165.496 125.434L162.813 129.671H152.428L154.816 125.434H165.496Z" fill="white"/>
<path opacity="0.6" d="M165.496 125.434L167.831 129.671H193.743L191.44 125.434H165.496Z" fill="white"/>
<path d="M145.166 140.253V140.909C145.138 141.394 144.93 141.852 144.583 142.194C144.237 142.536 143.776 142.737 143.29 142.759C143.804 142.759 144.316 142.812 144.819 142.916C144.912 142.942 144.996 142.997 145.058 143.072C145.12 143.147 145.158 143.239 145.166 143.336H121.308C120.987 143.338 120.669 143.275 120.373 143.152C120.076 143.03 119.808 142.849 119.582 142.621C119.355 142.394 119.175 142.126 119.053 141.829C118.93 141.533 118.867 141.216 118.867 140.895V140.239C118.882 139.85 119.015 139.475 119.25 139.164C119.484 138.853 119.809 138.622 120.179 138.501C119.769 138.505 119.369 138.625 119.025 138.849C118.893 138.96 118.762 138.429 118.795 138.134C118.795 138.022 118.795 137.937 118.893 137.93C134.224 136.946 136.901 136.953 142.798 137.93C144.281 138.18 144.897 138.737 145.133 139.813C145.162 139.958 145.173 140.105 145.166 140.253Z" fill="#263238"/>
<path opacity="0.1" d="M145.166 140.252V140.908C143.238 141.256 138.272 141.243 136.684 141.315C134.716 141.4 134.441 140.705 134.441 140.705C134.273 140.142 133.985 139.622 133.597 139.181C133.208 138.741 132.728 138.39 132.191 138.153C130.314 137.248 119.116 138.153 118.769 138.153C118.769 138.042 118.769 137.956 118.867 137.95C134.198 136.966 136.874 136.972 142.772 137.95C144.254 138.199 144.871 138.757 145.107 139.833C145.143 139.97 145.163 140.111 145.166 140.252Z" fill="white"/>
<path opacity="0.1" d="M119.215 140.482C119.215 140.482 119.215 138.514 120.337 138.514C121.458 138.514 130.111 138.357 131.023 138.835C131.365 138.991 131.669 139.217 131.916 139.5C132.163 139.783 132.346 140.116 132.453 140.475C132.617 141.04 131.712 142.076 129.829 142.293C129.829 142.293 130.997 141.256 130.347 140.823C129.698 140.39 119.517 139.662 119.215 140.482Z" fill="white"/>
<path d="M256.378 110.005C256.345 110.005 256.313 109.995 256.286 109.976C256.259 109.958 256.238 109.931 256.227 109.9C256.186 109.723 256.189 109.539 256.236 109.364C256.283 109.189 256.372 109.028 256.496 108.896C257.952 106.738 265.509 102.52 272.981 102.375C280.151 102.238 285.629 104.251 289.263 108.378C289.722 108.896 289.88 109.296 289.755 109.604C289.697 109.714 289.611 109.807 289.507 109.875C289.402 109.943 289.282 109.983 289.158 109.991L256.378 110.005ZM256.509 109.677H289.119C289.119 109.677 289.368 109.677 289.427 109.493C289.486 109.309 289.48 109.165 288.994 108.607C285.373 104.501 280.119 102.566 272.962 102.703C265.588 102.848 258.162 106.974 256.739 109.08C256.599 109.249 256.514 109.457 256.496 109.677H256.509Z" fill="#263238"/>
<path d="M272.962 102.716C272.918 102.716 272.876 102.699 272.846 102.668C272.815 102.638 272.798 102.596 272.798 102.552V99.2329C272.266 98.859 269.222 96.6089 269.964 94.3785C270.429 92.9944 272.299 92.4499 273.834 92.7123C275.369 92.9747 276.202 93.9062 276.176 95.1592C276.175 95.1807 276.17 95.2019 276.161 95.2215C276.152 95.241 276.139 95.2586 276.123 95.2733C276.108 95.2879 276.089 95.2992 276.069 95.3067C276.048 95.3141 276.027 95.3175 276.005 95.3166C275.963 95.3149 275.923 95.2969 275.894 95.2663C275.864 95.2357 275.848 95.195 275.848 95.1526C275.848 94.0571 275.094 93.2699 273.775 93.0403C272.456 92.8107 270.679 93.283 270.279 94.4835C269.564 96.6221 273.021 98.9837 273.053 99.0099C273.076 99.0251 273.094 99.0456 273.107 99.0697C273.119 99.0937 273.126 99.1205 273.126 99.1477V102.552C273.126 102.596 273.108 102.638 273.078 102.668C273.047 102.699 273.005 102.716 272.962 102.716Z" fill="#263238"/>
<path d="M259.336 108.824C259.336 108.824 258.123 129.921 260.202 161.586H266.854C266.854 161.586 269.012 128.871 272.975 119.53C272.975 119.53 279.922 152.756 283.215 160.805H287.538C287.538 160.805 286.482 133.024 286.659 108.699C286.672 108.699 271.794 108.306 259.336 108.824Z" fill="#263238"/>
<path opacity="0.2" d="M259.336 108.824C259.336 108.824 258.123 129.921 260.202 161.586H266.854C266.854 161.586 269.012 128.871 272.975 119.53C272.975 119.53 279.922 152.756 283.215 160.805H287.538C287.538 160.805 286.482 133.024 286.659 108.699C286.672 108.699 271.794 108.306 259.336 108.824Z" fill="black"/>
<path d="M258.982 160.766H268.16V162.295L259.684 163.403L258.982 160.766Z" fill="#263238"/>
<path d="M281.299 158.713H288.404V160.701L281.837 162.137L281.299 158.713Z" fill="#263238"/>
<path d="M276.012 111.559L283.556 111.31V118.172L279.784 120.625L275.428 118.172L276.012 111.559Z" fill="#263238"/>
<path d="M262.105 111.56H269.472V115.968L265.785 119.425L262.105 117.345V111.56Z" fill="#263238"/>
<path d="M266.854 102.887C266.895 102.173 266.895 101.457 266.854 100.742C266.782 99.791 271.577 94.5758 272.358 94.8382C273.139 95.1006 274.825 98.4527 274.326 99.5745C273.828 100.696 270.042 104.068 269.137 104.324C268.232 104.58 266.854 102.887 266.854 102.887Z" fill="#EBB376"/>
<path d="M249.936 95.9795C249.936 95.9795 252.055 106.738 254.397 108.909C256.739 111.081 267.386 100.053 267.386 100.053L269.485 102.29C269.485 102.29 258.989 116.145 253.354 113.783C247.719 111.422 243.238 98.8528 243.238 98.8528L249.936 95.9795Z" fill="#EBB376"/>
<path d="M248.834 91.5645L252.416 99.8891L244.406 105.367L238.869 99.8891L248.834 91.5645Z" fill="#263238"/>
<path opacity="0.2" d="M252.416 99.8891L247.673 103.136L244.406 105.367L241.723 102.71L238.869 99.8891L248.834 91.5645L252.416 99.8891Z" fill="white"/>
<path opacity="0.2" d="M247.673 103.136L244.393 105.367L241.71 102.71C244.242 99.1216 247.109 95.7432 247.109 95.7432C247.864 98.1311 248.057 100.661 247.673 103.136Z" fill="black"/>
<path d="M210.064 94.2476H177.33C177.203 94.2416 177.079 94.2028 176.971 94.135C176.863 94.0672 176.774 93.9727 176.713 93.8606C176.589 93.5522 176.753 93.1521 177.205 92.6338C180.84 88.5076 186.311 86.4806 193.487 86.6249C200.966 86.7758 208.523 90.9938 209.979 93.1521C210.095 93.286 210.178 93.4457 210.22 93.618C210.263 93.7903 210.263 93.9701 210.222 94.1426C210.21 94.1742 210.188 94.2013 210.16 94.2201C210.132 94.2389 210.098 94.2485 210.064 94.2476ZM177.455 92.8503C176.963 93.4079 176.989 93.6572 177.022 93.7359C177.054 93.8146 177.337 93.9196 177.343 93.9196H209.92C209.903 93.7065 209.823 93.5032 209.69 93.3358C208.267 91.23 200.841 87.0972 193.468 86.9529C186.297 86.8086 181.056 88.7438 177.441 92.8569L177.455 92.8503Z" fill="#263238"/>
<path d="M193.52 86.9526C193.477 86.9526 193.435 86.9353 193.404 86.9046C193.373 86.8738 193.356 86.8321 193.356 86.7886V83.384C193.356 83.3577 193.362 83.3318 193.375 83.3088C193.387 83.2858 193.406 83.2665 193.428 83.2528C193.461 83.2528 196.918 80.8649 196.203 78.7198C195.803 77.5259 194.071 77.0405 192.7 77.2766C191.329 77.5128 190.607 78.3 190.634 79.3889C190.634 79.4331 190.617 79.4755 190.586 79.5073C190.555 79.5391 190.514 79.5578 190.47 79.5595C190.427 79.5579 190.386 79.5401 190.355 79.5097C190.325 79.4793 190.307 79.4385 190.306 79.3955C190.273 78.1491 191.172 77.211 192.648 76.9552C194.124 76.6993 196.052 77.2373 196.511 78.6214C197.253 80.8387 194.209 83.1019 193.684 83.4758V86.7886C193.684 86.8321 193.667 86.8738 193.636 86.9046C193.605 86.9353 193.564 86.9526 193.52 86.9526Z" fill="#263238"/>
<path d="M188.226 86.8346C188.226 86.8346 195.094 92.2794 199.319 86.8346C199.319 86.8346 204.567 88.4024 206.535 89.8194L208.503 91.2429C208.503 91.2429 201.162 97.5996 201.326 99.4167C201.49 101.234 202.146 114.728 202.146 114.728H180.702C180.702 114.728 182.781 98.8591 182.67 98.0981C182.558 97.3372 177.481 91.0396 177.481 91.0396C177.481 91.0396 185.241 86.3098 188.226 86.8346Z" fill="#263238"/>
<path opacity="0.2" d="M192.287 90.436C193.666 90.5482 195.053 90.5482 196.433 90.436V92.0432H192.287V90.436Z" fill="black"/>
<path d="M216.762 89.872C216.762 89.872 209.507 98.0917 206.397 98.7805C203.288 99.4693 199.647 84.624 199.647 84.624L196.708 85.5031C196.708 85.5031 198.781 102.762 204.836 103.556C210.891 104.35 221.072 95.776 221.072 95.776L216.762 89.872Z" fill="#EBB376"/>
<path d="M228.977 225.362L225.474 225.421C221.912 208.7 219.399 188.029 217.831 172.404C217.589 169.957 217.359 167.648 217.175 165.483C217.084 164.453 216.992 163.469 216.906 162.518C216.487 157.827 216.198 154.108 216.027 151.805C215.903 150.132 215.837 149.181 215.837 149.181H228.485L228.367 152.402L227.973 163.042L227.934 164.263L227.671 171.288L227.225 183.254C231.568 200.12 228.977 225.362 228.977 225.362Z" fill="#EBB376"/>
<path d="M257.362 224.47L253.918 225.126C247.017 207.873 240.536 185.766 236.317 170.356C235.661 167.962 235.065 165.725 234.527 163.698C234.527 163.593 234.481 163.495 234.448 163.396C233.385 159.375 232.572 156.18 232.06 154.127L231.45 151.66L243.914 149.509L244.616 154.757L245.659 162.465L245.862 163.974L246.571 169.222L248.467 183.306C255.624 199.148 257.362 224.47 257.362 224.47Z" fill="#EBB376"/>
<path opacity="0.2" d="M245.672 162.452L234.52 163.692C234.52 163.587 234.474 163.488 234.441 163.39C233.379 159.369 232.565 156.174 232.053 154.121L244.622 154.744L245.672 162.452Z" fill="black"/>
<path opacity="0.2" d="M228.367 152.428L227.973 163.069L227.934 164.289L217.169 165.483C217.077 164.453 216.985 163.469 216.9 162.518C216.48 157.827 216.191 154.108 216.021 151.805L228.367 152.428Z" fill="black"/>
<path d="M218.632 236.987C219.285 236.458 220.03 236.053 220.829 235.793C220.829 235.793 223.211 233.425 224.359 226.307L227.481 225.494C228.011 225.365 228.568 225.403 229.076 225.601C229.584 225.799 230.019 226.149 230.322 226.602C230.407 226.728 230.473 226.865 230.518 227.009C230.675 227.774 230.787 228.547 230.853 229.325C231.029 231.928 231.049 234.539 230.912 237.144H230.348L230.125 232.237C230.046 230.571 228.767 232.526 228.4 234.317C228.032 236.108 227.265 238.023 223.611 238.115C219.327 238.194 217.556 238.03 218.632 236.987Z" fill="#263238"/>
<path d="M230.427 226.661C230.63 224.995 230.696 222.069 230.696 222.069L223.762 222.837C223.762 222.837 224.601 226.117 223.906 228.61C227.402 227.717 230.427 226.661 230.427 226.661Z" fill="#263238"/>
<path d="M246.853 236.986C247.504 236.458 248.247 236.053 249.044 235.792C249.044 235.792 251.432 233.424 252.58 226.307L255.696 225.493C256.226 225.359 256.784 225.394 257.293 225.593C257.803 225.791 258.237 226.144 258.536 226.602C258.623 226.727 258.692 226.864 258.74 227.009C258.897 227.773 259.007 228.546 259.068 229.324C259.382 231.738 259.113 237.144 259.113 237.144H258.549L258.326 232.237C258.241 230.571 256.968 232.526 256.601 234.316C256.234 236.107 255.46 238.023 251.806 238.115C247.548 238.193 245.777 238.029 246.853 236.986Z" fill="#263238"/>
<path d="M258.648 226.661C258.851 224.995 258.917 222.069 258.917 222.069L251.983 222.837C251.983 222.837 252.822 226.117 252.127 228.61C255.624 227.717 258.648 226.661 258.648 226.661Z" fill="#263238"/>
<path d="M246.872 159.014L233.68 160.72L233.169 160.786L230.459 150.841L229.744 161.494L215.608 160.72C209.31 123.754 220.075 115.023 220.075 115.023L239.256 118.88C247.942 133.647 245.875 150.808 245.875 150.808L246.872 159.014Z" fill="#263238"/>
<path d="M227.278 71.7732C226.379 71.7732 225.671 70.5465 225.671 68.9786C225.671 67.4108 226.379 66.1841 227.278 66.1841C228.176 66.1841 228.878 67.4108 228.878 68.9786C228.878 70.5465 228.17 71.7732 227.278 71.7732ZM227.278 66.5252C226.582 66.5252 225.999 67.6535 225.999 68.9918C225.999 70.33 226.582 71.4583 227.278 71.4583C227.973 71.4583 228.55 70.33 228.55 68.9918C228.55 67.6535 227.967 66.5121 227.278 66.5121V66.5252Z" fill="#263238"/>
<path d="M238.187 77.7818C238.135 77.8291 238.077 77.8708 238.016 77.9064C237.219 78.5158 236.31 78.9616 235.34 79.2184C232.506 79.8744 230.571 79.4808 229.305 78.2016C227.54 76.2795 227.094 72.8683 227.337 68.7618C227.381 67.1259 227.685 65.5073 228.236 63.9664C228.236 63.9664 228.236 63.9008 228.236 63.8877C228.236 63.8746 228.281 63.7696 228.308 63.7171C228.653 62.8474 229.211 62.0782 229.931 61.4799C230.651 60.8817 231.509 60.4735 232.427 60.2928C233.224 60.115 234.038 60.0248 234.855 60.0238C242.884 59.9386 244.327 73.2095 238.187 77.7818Z" fill="#EBB376"/>
<path opacity="0.2" d="M238.016 77.9068C237.212 78.4783 236.302 78.8862 235.34 79.1072C232.506 79.7632 230.571 79.2778 229.305 77.9789C231 78.3987 232.786 78.2513 234.389 77.5591C235.537 77.0343 236.816 77.3032 238.016 77.9068Z" fill="black"/>
<path d="M238.83 85.1421C239.322 87.4249 236.37 88.3565 236.37 88.3565C231.535 86.2901 230.643 83.7185 230.643 83.7185C234.671 81.6193 233.503 75.6694 233.503 75.6694L234.323 76.0696L240.083 77.1979C240.083 77.1979 238.482 80.2614 238.272 80.9633C237.183 84.6238 238.83 85.1421 238.83 85.1421Z" fill="#EBB376"/>
<path d="M228.236 63.914C228.236 63.914 227.789 69.5294 233.116 71.9435C233.116 71.9435 235.399 77.7819 238.771 77.8475C243.363 77.959 247.404 71.4318 245.81 64.7799C243.75 56.1732 230.682 55.4713 228.236 63.914Z" fill="#263238"/>
<path d="M230.42 70.3298C230.42 69.4507 231.129 67.9813 232.486 68.1781C233.844 68.3749 234.677 71.8648 231.214 72.6389C230.715 72.7504 230.413 72.16 230.42 70.3298Z" fill="#EBB376"/>
<path d="M238.016 57.9379C238.016 57.9379 232.657 56.5866 229.692 58.7383C226.235 61.2573 224.923 63.8616 229.036 67.9223C229.036 67.9223 238.036 65.0031 241.028 65.6197C242.778 65.9739 244.496 66.472 246.164 67.1088C246.774 61.1458 241.008 56.7243 238.016 57.9379Z" fill="#263238"/>
<path d="M231.214 68.7294H225.835C225.791 68.7294 225.749 68.7121 225.719 68.6813C225.688 68.6506 225.671 68.6089 225.671 68.5654C225.671 68.5219 225.688 68.4802 225.719 68.4494C225.749 68.4186 225.791 68.4014 225.835 68.4014H231.214C231.257 68.4014 231.299 68.4186 231.33 68.4494C231.36 68.4802 231.378 68.5219 231.378 68.5654C231.378 68.6089 231.36 68.6506 231.33 68.6813C231.299 68.7121 231.257 68.7294 231.214 68.7294Z" fill="#263238"/>
<path d="M241.985 61.277C241.985 61.277 247.528 56.685 252.199 60.0175C257.965 64.1634 251.543 80.1173 251.163 84.0927C250.782 88.068 252.717 89.8786 252.717 89.8786C252.717 89.8786 248.427 89.9704 246.872 83.1743C245.318 76.3781 250.152 65.0096 243.966 66.3479L241.985 61.277Z" fill="#263238"/>
<path opacity="0.2" d="M233.68 160.72L233.169 160.785L230.459 150.84C230.459 150.84 236.278 140.902 234.454 135.752C234.717 136.074 240.982 145.369 233.68 160.72Z" fill="black"/>
<path d="M222.791 84.6238C222.791 84.6238 229.187 82.4721 238.83 85.0961C248.473 87.7201 248.834 91.5971 248.834 91.5971C248.834 91.5971 242.72 104.632 241.756 119.425L216.624 118.539C216.624 118.539 213.626 97.6585 222.791 84.6238Z" fill="#263238"/>
<path opacity="0.2" d="M248.834 91.5644C248.834 91.5644 242.72 104.632 241.756 119.425L216.631 118.539C216.332 116.145 216.176 113.736 216.165 111.323C216.116 107.774 216.351 104.227 216.867 100.716C217.707 95.238 219.432 89.3931 222.771 84.6043C222.771 84.6043 229.167 82.4526 238.81 85.0766C248.453 87.7006 248.834 91.5644 248.834 91.5644Z" fill="white"/>
<path opacity="0.2" d="M222.863 95.7759C222.863 95.7759 221.393 107.636 216.165 111.343C216.116 107.794 216.351 104.247 216.867 100.735L222.863 95.7759Z" fill="black"/>
<path d="M222.791 84.624C215.325 87.6875 209.769 93.7555 209.769 93.7555L215.824 101.149C215.824 101.149 218.842 100.493 220.659 98.8789C226.031 94.0376 222.791 84.624 222.791 84.624Z" fill="#263238"/>
<path opacity="0.2" d="M222.791 84.624C215.325 87.6875 209.769 93.7555 209.769 93.7555L215.824 101.149C215.824 101.149 218.842 100.493 220.659 98.8789C226.031 94.0376 222.791 84.624 222.791 84.624Z" fill="white"/>
<path d="M199.837 85.326C199.793 84.6095 199.793 83.8909 199.837 83.1743C199.909 82.2231 195.108 77.0079 194.327 77.2703C193.546 77.5327 191.86 80.8849 192.359 82.0066C192.857 83.1284 196.643 86.5002 197.554 86.7561C198.466 87.0119 199.837 85.326 199.837 85.326Z" fill="#EBB376"/>
</svg>
