<svg width="1080" height="1080" viewBox="0 0 1080 1080" fill="none" xmlns="http://www.w3.org/2000/svg">
<rect width="1080" height="1080" fill="#263238"/>
<rect x="346" y="246" width="388" height="388" rx="90" stroke="white" stroke-width="20"/>
<path d="M509.418 439.646H571.29M540.354 408.711V470.582M493.95 351.995C462.627 351.995 437.234 377.388 437.234 408.711C437.234 465.426 504.262 516.986 540.354 528.979C576.446 516.986 643.473 465.426 643.473 408.711C643.473 377.388 618.08 351.995 586.758 351.995C567.577 351.995 550.614 361.518 540.354 376.094C535.124 368.644 528.176 362.565 520.099 358.37C512.021 354.175 503.052 351.988 493.95 351.995Z" stroke="#FFC727" stroke-width="20" stroke-linecap="round" stroke-linejoin="round"/>
<path d="M186.226 789.992C185.861 786.581 184.325 783.924 181.616 782.023C178.934 780.122 175.444 779.172 171.147 779.172C168.127 779.172 165.535 779.628 163.374 780.539C161.213 781.451 159.559 782.687 158.413 784.25C157.267 785.812 156.681 787.596 156.655 789.602C156.655 791.268 157.033 792.714 157.788 793.937C158.569 795.161 159.624 796.203 160.952 797.062C162.28 797.896 163.752 798.599 165.366 799.172C166.981 799.745 168.608 800.227 170.249 800.617L177.749 802.492C180.77 803.195 183.674 804.146 186.46 805.344C189.272 806.542 191.785 808.052 193.999 809.875C196.239 811.698 198.009 813.898 199.312 816.477C200.614 819.055 201.265 822.076 201.265 825.539C201.265 830.227 200.067 834.354 197.671 837.922C195.275 841.464 191.812 844.237 187.28 846.242C182.775 848.221 177.319 849.211 170.913 849.211C164.689 849.211 159.285 848.247 154.702 846.32C150.145 844.393 146.577 841.581 143.999 837.883C141.447 834.185 140.067 829.68 139.858 824.367H154.116C154.325 827.154 155.184 829.471 156.694 831.32C158.205 833.169 160.171 834.549 162.593 835.461C165.041 836.372 167.775 836.828 170.796 836.828C173.947 836.828 176.707 836.359 179.077 835.422C181.473 834.458 183.348 833.13 184.702 831.437C186.056 829.719 186.746 827.714 186.772 825.422C186.746 823.339 186.134 821.62 184.937 820.266C183.739 818.885 182.059 817.74 179.897 816.828C177.762 815.891 175.262 815.057 172.397 814.328L163.296 811.984C156.707 810.292 151.499 807.727 147.671 804.289C143.869 800.826 141.968 796.229 141.968 790.5C141.968 785.786 143.244 781.659 145.796 778.117C148.374 774.576 151.877 771.828 156.304 769.875C160.731 767.896 165.744 766.906 171.343 766.906C177.02 766.906 181.994 767.896 186.265 769.875C190.562 771.828 193.934 774.549 196.382 778.039C198.83 781.503 200.093 785.487 200.171 789.992H186.226ZM227.7 812.844V848H213.56V768H227.388V798.195H228.091C229.497 794.81 231.672 792.141 234.614 790.187C237.583 788.208 241.359 787.219 245.942 787.219C250.109 787.219 253.742 788.091 256.841 789.836C259.94 791.581 262.336 794.133 264.028 797.492C265.747 800.852 266.606 804.953 266.606 809.797V848H252.466V811.984C252.466 807.948 251.424 804.81 249.341 802.57C247.284 800.305 244.393 799.172 240.669 799.172C238.169 799.172 235.929 799.719 233.95 800.812C231.997 801.88 230.461 803.43 229.341 805.461C228.247 807.492 227.7 809.953 227.7 812.844ZM298.286 849.211C294.484 849.211 291.06 848.534 288.013 847.18C284.992 845.799 282.596 843.768 280.825 841.086C279.08 838.404 278.208 835.096 278.208 831.164C278.208 827.779 278.833 824.979 280.083 822.766C281.333 820.552 283.039 818.781 285.2 817.453C287.362 816.125 289.797 815.122 292.505 814.445C295.239 813.742 298.065 813.234 300.981 812.922C304.497 812.557 307.349 812.232 309.536 811.945C311.724 811.633 313.312 811.164 314.302 810.539C315.317 809.888 315.825 808.885 315.825 807.531V807.297C315.825 804.354 314.953 802.076 313.208 800.461C311.463 798.846 308.95 798.039 305.669 798.039C302.205 798.039 299.458 798.794 297.427 800.305C295.422 801.815 294.067 803.599 293.364 805.656L280.161 803.781C281.203 800.135 282.922 797.089 285.317 794.641C287.713 792.167 290.643 790.318 294.106 789.094C297.57 787.844 301.398 787.219 305.591 787.219C308.481 787.219 311.359 787.557 314.224 788.234C317.088 788.911 319.705 790.031 322.075 791.594C324.445 793.13 326.346 795.227 327.778 797.883C329.237 800.539 329.966 803.859 329.966 807.844V848H316.372V839.758H315.903C315.044 841.424 313.833 842.987 312.271 844.445C310.734 845.878 308.794 847.036 306.45 847.922C304.132 848.781 301.411 849.211 298.286 849.211ZM301.958 838.82C304.797 838.82 307.257 838.26 309.341 837.141C311.424 835.995 313.026 834.484 314.146 832.609C315.291 830.734 315.864 828.69 315.864 826.477V819.406C315.422 819.771 314.666 820.109 313.599 820.422C312.557 820.734 311.385 821.008 310.083 821.242C308.781 821.477 307.492 821.685 306.216 821.867C304.94 822.049 303.833 822.206 302.896 822.336C300.786 822.622 298.898 823.091 297.231 823.742C295.565 824.393 294.25 825.305 293.286 826.477C292.323 827.622 291.841 829.107 291.841 830.93C291.841 833.534 292.791 835.5 294.692 836.828C296.593 838.156 299.015 838.82 301.958 838.82ZM344.185 848V788H357.896V798H358.521C359.614 794.536 361.489 791.867 364.146 789.992C366.828 788.091 369.888 787.141 373.325 787.141C374.106 787.141 374.979 787.18 375.942 787.258C376.932 787.31 377.752 787.401 378.403 787.531V800.539C377.804 800.331 376.854 800.148 375.552 799.992C374.276 799.81 373.039 799.719 371.841 799.719C369.263 799.719 366.945 800.279 364.888 801.398C362.856 802.492 361.255 804.016 360.083 805.969C358.911 807.922 358.325 810.174 358.325 812.727V848H344.185ZM411.89 849.172C405.874 849.172 400.679 847.922 396.304 845.422C391.955 842.896 388.608 839.328 386.265 834.719C383.921 830.083 382.749 824.628 382.749 818.352C382.749 812.18 383.921 806.763 386.265 802.102C388.634 797.414 391.942 793.768 396.187 791.164C400.431 788.534 405.418 787.219 411.147 787.219C414.845 787.219 418.335 787.818 421.616 789.016C424.924 790.187 427.84 792.01 430.366 794.484C432.918 796.958 434.924 800.109 436.382 803.937C437.84 807.74 438.569 812.271 438.569 817.531V821.867H389.39V812.336H425.015C424.989 809.628 424.403 807.219 423.257 805.109C422.111 802.974 420.509 801.294 418.452 800.07C416.421 798.846 414.051 798.234 411.343 798.234C408.452 798.234 405.913 798.937 403.726 800.344C401.538 801.724 399.832 803.547 398.608 805.812C397.41 808.052 396.799 810.513 396.772 813.195V821.516C396.772 825.005 397.41 828 398.687 830.5C399.963 832.974 401.746 834.875 404.038 836.203C406.33 837.505 409.012 838.156 412.085 838.156C414.142 838.156 416.004 837.87 417.671 837.297C419.338 836.698 420.783 835.826 422.007 834.68C423.231 833.534 424.155 832.115 424.78 830.422L437.983 831.906C437.15 835.396 435.562 838.443 433.218 841.047C430.9 843.625 427.931 845.63 424.312 847.062C420.692 848.469 416.551 849.172 411.89 849.172ZM461.431 848H445.962L474.126 768H492.017L520.22 848H504.751L483.384 784.406H482.759L461.431 848ZM461.938 816.633H504.126V828.273H461.938V816.633ZM544.272 768V848H530.132V768H544.272ZM572.954 768V848H558.813V768H572.954ZM584.604 780.148V768H648.433V780.148H623.706V848H609.331V780.148H584.604ZM674.253 812.844V848H660.112V768H673.94V798.195H674.644C676.05 794.81 678.224 792.141 681.167 790.187C684.136 788.208 687.912 787.219 692.495 787.219C696.662 787.219 700.295 788.091 703.394 789.836C706.493 791.581 708.888 794.133 710.581 797.492C712.3 800.852 713.159 804.953 713.159 809.797V848H699.019V811.984C699.019 807.948 697.977 804.81 695.894 802.57C693.836 800.305 690.946 799.172 687.222 799.172C684.722 799.172 682.482 799.719 680.503 800.812C678.55 801.88 677.013 803.43 675.894 805.461C674.8 807.492 674.253 809.953 674.253 812.844ZM727.573 848V788H741.714V848H727.573ZM734.683 779.484C732.443 779.484 730.516 778.742 728.901 777.258C727.287 775.747 726.479 773.937 726.479 771.828C726.479 769.693 727.287 767.883 728.901 766.398C730.516 764.888 732.443 764.133 734.683 764.133C736.948 764.133 738.875 764.888 740.464 766.398C742.078 767.883 742.886 769.693 742.886 771.828C742.886 773.937 742.078 775.747 740.464 777.258C738.875 778.742 736.948 779.484 734.683 779.484ZM770.396 812.844V848H756.255V788H769.771V798.195H770.474C771.854 794.836 774.054 792.167 777.075 790.187C780.122 788.208 783.885 787.219 788.364 787.219C792.505 787.219 796.112 788.104 799.185 789.875C802.284 791.646 804.679 794.211 806.372 797.57C808.091 800.93 808.937 805.005 808.911 809.797V848H794.771V811.984C794.771 807.974 793.729 804.836 791.646 802.57C789.588 800.305 786.737 799.172 783.091 799.172C780.617 799.172 778.416 799.719 776.489 800.812C774.588 801.88 773.091 803.43 771.997 805.461C770.929 807.492 770.396 809.953 770.396 812.844ZM849.38 871.75C844.302 871.75 839.94 871.06 836.294 869.68C832.648 868.326 829.718 866.503 827.505 864.211C825.291 861.919 823.755 859.38 822.896 856.594L835.63 853.508C836.203 854.68 837.036 855.839 838.13 856.984C839.224 858.156 840.695 859.12 842.544 859.875C844.419 860.656 846.776 861.047 849.614 861.047C853.625 861.047 856.945 860.07 859.575 858.117C862.205 856.19 863.521 853.013 863.521 848.586V837.219H862.817C862.088 838.677 861.021 840.174 859.614 841.711C858.234 843.247 856.398 844.536 854.106 845.578C851.841 846.62 848.989 847.141 845.552 847.141C840.942 847.141 836.763 846.06 833.013 843.898C829.289 841.711 826.32 838.456 824.106 834.133C821.919 829.784 820.825 824.341 820.825 817.805C820.825 811.216 821.919 805.656 824.106 801.125C826.32 796.568 829.302 793.117 833.052 790.773C836.802 788.404 840.981 787.219 845.591 787.219C849.106 787.219 851.997 787.818 854.263 789.016C856.554 790.187 858.377 791.607 859.731 793.273C861.086 794.914 862.114 796.464 862.817 797.922H863.599V788H877.544V848.977C877.544 854.107 876.32 858.352 873.872 861.711C871.424 865.07 868.078 867.583 863.833 869.25C859.588 870.917 854.771 871.75 849.38 871.75ZM849.497 836.047C852.492 836.047 855.044 835.318 857.153 833.859C859.263 832.401 860.864 830.305 861.958 827.57C863.052 824.836 863.599 821.555 863.599 817.727C863.599 813.951 863.052 810.643 861.958 807.805C860.89 804.966 859.302 802.766 857.192 801.203C855.109 799.615 852.544 798.82 849.497 798.82C846.346 798.82 843.716 799.641 841.606 801.281C839.497 802.922 837.909 805.174 836.841 808.039C835.773 810.878 835.239 814.107 835.239 817.727C835.239 821.398 835.773 824.615 836.841 827.375C837.935 830.109 839.536 832.245 841.646 833.781C843.781 835.292 846.398 836.047 849.497 836.047ZM939.458 803.859L926.567 805.266C926.203 803.964 925.565 802.74 924.653 801.594C923.768 800.448 922.57 799.523 921.06 798.82C919.549 798.117 917.7 797.766 915.513 797.766C912.57 797.766 910.096 798.404 908.091 799.68C906.112 800.956 905.135 802.609 905.161 804.641C905.135 806.385 905.773 807.805 907.075 808.898C908.403 809.992 910.591 810.891 913.638 811.594L923.872 813.781C929.549 815.005 933.768 816.945 936.528 819.602C939.315 822.258 940.721 825.734 940.747 830.031C940.721 833.807 939.614 837.141 937.427 840.031C935.265 842.896 932.257 845.135 928.403 846.75C924.549 848.365 920.122 849.172 915.122 849.172C907.778 849.172 901.867 847.635 897.388 844.562C892.909 841.464 890.239 837.154 889.38 831.633L903.169 830.305C903.794 833.013 905.122 835.057 907.153 836.437C909.185 837.818 911.828 838.508 915.083 838.508C918.442 838.508 921.138 837.818 923.169 836.437C925.226 835.057 926.255 833.352 926.255 831.32C926.255 829.602 925.591 828.182 924.263 827.062C922.961 825.943 920.929 825.083 918.169 824.484L907.935 822.336C902.179 821.138 897.922 819.12 895.161 816.281C892.401 813.417 891.034 809.797 891.06 805.422C891.034 801.724 892.036 798.521 894.067 795.812C896.125 793.078 898.976 790.969 902.622 789.484C906.294 787.974 910.526 787.219 915.317 787.219C922.349 787.219 927.882 788.716 931.919 791.711C935.981 794.706 938.494 798.755 939.458 803.859Z" fill="white"/>
</svg>
